M48
;GenerationSoftware,Autodesk,EAGLE,9.6.2*%
;CreationDate,2025-08-21T16:42:32Z*%
FMAT,2
ICI,OFF
METRIC,TZ,000.000
T4C0.350
T3C0.813
T2C1.000
T1C1.500
%
G90
M71
T1
X11430Y31750
X11430Y41910
T2
X10160Y40640
X10160Y38100
X10160Y43180
X12700Y43180
X12700Y40640
X12700Y38100
X12700Y35560
X12700Y33020
X12700Y30480
X10160Y30480
X10160Y33020
X10160Y35560
T3
X5715Y6715
X5715Y21860
X5715Y23860
X5715Y4715
T4
X14605Y15240
X20955Y35560
X24765Y12700
X24130Y42545
X20320Y10795
X7620Y46355
X7620Y40640
X18415Y26670
X7620Y26670
X7620Y35560
X20955Y17145
X24130Y35560
X25400Y26670
X26670Y42545
X14605Y26670
M30