G04 EAGLE Gerber RS-274X export*
G75*
%MOMM*%
%FSLAX34Y34*%
%LPD*%
%INBottom Copper*%
%IPPOS*%
%AMOC8*
5,1,8,0,0,1.08239X$1,22.5*%
G01*
%ADD10P,1.814519X8X112.500000*%
%ADD11C,0.756400*%
%ADD12C,0.254000*%

G36*
X288818Y16514D02*
X288818Y16514D01*
X288837Y16512D01*
X288939Y16534D01*
X289041Y16550D01*
X289058Y16560D01*
X289078Y16564D01*
X289167Y16617D01*
X289258Y16666D01*
X289272Y16680D01*
X289289Y16690D01*
X289356Y16769D01*
X289428Y16844D01*
X289436Y16862D01*
X289449Y16877D01*
X289488Y16973D01*
X289531Y17067D01*
X289533Y17087D01*
X289541Y17105D01*
X289559Y17272D01*
X289559Y555498D01*
X289558Y555509D01*
X289558Y555515D01*
X289557Y555523D01*
X289558Y555537D01*
X289536Y555639D01*
X289520Y555741D01*
X289510Y555758D01*
X289506Y555778D01*
X289453Y555867D01*
X289404Y555958D01*
X289390Y555972D01*
X289380Y555989D01*
X289301Y556056D01*
X289226Y556128D01*
X289208Y556136D01*
X289193Y556149D01*
X289097Y556188D01*
X289003Y556231D01*
X288983Y556233D01*
X288965Y556241D01*
X288798Y556259D01*
X61722Y556259D01*
X61702Y556256D01*
X61683Y556258D01*
X61581Y556236D01*
X61479Y556220D01*
X61462Y556210D01*
X61442Y556206D01*
X61353Y556153D01*
X61262Y556104D01*
X61248Y556090D01*
X61231Y556080D01*
X61164Y556001D01*
X61092Y555926D01*
X61084Y555908D01*
X61071Y555893D01*
X61032Y555797D01*
X60989Y555703D01*
X60987Y555683D01*
X60979Y555665D01*
X60961Y555498D01*
X60961Y264679D01*
X59414Y260944D01*
X56556Y258086D01*
X52821Y256539D01*
X23622Y256539D01*
X23602Y256536D01*
X23583Y256538D01*
X23481Y256516D01*
X23379Y256500D01*
X23362Y256490D01*
X23342Y256486D01*
X23253Y256433D01*
X23162Y256384D01*
X23148Y256370D01*
X23131Y256360D01*
X23064Y256281D01*
X22992Y256206D01*
X22984Y256188D01*
X22971Y256173D01*
X22932Y256077D01*
X22889Y255983D01*
X22887Y255963D01*
X22879Y255945D01*
X22861Y255778D01*
X22861Y17272D01*
X22864Y17252D01*
X22862Y17233D01*
X22884Y17131D01*
X22900Y17029D01*
X22910Y17012D01*
X22914Y16992D01*
X22967Y16903D01*
X23016Y16812D01*
X23030Y16798D01*
X23040Y16781D01*
X23119Y16714D01*
X23194Y16642D01*
X23212Y16634D01*
X23227Y16621D01*
X23323Y16582D01*
X23417Y16539D01*
X23437Y16537D01*
X23455Y16529D01*
X23622Y16511D01*
X288798Y16511D01*
X288818Y16514D01*
G37*
%LPC*%
G36*
X98584Y289639D02*
X98584Y289639D01*
X93012Y291947D01*
X88747Y296212D01*
X86439Y301784D01*
X86439Y307816D01*
X88747Y313388D01*
X92321Y316962D01*
X92333Y316978D01*
X92348Y316990D01*
X92405Y317078D01*
X92465Y317161D01*
X92471Y317180D01*
X92481Y317197D01*
X92507Y317298D01*
X92537Y317397D01*
X92537Y317416D01*
X92541Y317436D01*
X92533Y317539D01*
X92531Y317642D01*
X92524Y317661D01*
X92522Y317681D01*
X92482Y317776D01*
X92446Y317873D01*
X92434Y317889D01*
X92426Y317907D01*
X92321Y318038D01*
X88747Y321612D01*
X86439Y327184D01*
X86439Y333216D01*
X88747Y338788D01*
X92321Y342362D01*
X92333Y342378D01*
X92348Y342390D01*
X92405Y342478D01*
X92465Y342561D01*
X92471Y342580D01*
X92481Y342597D01*
X92507Y342698D01*
X92537Y342797D01*
X92537Y342816D01*
X92541Y342836D01*
X92533Y342939D01*
X92531Y343042D01*
X92524Y343061D01*
X92522Y343081D01*
X92482Y343176D01*
X92446Y343273D01*
X92434Y343289D01*
X92426Y343307D01*
X92321Y343438D01*
X88747Y347012D01*
X86439Y352584D01*
X86439Y358616D01*
X88747Y364188D01*
X92321Y367762D01*
X92333Y367778D01*
X92348Y367790D01*
X92405Y367878D01*
X92465Y367961D01*
X92471Y367980D01*
X92481Y367997D01*
X92507Y368098D01*
X92537Y368197D01*
X92537Y368216D01*
X92541Y368236D01*
X92533Y368339D01*
X92531Y368442D01*
X92524Y368461D01*
X92522Y368481D01*
X92482Y368576D01*
X92446Y368673D01*
X92434Y368689D01*
X92426Y368707D01*
X92321Y368838D01*
X88747Y372412D01*
X86439Y377984D01*
X86439Y384016D01*
X88747Y389588D01*
X92321Y393162D01*
X92333Y393178D01*
X92348Y393190D01*
X92405Y393278D01*
X92465Y393361D01*
X92471Y393380D01*
X92481Y393397D01*
X92507Y393498D01*
X92537Y393597D01*
X92537Y393616D01*
X92541Y393636D01*
X92533Y393739D01*
X92531Y393842D01*
X92524Y393861D01*
X92522Y393881D01*
X92482Y393976D01*
X92446Y394073D01*
X92434Y394089D01*
X92426Y394107D01*
X92321Y394238D01*
X88747Y397812D01*
X86439Y403384D01*
X86439Y409416D01*
X88747Y414988D01*
X92321Y418562D01*
X92333Y418578D01*
X92348Y418590D01*
X92405Y418678D01*
X92465Y418761D01*
X92471Y418780D01*
X92481Y418797D01*
X92507Y418898D01*
X92537Y418997D01*
X92537Y419016D01*
X92541Y419036D01*
X92533Y419139D01*
X92531Y419242D01*
X92524Y419261D01*
X92522Y419281D01*
X92482Y419376D01*
X92446Y419473D01*
X92434Y419489D01*
X92426Y419507D01*
X92321Y419638D01*
X88747Y423212D01*
X86439Y428784D01*
X86439Y434816D01*
X88747Y440388D01*
X93012Y444653D01*
X98584Y446961D01*
X104616Y446961D01*
X110188Y444653D01*
X113762Y441079D01*
X113778Y441067D01*
X113790Y441052D01*
X113878Y440996D01*
X113961Y440935D01*
X113980Y440929D01*
X113997Y440919D01*
X114098Y440893D01*
X114197Y440863D01*
X114216Y440863D01*
X114236Y440859D01*
X114339Y440867D01*
X114442Y440869D01*
X114461Y440876D01*
X114481Y440878D01*
X114576Y440918D01*
X114673Y440954D01*
X114689Y440966D01*
X114707Y440974D01*
X114838Y441079D01*
X118412Y444653D01*
X123984Y446961D01*
X130016Y446961D01*
X135588Y444653D01*
X139853Y440388D01*
X142161Y434816D01*
X142161Y428784D01*
X139853Y423212D01*
X136279Y419638D01*
X136267Y419622D01*
X136252Y419610D01*
X136195Y419522D01*
X136135Y419439D01*
X136129Y419420D01*
X136119Y419403D01*
X136093Y419302D01*
X136063Y419203D01*
X136063Y419184D01*
X136059Y419164D01*
X136067Y419061D01*
X136069Y418958D01*
X136076Y418939D01*
X136078Y418919D01*
X136118Y418824D01*
X136154Y418727D01*
X136166Y418711D01*
X136174Y418693D01*
X136279Y418562D01*
X139853Y414988D01*
X142161Y409416D01*
X142161Y403384D01*
X139853Y397812D01*
X136279Y394238D01*
X136267Y394222D01*
X136252Y394210D01*
X136195Y394122D01*
X136135Y394039D01*
X136129Y394020D01*
X136119Y394003D01*
X136093Y393902D01*
X136063Y393803D01*
X136063Y393784D01*
X136059Y393764D01*
X136067Y393661D01*
X136069Y393558D01*
X136076Y393539D01*
X136078Y393519D01*
X136118Y393424D01*
X136154Y393327D01*
X136166Y393311D01*
X136174Y393293D01*
X136279Y393162D01*
X139853Y389588D01*
X142161Y384016D01*
X142161Y377984D01*
X139853Y372412D01*
X136279Y368838D01*
X136267Y368822D01*
X136252Y368810D01*
X136195Y368722D01*
X136135Y368639D01*
X136129Y368620D01*
X136119Y368603D01*
X136093Y368502D01*
X136063Y368403D01*
X136063Y368384D01*
X136059Y368364D01*
X136067Y368261D01*
X136069Y368158D01*
X136076Y368139D01*
X136078Y368119D01*
X136118Y368024D01*
X136154Y367927D01*
X136166Y367911D01*
X136174Y367893D01*
X136279Y367762D01*
X139853Y364188D01*
X142161Y358616D01*
X142161Y352584D01*
X139853Y347012D01*
X136279Y343438D01*
X136267Y343422D01*
X136252Y343410D01*
X136195Y343322D01*
X136135Y343239D01*
X136129Y343220D01*
X136119Y343203D01*
X136093Y343102D01*
X136063Y343003D01*
X136063Y342984D01*
X136059Y342964D01*
X136067Y342861D01*
X136069Y342758D01*
X136076Y342739D01*
X136078Y342719D01*
X136118Y342624D01*
X136154Y342527D01*
X136166Y342511D01*
X136174Y342493D01*
X136279Y342362D01*
X139853Y338788D01*
X142161Y333216D01*
X142161Y327184D01*
X139853Y321612D01*
X136279Y318038D01*
X136267Y318022D01*
X136252Y318010D01*
X136195Y317922D01*
X136135Y317839D01*
X136129Y317820D01*
X136119Y317803D01*
X136093Y317702D01*
X136063Y317603D01*
X136063Y317584D01*
X136059Y317564D01*
X136067Y317461D01*
X136069Y317358D01*
X136076Y317339D01*
X136078Y317319D01*
X136118Y317224D01*
X136154Y317127D01*
X136166Y317111D01*
X136174Y317093D01*
X136279Y316962D01*
X139853Y313388D01*
X142161Y307816D01*
X142161Y301784D01*
X139853Y296212D01*
X135588Y291947D01*
X130016Y289639D01*
X123984Y289639D01*
X118412Y291947D01*
X114838Y295521D01*
X114822Y295533D01*
X114810Y295548D01*
X114722Y295605D01*
X114639Y295665D01*
X114620Y295671D01*
X114603Y295681D01*
X114502Y295707D01*
X114403Y295737D01*
X114384Y295737D01*
X114364Y295741D01*
X114261Y295733D01*
X114158Y295731D01*
X114139Y295724D01*
X114119Y295722D01*
X114024Y295682D01*
X113927Y295646D01*
X113911Y295634D01*
X113893Y295626D01*
X113762Y295521D01*
X110188Y291947D01*
X104616Y289639D01*
X98584Y289639D01*
G37*
%LPD*%
%LPC*%
G36*
X57149Y47149D02*
X57149Y47149D01*
X57149Y47912D01*
X57146Y47932D01*
X57148Y47951D01*
X57126Y48053D01*
X57109Y48155D01*
X57100Y48172D01*
X57096Y48192D01*
X57043Y48281D01*
X56994Y48372D01*
X56980Y48386D01*
X56970Y48403D01*
X56891Y48470D01*
X56816Y48541D01*
X56798Y48550D01*
X56783Y48563D01*
X56687Y48602D01*
X56593Y48645D01*
X56573Y48647D01*
X56555Y48655D01*
X56388Y48673D01*
X46227Y48673D01*
X46227Y51674D01*
X51883Y57330D01*
X51895Y57346D01*
X51910Y57359D01*
X51966Y57446D01*
X52027Y57530D01*
X52032Y57549D01*
X52043Y57566D01*
X52069Y57666D01*
X52099Y57765D01*
X52098Y57785D01*
X52103Y57804D01*
X52095Y57907D01*
X52093Y58011D01*
X52086Y58030D01*
X52084Y58049D01*
X52044Y58144D01*
X52008Y58242D01*
X51996Y58258D01*
X51988Y58276D01*
X51883Y58407D01*
X47243Y63046D01*
X47243Y71254D01*
X53046Y77057D01*
X61254Y77057D01*
X67057Y71254D01*
X67057Y70706D01*
X67060Y70686D01*
X67058Y70667D01*
X67080Y70565D01*
X67096Y70463D01*
X67106Y70446D01*
X67110Y70426D01*
X67163Y70337D01*
X67212Y70246D01*
X67226Y70232D01*
X67236Y70215D01*
X67315Y70148D01*
X67390Y70076D01*
X67408Y70068D01*
X67423Y70055D01*
X67519Y70016D01*
X67613Y69973D01*
X67633Y69971D01*
X67651Y69963D01*
X67818Y69945D01*
X180594Y69945D01*
X180614Y69948D01*
X180633Y69946D01*
X180735Y69968D01*
X180837Y69984D01*
X180854Y69994D01*
X180874Y69998D01*
X180963Y70051D01*
X181054Y70100D01*
X181068Y70114D01*
X181085Y70124D01*
X181152Y70203D01*
X181224Y70278D01*
X181232Y70296D01*
X181245Y70311D01*
X181284Y70407D01*
X181327Y70501D01*
X181329Y70521D01*
X181337Y70539D01*
X181355Y70706D01*
X181355Y261675D01*
X181341Y261765D01*
X181333Y261856D01*
X181321Y261885D01*
X181316Y261917D01*
X181273Y261998D01*
X181237Y262082D01*
X181211Y262114D01*
X181200Y262135D01*
X181177Y262157D01*
X181132Y262213D01*
X178843Y264502D01*
X178843Y268898D01*
X181952Y272007D01*
X186348Y272007D01*
X189457Y268898D01*
X189457Y264502D01*
X187168Y262213D01*
X187115Y262139D01*
X187055Y262069D01*
X187043Y262039D01*
X187024Y262013D01*
X186997Y261926D01*
X186963Y261841D01*
X186959Y261800D01*
X186952Y261778D01*
X186953Y261746D01*
X186945Y261675D01*
X186945Y65992D01*
X185308Y64355D01*
X67818Y64355D01*
X67798Y64352D01*
X67779Y64354D01*
X67677Y64332D01*
X67575Y64316D01*
X67558Y64306D01*
X67538Y64302D01*
X67449Y64249D01*
X67358Y64200D01*
X67344Y64186D01*
X67327Y64176D01*
X67260Y64097D01*
X67188Y64022D01*
X67180Y64004D01*
X67167Y63989D01*
X67128Y63893D01*
X67085Y63799D01*
X67083Y63779D01*
X67075Y63761D01*
X67057Y63594D01*
X67057Y63046D01*
X62417Y58407D01*
X62405Y58391D01*
X62390Y58378D01*
X62334Y58291D01*
X62273Y58207D01*
X62268Y58188D01*
X62257Y58171D01*
X62231Y58071D01*
X62201Y57972D01*
X62202Y57952D01*
X62197Y57933D01*
X62205Y57830D01*
X62207Y57726D01*
X62214Y57707D01*
X62216Y57687D01*
X62256Y57593D01*
X62292Y57495D01*
X62304Y57479D01*
X62312Y57461D01*
X62417Y57330D01*
X68073Y51674D01*
X68073Y48673D01*
X57912Y48673D01*
X57892Y48670D01*
X57873Y48672D01*
X57771Y48650D01*
X57669Y48633D01*
X57652Y48624D01*
X57632Y48620D01*
X57543Y48567D01*
X57452Y48518D01*
X57438Y48504D01*
X57421Y48494D01*
X57354Y48415D01*
X57283Y48340D01*
X57274Y48322D01*
X57261Y48307D01*
X57223Y48211D01*
X57179Y48117D01*
X57177Y48097D01*
X57169Y48079D01*
X57151Y47912D01*
X57151Y47149D01*
X57149Y47149D01*
G37*
%LPD*%
%LPC*%
G36*
X201002Y102643D02*
X201002Y102643D01*
X197893Y105752D01*
X197893Y110148D01*
X201002Y113257D01*
X205398Y113257D01*
X207687Y110968D01*
X207761Y110915D01*
X207831Y110855D01*
X207861Y110843D01*
X207887Y110824D01*
X207974Y110797D01*
X208059Y110763D01*
X208100Y110759D01*
X208122Y110752D01*
X208154Y110753D01*
X208225Y110745D01*
X225044Y110745D01*
X225064Y110748D01*
X225083Y110746D01*
X225185Y110768D01*
X225287Y110784D01*
X225304Y110794D01*
X225324Y110798D01*
X225413Y110851D01*
X225504Y110900D01*
X225518Y110914D01*
X225535Y110924D01*
X225602Y111003D01*
X225674Y111078D01*
X225682Y111096D01*
X225695Y111111D01*
X225734Y111207D01*
X225777Y111301D01*
X225779Y111321D01*
X225787Y111339D01*
X225805Y111506D01*
X225805Y426608D01*
X227442Y428245D01*
X236275Y428245D01*
X236365Y428259D01*
X236456Y428267D01*
X236485Y428279D01*
X236517Y428284D01*
X236598Y428327D01*
X236682Y428363D01*
X236714Y428389D01*
X236735Y428400D01*
X236757Y428423D01*
X236813Y428468D01*
X239102Y430757D01*
X243498Y430757D01*
X246607Y427648D01*
X246607Y423252D01*
X243498Y420143D01*
X239102Y420143D01*
X236813Y422432D01*
X236739Y422485D01*
X236669Y422545D01*
X236639Y422557D01*
X236613Y422576D01*
X236526Y422603D01*
X236441Y422637D01*
X236400Y422641D01*
X236378Y422648D01*
X236346Y422647D01*
X236275Y422655D01*
X232156Y422655D01*
X232136Y422652D01*
X232117Y422654D01*
X232015Y422632D01*
X231913Y422616D01*
X231896Y422606D01*
X231876Y422602D01*
X231787Y422549D01*
X231696Y422500D01*
X231682Y422486D01*
X231665Y422476D01*
X231598Y422397D01*
X231526Y422322D01*
X231518Y422304D01*
X231505Y422289D01*
X231466Y422193D01*
X231423Y422099D01*
X231421Y422079D01*
X231413Y422061D01*
X231395Y421894D01*
X231395Y106792D01*
X229758Y105155D01*
X208225Y105155D01*
X208135Y105141D01*
X208044Y105133D01*
X208015Y105121D01*
X207983Y105116D01*
X207902Y105073D01*
X207818Y105037D01*
X207786Y105011D01*
X207765Y105000D01*
X207743Y104977D01*
X207687Y104932D01*
X205398Y102643D01*
X201002Y102643D01*
G37*
%LPD*%
%LPC*%
G36*
X245452Y121693D02*
X245452Y121693D01*
X242343Y124802D01*
X242343Y129198D01*
X245452Y132307D01*
X249848Y132307D01*
X252137Y130018D01*
X252211Y129965D01*
X252281Y129905D01*
X252311Y129893D01*
X252337Y129874D01*
X252424Y129847D01*
X252509Y129813D01*
X252550Y129809D01*
X252572Y129802D01*
X252604Y129803D01*
X252675Y129795D01*
X275844Y129795D01*
X275864Y129798D01*
X275883Y129796D01*
X275985Y129818D01*
X276087Y129834D01*
X276104Y129844D01*
X276124Y129848D01*
X276213Y129901D01*
X276304Y129950D01*
X276318Y129964D01*
X276335Y129974D01*
X276402Y130053D01*
X276474Y130128D01*
X276482Y130146D01*
X276495Y130161D01*
X276534Y130257D01*
X276577Y130351D01*
X276579Y130371D01*
X276587Y130389D01*
X276605Y130556D01*
X276605Y421894D01*
X276602Y421914D01*
X276604Y421933D01*
X276582Y422035D01*
X276566Y422137D01*
X276556Y422154D01*
X276552Y422174D01*
X276499Y422263D01*
X276450Y422354D01*
X276436Y422368D01*
X276426Y422385D01*
X276347Y422452D01*
X276272Y422524D01*
X276254Y422532D01*
X276239Y422545D01*
X276143Y422584D01*
X276049Y422627D01*
X276029Y422629D01*
X276011Y422637D01*
X275844Y422655D01*
X271725Y422655D01*
X271635Y422641D01*
X271544Y422633D01*
X271515Y422621D01*
X271483Y422616D01*
X271402Y422573D01*
X271318Y422537D01*
X271286Y422511D01*
X271265Y422500D01*
X271243Y422477D01*
X271187Y422432D01*
X268898Y420143D01*
X264502Y420143D01*
X261393Y423252D01*
X261393Y427648D01*
X264502Y430757D01*
X268898Y430757D01*
X271187Y428468D01*
X271261Y428415D01*
X271331Y428355D01*
X271361Y428343D01*
X271387Y428324D01*
X271474Y428297D01*
X271559Y428263D01*
X271600Y428259D01*
X271622Y428252D01*
X271654Y428253D01*
X271725Y428245D01*
X280558Y428245D01*
X282195Y426608D01*
X282195Y125842D01*
X280558Y124205D01*
X252675Y124205D01*
X252585Y124191D01*
X252494Y124183D01*
X252465Y124171D01*
X252433Y124166D01*
X252352Y124123D01*
X252268Y124087D01*
X252236Y124061D01*
X252215Y124050D01*
X252193Y124027D01*
X252137Y123982D01*
X249848Y121693D01*
X245452Y121693D01*
G37*
%LPD*%
%LPC*%
G36*
X207352Y166143D02*
X207352Y166143D01*
X204243Y169252D01*
X204243Y173648D01*
X206532Y175937D01*
X206585Y176011D01*
X206645Y176081D01*
X206657Y176111D01*
X206676Y176137D01*
X206703Y176224D01*
X206737Y176309D01*
X206741Y176350D01*
X206748Y176372D01*
X206747Y176404D01*
X206755Y176475D01*
X206755Y350575D01*
X206741Y350665D01*
X206733Y350756D01*
X206721Y350785D01*
X206716Y350817D01*
X206673Y350898D01*
X206637Y350982D01*
X206611Y351014D01*
X206600Y351035D01*
X206577Y351057D01*
X206532Y351113D01*
X204243Y353402D01*
X204243Y357798D01*
X207352Y360907D01*
X211748Y360907D01*
X214857Y357798D01*
X214857Y353402D01*
X212568Y351113D01*
X212515Y351039D01*
X212455Y350969D01*
X212443Y350939D01*
X212424Y350913D01*
X212397Y350826D01*
X212363Y350741D01*
X212359Y350700D01*
X212352Y350678D01*
X212353Y350646D01*
X212345Y350575D01*
X212345Y176475D01*
X212359Y176385D01*
X212367Y176294D01*
X212379Y176265D01*
X212384Y176233D01*
X212427Y176152D01*
X212463Y176068D01*
X212489Y176036D01*
X212500Y176015D01*
X212523Y175993D01*
X212568Y175937D01*
X214857Y173648D01*
X214857Y169252D01*
X211748Y166143D01*
X207352Y166143D01*
G37*
%LPD*%
%LPC*%
G36*
X143852Y147093D02*
X143852Y147093D01*
X140743Y150202D01*
X140743Y154598D01*
X143032Y156887D01*
X143085Y156961D01*
X143145Y157031D01*
X143157Y157061D01*
X143176Y157087D01*
X143203Y157174D01*
X143237Y157259D01*
X143241Y157300D01*
X143248Y157322D01*
X143247Y157354D01*
X143255Y157425D01*
X143255Y261675D01*
X143241Y261765D01*
X143233Y261856D01*
X143221Y261885D01*
X143216Y261917D01*
X143173Y261998D01*
X143137Y262082D01*
X143111Y262114D01*
X143100Y262135D01*
X143077Y262157D01*
X143032Y262213D01*
X140743Y264502D01*
X140743Y268898D01*
X143852Y272007D01*
X148248Y272007D01*
X151357Y268898D01*
X151357Y264502D01*
X149068Y262213D01*
X149015Y262139D01*
X148955Y262069D01*
X148943Y262039D01*
X148924Y262013D01*
X148897Y261926D01*
X148863Y261841D01*
X148859Y261800D01*
X148852Y261778D01*
X148853Y261746D01*
X148845Y261675D01*
X148845Y157425D01*
X148859Y157335D01*
X148867Y157244D01*
X148879Y157215D01*
X148884Y157183D01*
X148927Y157102D01*
X148963Y157018D01*
X148989Y156986D01*
X149000Y156965D01*
X149023Y156943D01*
X149068Y156887D01*
X151357Y154598D01*
X151357Y150202D01*
X148248Y147093D01*
X143852Y147093D01*
G37*
%LPD*%
%LPC*%
G36*
X251802Y261393D02*
X251802Y261393D01*
X248693Y264502D01*
X248693Y268898D01*
X250982Y271187D01*
X251035Y271261D01*
X251095Y271331D01*
X251107Y271361D01*
X251126Y271387D01*
X251153Y271474D01*
X251187Y271559D01*
X251191Y271600D01*
X251198Y271622D01*
X251197Y271654D01*
X251205Y271725D01*
X251205Y352044D01*
X251202Y352064D01*
X251204Y352083D01*
X251182Y352185D01*
X251166Y352287D01*
X251156Y352304D01*
X251152Y352324D01*
X251099Y352413D01*
X251050Y352504D01*
X251036Y352518D01*
X251026Y352535D01*
X250947Y352602D01*
X250872Y352674D01*
X250854Y352682D01*
X250839Y352695D01*
X250743Y352734D01*
X250649Y352777D01*
X250629Y352779D01*
X250611Y352787D01*
X250444Y352805D01*
X246325Y352805D01*
X246235Y352791D01*
X246144Y352783D01*
X246115Y352771D01*
X246083Y352766D01*
X246002Y352723D01*
X245918Y352687D01*
X245886Y352661D01*
X245865Y352650D01*
X245843Y352627D01*
X245787Y352582D01*
X243498Y350293D01*
X239102Y350293D01*
X235993Y353402D01*
X235993Y357798D01*
X239102Y360907D01*
X243498Y360907D01*
X245787Y358618D01*
X245861Y358565D01*
X245931Y358505D01*
X245961Y358493D01*
X245987Y358474D01*
X246074Y358447D01*
X246159Y358413D01*
X246200Y358409D01*
X246222Y358402D01*
X246254Y358403D01*
X246325Y358395D01*
X255158Y358395D01*
X256795Y356758D01*
X256795Y271725D01*
X256809Y271635D01*
X256817Y271544D01*
X256829Y271515D01*
X256834Y271483D01*
X256877Y271402D01*
X256913Y271318D01*
X256939Y271286D01*
X256950Y271265D01*
X256973Y271243D01*
X257018Y271187D01*
X259307Y268898D01*
X259307Y264502D01*
X256198Y261393D01*
X251802Y261393D01*
G37*
%LPD*%
%LPC*%
G36*
X74002Y261393D02*
X74002Y261393D01*
X70893Y264502D01*
X70893Y268898D01*
X73182Y271187D01*
X73235Y271261D01*
X73295Y271331D01*
X73307Y271361D01*
X73326Y271387D01*
X73353Y271474D01*
X73387Y271559D01*
X73391Y271600D01*
X73398Y271622D01*
X73397Y271654D01*
X73405Y271725D01*
X73405Y350575D01*
X73391Y350665D01*
X73383Y350756D01*
X73371Y350785D01*
X73366Y350817D01*
X73323Y350898D01*
X73287Y350982D01*
X73261Y351014D01*
X73250Y351035D01*
X73227Y351057D01*
X73182Y351113D01*
X70893Y353402D01*
X70893Y357798D01*
X74002Y360907D01*
X78398Y360907D01*
X81507Y357798D01*
X81507Y353402D01*
X79218Y351113D01*
X79165Y351039D01*
X79105Y350969D01*
X79093Y350939D01*
X79074Y350913D01*
X79047Y350826D01*
X79013Y350741D01*
X79009Y350700D01*
X79002Y350678D01*
X79003Y350646D01*
X78995Y350575D01*
X78995Y271725D01*
X79009Y271635D01*
X79017Y271544D01*
X79029Y271515D01*
X79034Y271483D01*
X79077Y271402D01*
X79113Y271318D01*
X79139Y271286D01*
X79150Y271265D01*
X79173Y271243D01*
X79218Y271187D01*
X81507Y268898D01*
X81507Y264502D01*
X78398Y261393D01*
X74002Y261393D01*
G37*
%LPD*%
%LPC*%
G36*
X57149Y218599D02*
X57149Y218599D01*
X57149Y219362D01*
X57146Y219382D01*
X57148Y219401D01*
X57126Y219503D01*
X57109Y219605D01*
X57100Y219622D01*
X57096Y219642D01*
X57043Y219731D01*
X56994Y219822D01*
X56980Y219836D01*
X56970Y219853D01*
X56891Y219920D01*
X56816Y219991D01*
X56798Y220000D01*
X56783Y220013D01*
X56687Y220052D01*
X56593Y220095D01*
X56573Y220097D01*
X56555Y220105D01*
X56388Y220123D01*
X46227Y220123D01*
X46227Y223124D01*
X51883Y228780D01*
X51895Y228796D01*
X51910Y228809D01*
X51966Y228896D01*
X52027Y228980D01*
X52032Y228999D01*
X52043Y229016D01*
X52069Y229116D01*
X52099Y229215D01*
X52098Y229235D01*
X52103Y229254D01*
X52095Y229357D01*
X52093Y229461D01*
X52086Y229480D01*
X52084Y229499D01*
X52044Y229594D01*
X52008Y229692D01*
X51996Y229708D01*
X51988Y229726D01*
X51883Y229857D01*
X47243Y234496D01*
X47243Y242704D01*
X53046Y248507D01*
X61254Y248507D01*
X67057Y242704D01*
X67057Y234496D01*
X62417Y229857D01*
X62405Y229841D01*
X62390Y229828D01*
X62334Y229741D01*
X62273Y229657D01*
X62268Y229638D01*
X62257Y229621D01*
X62231Y229521D01*
X62201Y229422D01*
X62202Y229402D01*
X62197Y229383D01*
X62205Y229280D01*
X62207Y229176D01*
X62214Y229157D01*
X62216Y229137D01*
X62256Y229043D01*
X62292Y228945D01*
X62304Y228929D01*
X62312Y228911D01*
X62417Y228780D01*
X68073Y223124D01*
X68073Y220123D01*
X57912Y220123D01*
X57892Y220120D01*
X57873Y220122D01*
X57771Y220100D01*
X57669Y220083D01*
X57652Y220074D01*
X57632Y220070D01*
X57543Y220017D01*
X57452Y219968D01*
X57438Y219954D01*
X57421Y219944D01*
X57354Y219865D01*
X57283Y219790D01*
X57274Y219772D01*
X57261Y219757D01*
X57223Y219661D01*
X57179Y219567D01*
X57177Y219547D01*
X57169Y219529D01*
X57151Y219362D01*
X57151Y218599D01*
X57149Y218599D01*
G37*
%LPD*%
%LPC*%
G36*
X74002Y401093D02*
X74002Y401093D01*
X70893Y404202D01*
X70893Y408598D01*
X73182Y410887D01*
X73235Y410961D01*
X73295Y411031D01*
X73307Y411061D01*
X73326Y411087D01*
X73353Y411174D01*
X73387Y411259D01*
X73391Y411300D01*
X73398Y411322D01*
X73397Y411354D01*
X73405Y411425D01*
X73405Y458525D01*
X73391Y458615D01*
X73383Y458706D01*
X73371Y458735D01*
X73366Y458767D01*
X73323Y458848D01*
X73287Y458932D01*
X73261Y458964D01*
X73250Y458985D01*
X73227Y459007D01*
X73182Y459063D01*
X70893Y461352D01*
X70893Y465748D01*
X74002Y468857D01*
X78398Y468857D01*
X81507Y465748D01*
X81507Y461352D01*
X79218Y459063D01*
X79165Y458989D01*
X79105Y458919D01*
X79093Y458889D01*
X79074Y458863D01*
X79047Y458776D01*
X79013Y458691D01*
X79009Y458650D01*
X79002Y458628D01*
X79003Y458596D01*
X78995Y458525D01*
X78995Y411425D01*
X79009Y411335D01*
X79017Y411244D01*
X79029Y411215D01*
X79034Y411183D01*
X79077Y411102D01*
X79113Y411018D01*
X79139Y410986D01*
X79150Y410965D01*
X79173Y410943D01*
X79218Y410887D01*
X81507Y408598D01*
X81507Y404202D01*
X78398Y401093D01*
X74002Y401093D01*
G37*
%LPD*%
%LPC*%
G36*
X58673Y207677D02*
X58673Y207677D01*
X58673Y217077D01*
X68073Y217077D01*
X68073Y214076D01*
X61674Y207677D01*
X58673Y207677D01*
G37*
%LPD*%
%LPC*%
G36*
X58673Y36227D02*
X58673Y36227D01*
X58673Y45627D01*
X68073Y45627D01*
X68073Y42626D01*
X61674Y36227D01*
X58673Y36227D01*
G37*
%LPD*%
%LPC*%
G36*
X52626Y207677D02*
X52626Y207677D01*
X46227Y214076D01*
X46227Y217077D01*
X55627Y217077D01*
X55627Y207677D01*
X52626Y207677D01*
G37*
%LPD*%
%LPC*%
G36*
X52626Y36227D02*
X52626Y36227D01*
X46227Y42626D01*
X46227Y45627D01*
X55627Y45627D01*
X55627Y36227D01*
X52626Y36227D01*
G37*
%LPD*%
D10*
X57150Y47150D03*
X57150Y67150D03*
X57150Y218600D03*
X57150Y238600D03*
D11*
X146050Y266700D03*
D12*
X146050Y152400D01*
D11*
X146050Y152400D03*
X209550Y355600D03*
D12*
X209550Y171450D01*
D11*
X209550Y171450D03*
X76200Y355600D03*
X76200Y266700D03*
D12*
X76200Y355600D01*
D11*
X184150Y266700D03*
D12*
X184150Y67150D02*
X57150Y67150D01*
X184150Y67150D02*
X184150Y266700D01*
D11*
X76200Y406400D03*
D12*
X76200Y463550D01*
D11*
X76200Y463550D03*
X203200Y107950D03*
X241300Y425450D03*
D12*
X228600Y425450D01*
X228600Y107950D01*
X203200Y107950D01*
D11*
X247650Y127000D03*
X266700Y425450D03*
D12*
X279400Y425450D01*
X279400Y127000D01*
X247650Y127000D01*
D11*
X254000Y266700D03*
D12*
X254000Y355600D01*
X241300Y355600D01*
D11*
X241300Y355600D03*
M02*
