G04 EAGLE Gerber RS-274X export*
G75*
%MOMM*%
%FSLAX34Y34*%
%LPD*%
%IN*%
%IPPOS*%
%AMOC8*
5,1,8,0,0,1.08239X$1,22.5*%
G01*
%ADD10C,0.254000*%


D10*
X12700Y6350D02*
X299720Y6350D01*
X299720Y566420D01*
X50800Y566420D01*
X50800Y266700D01*
X12700Y266700D01*
X12700Y6350D01*
X101319Y426800D02*
X100761Y426863D01*
X100214Y426988D01*
X99684Y427173D01*
X99178Y427417D01*
X98702Y427716D01*
X98263Y428066D01*
X97866Y428463D01*
X97516Y428902D01*
X97217Y429378D01*
X96973Y429884D01*
X96788Y430414D01*
X96663Y430961D01*
X96600Y431519D01*
X96600Y432081D01*
X96663Y432639D01*
X96788Y433186D01*
X96973Y433716D01*
X97217Y434222D01*
X97516Y434698D01*
X97866Y435137D01*
X98263Y435534D01*
X98702Y435884D01*
X99178Y436183D01*
X99684Y436427D01*
X100214Y436612D01*
X100761Y436737D01*
X101319Y436800D01*
X101881Y436800D01*
X102439Y436737D01*
X102986Y436612D01*
X103516Y436427D01*
X104022Y436183D01*
X104498Y435884D01*
X104937Y435534D01*
X105334Y435137D01*
X105684Y434698D01*
X105983Y434222D01*
X106227Y433716D01*
X106412Y433186D01*
X106537Y432639D01*
X106600Y432081D01*
X106600Y431519D01*
X106537Y430961D01*
X106412Y430414D01*
X106227Y429884D01*
X105983Y429378D01*
X105684Y428902D01*
X105334Y428463D01*
X104937Y428066D01*
X104498Y427716D01*
X104022Y427417D01*
X103516Y427173D01*
X102986Y426988D01*
X102439Y426863D01*
X101881Y426800D01*
X101319Y426800D01*
X101319Y401400D02*
X100761Y401463D01*
X100214Y401588D01*
X99684Y401773D01*
X99178Y402017D01*
X98702Y402316D01*
X98263Y402666D01*
X97866Y403063D01*
X97516Y403502D01*
X97217Y403978D01*
X96973Y404484D01*
X96788Y405014D01*
X96663Y405561D01*
X96600Y406119D01*
X96600Y406681D01*
X96663Y407239D01*
X96788Y407786D01*
X96973Y408316D01*
X97217Y408822D01*
X97516Y409298D01*
X97866Y409737D01*
X98263Y410134D01*
X98702Y410484D01*
X99178Y410783D01*
X99684Y411027D01*
X100214Y411212D01*
X100761Y411337D01*
X101319Y411400D01*
X101881Y411400D01*
X102439Y411337D01*
X102986Y411212D01*
X103516Y411027D01*
X104022Y410783D01*
X104498Y410484D01*
X104937Y410134D01*
X105334Y409737D01*
X105684Y409298D01*
X105983Y408822D01*
X106227Y408316D01*
X106412Y407786D01*
X106537Y407239D01*
X106600Y406681D01*
X106600Y406119D01*
X106537Y405561D01*
X106412Y405014D01*
X106227Y404484D01*
X105983Y403978D01*
X105684Y403502D01*
X105334Y403063D01*
X104937Y402666D01*
X104498Y402316D01*
X104022Y402017D01*
X103516Y401773D01*
X102986Y401588D01*
X102439Y401463D01*
X101881Y401400D01*
X101319Y401400D01*
X101319Y376000D02*
X100761Y376063D01*
X100214Y376188D01*
X99684Y376373D01*
X99178Y376617D01*
X98702Y376916D01*
X98263Y377266D01*
X97866Y377663D01*
X97516Y378102D01*
X97217Y378578D01*
X96973Y379084D01*
X96788Y379614D01*
X96663Y380161D01*
X96600Y380719D01*
X96600Y381281D01*
X96663Y381839D01*
X96788Y382386D01*
X96973Y382916D01*
X97217Y383422D01*
X97516Y383898D01*
X97866Y384337D01*
X98263Y384734D01*
X98702Y385084D01*
X99178Y385383D01*
X99684Y385627D01*
X100214Y385812D01*
X100761Y385937D01*
X101319Y386000D01*
X101881Y386000D01*
X102439Y385937D01*
X102986Y385812D01*
X103516Y385627D01*
X104022Y385383D01*
X104498Y385084D01*
X104937Y384734D01*
X105334Y384337D01*
X105684Y383898D01*
X105983Y383422D01*
X106227Y382916D01*
X106412Y382386D01*
X106537Y381839D01*
X106600Y381281D01*
X106600Y380719D01*
X106537Y380161D01*
X106412Y379614D01*
X106227Y379084D01*
X105983Y378578D01*
X105684Y378102D01*
X105334Y377663D01*
X104937Y377266D01*
X104498Y376916D01*
X104022Y376617D01*
X103516Y376373D01*
X102986Y376188D01*
X102439Y376063D01*
X101881Y376000D01*
X101319Y376000D01*
X101319Y350600D02*
X100761Y350663D01*
X100214Y350788D01*
X99684Y350973D01*
X99178Y351217D01*
X98702Y351516D01*
X98263Y351866D01*
X97866Y352263D01*
X97516Y352702D01*
X97217Y353178D01*
X96973Y353684D01*
X96788Y354214D01*
X96663Y354761D01*
X96600Y355319D01*
X96600Y355881D01*
X96663Y356439D01*
X96788Y356986D01*
X96973Y357516D01*
X97217Y358022D01*
X97516Y358498D01*
X97866Y358937D01*
X98263Y359334D01*
X98702Y359684D01*
X99178Y359983D01*
X99684Y360227D01*
X100214Y360412D01*
X100761Y360537D01*
X101319Y360600D01*
X101881Y360600D01*
X102439Y360537D01*
X102986Y360412D01*
X103516Y360227D01*
X104022Y359983D01*
X104498Y359684D01*
X104937Y359334D01*
X105334Y358937D01*
X105684Y358498D01*
X105983Y358022D01*
X106227Y357516D01*
X106412Y356986D01*
X106537Y356439D01*
X106600Y355881D01*
X106600Y355319D01*
X106537Y354761D01*
X106412Y354214D01*
X106227Y353684D01*
X105983Y353178D01*
X105684Y352702D01*
X105334Y352263D01*
X104937Y351866D01*
X104498Y351516D01*
X104022Y351217D01*
X103516Y350973D01*
X102986Y350788D01*
X102439Y350663D01*
X101881Y350600D01*
X101319Y350600D01*
X101319Y325200D02*
X100761Y325263D01*
X100214Y325388D01*
X99684Y325573D01*
X99178Y325817D01*
X98702Y326116D01*
X98263Y326466D01*
X97866Y326863D01*
X97516Y327302D01*
X97217Y327778D01*
X96973Y328284D01*
X96788Y328814D01*
X96663Y329361D01*
X96600Y329919D01*
X96600Y330481D01*
X96663Y331039D01*
X96788Y331586D01*
X96973Y332116D01*
X97217Y332622D01*
X97516Y333098D01*
X97866Y333537D01*
X98263Y333934D01*
X98702Y334284D01*
X99178Y334583D01*
X99684Y334827D01*
X100214Y335012D01*
X100761Y335137D01*
X101319Y335200D01*
X101881Y335200D01*
X102439Y335137D01*
X102986Y335012D01*
X103516Y334827D01*
X104022Y334583D01*
X104498Y334284D01*
X104937Y333934D01*
X105334Y333537D01*
X105684Y333098D01*
X105983Y332622D01*
X106227Y332116D01*
X106412Y331586D01*
X106537Y331039D01*
X106600Y330481D01*
X106600Y329919D01*
X106537Y329361D01*
X106412Y328814D01*
X106227Y328284D01*
X105983Y327778D01*
X105684Y327302D01*
X105334Y326863D01*
X104937Y326466D01*
X104498Y326116D01*
X104022Y325817D01*
X103516Y325573D01*
X102986Y325388D01*
X102439Y325263D01*
X101881Y325200D01*
X101319Y325200D01*
X101319Y299800D02*
X100761Y299863D01*
X100214Y299988D01*
X99684Y300173D01*
X99178Y300417D01*
X98702Y300716D01*
X98263Y301066D01*
X97866Y301463D01*
X97516Y301902D01*
X97217Y302378D01*
X96973Y302884D01*
X96788Y303414D01*
X96663Y303961D01*
X96600Y304519D01*
X96600Y305081D01*
X96663Y305639D01*
X96788Y306186D01*
X96973Y306716D01*
X97217Y307222D01*
X97516Y307698D01*
X97866Y308137D01*
X98263Y308534D01*
X98702Y308884D01*
X99178Y309183D01*
X99684Y309427D01*
X100214Y309612D01*
X100761Y309737D01*
X101319Y309800D01*
X101881Y309800D01*
X102439Y309737D01*
X102986Y309612D01*
X103516Y309427D01*
X104022Y309183D01*
X104498Y308884D01*
X104937Y308534D01*
X105334Y308137D01*
X105684Y307698D01*
X105983Y307222D01*
X106227Y306716D01*
X106412Y306186D01*
X106537Y305639D01*
X106600Y305081D01*
X106600Y304519D01*
X106537Y303961D01*
X106412Y303414D01*
X106227Y302884D01*
X105983Y302378D01*
X105684Y301902D01*
X105334Y301463D01*
X104937Y301066D01*
X104498Y300716D01*
X104022Y300417D01*
X103516Y300173D01*
X102986Y299988D01*
X102439Y299863D01*
X101881Y299800D01*
X101319Y299800D01*
X126719Y299800D02*
X126161Y299863D01*
X125614Y299988D01*
X125084Y300173D01*
X124578Y300417D01*
X124102Y300716D01*
X123663Y301066D01*
X123266Y301463D01*
X122916Y301902D01*
X122617Y302378D01*
X122373Y302884D01*
X122188Y303414D01*
X122063Y303961D01*
X122000Y304519D01*
X122000Y305081D01*
X122063Y305639D01*
X122188Y306186D01*
X122373Y306716D01*
X122617Y307222D01*
X122916Y307698D01*
X123266Y308137D01*
X123663Y308534D01*
X124102Y308884D01*
X124578Y309183D01*
X125084Y309427D01*
X125614Y309612D01*
X126161Y309737D01*
X126719Y309800D01*
X127281Y309800D01*
X127839Y309737D01*
X128386Y309612D01*
X128916Y309427D01*
X129422Y309183D01*
X129898Y308884D01*
X130337Y308534D01*
X130734Y308137D01*
X131084Y307698D01*
X131383Y307222D01*
X131627Y306716D01*
X131812Y306186D01*
X131937Y305639D01*
X132000Y305081D01*
X132000Y304519D01*
X131937Y303961D01*
X131812Y303414D01*
X131627Y302884D01*
X131383Y302378D01*
X131084Y301902D01*
X130734Y301463D01*
X130337Y301066D01*
X129898Y300716D01*
X129422Y300417D01*
X128916Y300173D01*
X128386Y299988D01*
X127839Y299863D01*
X127281Y299800D01*
X126719Y299800D01*
X126719Y325200D02*
X126161Y325263D01*
X125614Y325388D01*
X125084Y325573D01*
X124578Y325817D01*
X124102Y326116D01*
X123663Y326466D01*
X123266Y326863D01*
X122916Y327302D01*
X122617Y327778D01*
X122373Y328284D01*
X122188Y328814D01*
X122063Y329361D01*
X122000Y329919D01*
X122000Y330481D01*
X122063Y331039D01*
X122188Y331586D01*
X122373Y332116D01*
X122617Y332622D01*
X122916Y333098D01*
X123266Y333537D01*
X123663Y333934D01*
X124102Y334284D01*
X124578Y334583D01*
X125084Y334827D01*
X125614Y335012D01*
X126161Y335137D01*
X126719Y335200D01*
X127281Y335200D01*
X127839Y335137D01*
X128386Y335012D01*
X128916Y334827D01*
X129422Y334583D01*
X129898Y334284D01*
X130337Y333934D01*
X130734Y333537D01*
X131084Y333098D01*
X131383Y332622D01*
X131627Y332116D01*
X131812Y331586D01*
X131937Y331039D01*
X132000Y330481D01*
X132000Y329919D01*
X131937Y329361D01*
X131812Y328814D01*
X131627Y328284D01*
X131383Y327778D01*
X131084Y327302D01*
X130734Y326863D01*
X130337Y326466D01*
X129898Y326116D01*
X129422Y325817D01*
X128916Y325573D01*
X128386Y325388D01*
X127839Y325263D01*
X127281Y325200D01*
X126719Y325200D01*
X126719Y350600D02*
X126161Y350663D01*
X125614Y350788D01*
X125084Y350973D01*
X124578Y351217D01*
X124102Y351516D01*
X123663Y351866D01*
X123266Y352263D01*
X122916Y352702D01*
X122617Y353178D01*
X122373Y353684D01*
X122188Y354214D01*
X122063Y354761D01*
X122000Y355319D01*
X122000Y355881D01*
X122063Y356439D01*
X122188Y356986D01*
X122373Y357516D01*
X122617Y358022D01*
X122916Y358498D01*
X123266Y358937D01*
X123663Y359334D01*
X124102Y359684D01*
X124578Y359983D01*
X125084Y360227D01*
X125614Y360412D01*
X126161Y360537D01*
X126719Y360600D01*
X127281Y360600D01*
X127839Y360537D01*
X128386Y360412D01*
X128916Y360227D01*
X129422Y359983D01*
X129898Y359684D01*
X130337Y359334D01*
X130734Y358937D01*
X131084Y358498D01*
X131383Y358022D01*
X131627Y357516D01*
X131812Y356986D01*
X131937Y356439D01*
X132000Y355881D01*
X132000Y355319D01*
X131937Y354761D01*
X131812Y354214D01*
X131627Y353684D01*
X131383Y353178D01*
X131084Y352702D01*
X130734Y352263D01*
X130337Y351866D01*
X129898Y351516D01*
X129422Y351217D01*
X128916Y350973D01*
X128386Y350788D01*
X127839Y350663D01*
X127281Y350600D01*
X126719Y350600D01*
X126719Y376000D02*
X126161Y376063D01*
X125614Y376188D01*
X125084Y376373D01*
X124578Y376617D01*
X124102Y376916D01*
X123663Y377266D01*
X123266Y377663D01*
X122916Y378102D01*
X122617Y378578D01*
X122373Y379084D01*
X122188Y379614D01*
X122063Y380161D01*
X122000Y380719D01*
X122000Y381281D01*
X122063Y381839D01*
X122188Y382386D01*
X122373Y382916D01*
X122617Y383422D01*
X122916Y383898D01*
X123266Y384337D01*
X123663Y384734D01*
X124102Y385084D01*
X124578Y385383D01*
X125084Y385627D01*
X125614Y385812D01*
X126161Y385937D01*
X126719Y386000D01*
X127281Y386000D01*
X127839Y385937D01*
X128386Y385812D01*
X128916Y385627D01*
X129422Y385383D01*
X129898Y385084D01*
X130337Y384734D01*
X130734Y384337D01*
X131084Y383898D01*
X131383Y383422D01*
X131627Y382916D01*
X131812Y382386D01*
X131937Y381839D01*
X132000Y381281D01*
X132000Y380719D01*
X131937Y380161D01*
X131812Y379614D01*
X131627Y379084D01*
X131383Y378578D01*
X131084Y378102D01*
X130734Y377663D01*
X130337Y377266D01*
X129898Y376916D01*
X129422Y376617D01*
X128916Y376373D01*
X128386Y376188D01*
X127839Y376063D01*
X127281Y376000D01*
X126719Y376000D01*
X126719Y401400D02*
X126161Y401463D01*
X125614Y401588D01*
X125084Y401773D01*
X124578Y402017D01*
X124102Y402316D01*
X123663Y402666D01*
X123266Y403063D01*
X122916Y403502D01*
X122617Y403978D01*
X122373Y404484D01*
X122188Y405014D01*
X122063Y405561D01*
X122000Y406119D01*
X122000Y406681D01*
X122063Y407239D01*
X122188Y407786D01*
X122373Y408316D01*
X122617Y408822D01*
X122916Y409298D01*
X123266Y409737D01*
X123663Y410134D01*
X124102Y410484D01*
X124578Y410783D01*
X125084Y411027D01*
X125614Y411212D01*
X126161Y411337D01*
X126719Y411400D01*
X127281Y411400D01*
X127839Y411337D01*
X128386Y411212D01*
X128916Y411027D01*
X129422Y410783D01*
X129898Y410484D01*
X130337Y410134D01*
X130734Y409737D01*
X131084Y409298D01*
X131383Y408822D01*
X131627Y408316D01*
X131812Y407786D01*
X131937Y407239D01*
X132000Y406681D01*
X132000Y406119D01*
X131937Y405561D01*
X131812Y405014D01*
X131627Y404484D01*
X131383Y403978D01*
X131084Y403502D01*
X130734Y403063D01*
X130337Y402666D01*
X129898Y402316D01*
X129422Y402017D01*
X128916Y401773D01*
X128386Y401588D01*
X127839Y401463D01*
X127281Y401400D01*
X126719Y401400D01*
X126719Y426800D02*
X126161Y426863D01*
X125614Y426988D01*
X125084Y427173D01*
X124578Y427417D01*
X124102Y427716D01*
X123663Y428066D01*
X123266Y428463D01*
X122916Y428902D01*
X122617Y429378D01*
X122373Y429884D01*
X122188Y430414D01*
X122063Y430961D01*
X122000Y431519D01*
X122000Y432081D01*
X122063Y432639D01*
X122188Y433186D01*
X122373Y433716D01*
X122617Y434222D01*
X122916Y434698D01*
X123266Y435137D01*
X123663Y435534D01*
X124102Y435884D01*
X124578Y436183D01*
X125084Y436427D01*
X125614Y436612D01*
X126161Y436737D01*
X126719Y436800D01*
X127281Y436800D01*
X127839Y436737D01*
X128386Y436612D01*
X128916Y436427D01*
X129422Y436183D01*
X129898Y435884D01*
X130337Y435534D01*
X130734Y435137D01*
X131084Y434698D01*
X131383Y434222D01*
X131627Y433716D01*
X131812Y433186D01*
X131937Y432639D01*
X132000Y432081D01*
X132000Y431519D01*
X131937Y430961D01*
X131812Y430414D01*
X131627Y429884D01*
X131383Y429378D01*
X131084Y428902D01*
X130734Y428463D01*
X130337Y428066D01*
X129898Y427716D01*
X129422Y427417D01*
X128916Y427173D01*
X128386Y426988D01*
X127839Y426863D01*
X127281Y426800D01*
X126719Y426800D01*
X113932Y411600D02*
X113198Y411672D01*
X112475Y411816D01*
X111770Y412030D01*
X111089Y412312D01*
X110440Y412659D01*
X109827Y413069D01*
X109257Y413536D01*
X108736Y414057D01*
X108269Y414627D01*
X107859Y415240D01*
X107512Y415889D01*
X107230Y416570D01*
X107016Y417275D01*
X106872Y417998D01*
X106800Y418732D01*
X106800Y419468D01*
X106872Y420202D01*
X107016Y420925D01*
X107230Y421630D01*
X107512Y422311D01*
X107859Y422960D01*
X108269Y423573D01*
X108736Y424143D01*
X109257Y424664D01*
X109827Y425131D01*
X110440Y425541D01*
X111089Y425888D01*
X111770Y426170D01*
X112475Y426384D01*
X113198Y426528D01*
X113932Y426600D01*
X114668Y426600D01*
X115402Y426528D01*
X116125Y426384D01*
X116830Y426170D01*
X117511Y425888D01*
X118160Y425541D01*
X118773Y425131D01*
X119343Y424664D01*
X119864Y424143D01*
X120331Y423573D01*
X120741Y422960D01*
X121088Y422311D01*
X121370Y421630D01*
X121584Y420925D01*
X121728Y420202D01*
X121800Y419468D01*
X121800Y418732D01*
X121728Y417998D01*
X121584Y417275D01*
X121370Y416570D01*
X121088Y415889D01*
X120741Y415240D01*
X120331Y414627D01*
X119864Y414057D01*
X119343Y413536D01*
X118773Y413069D01*
X118160Y412659D01*
X117511Y412312D01*
X116830Y412030D01*
X116125Y411816D01*
X115402Y411672D01*
X114668Y411600D01*
X113932Y411600D01*
X113932Y310000D02*
X113198Y310072D01*
X112475Y310216D01*
X111770Y310430D01*
X111089Y310712D01*
X110440Y311059D01*
X109827Y311469D01*
X109257Y311936D01*
X108736Y312457D01*
X108269Y313027D01*
X107859Y313640D01*
X107512Y314289D01*
X107230Y314970D01*
X107016Y315675D01*
X106872Y316398D01*
X106800Y317132D01*
X106800Y317868D01*
X106872Y318602D01*
X107016Y319325D01*
X107230Y320030D01*
X107512Y320711D01*
X107859Y321360D01*
X108269Y321973D01*
X108736Y322543D01*
X109257Y323064D01*
X109827Y323531D01*
X110440Y323941D01*
X111089Y324288D01*
X111770Y324570D01*
X112475Y324784D01*
X113198Y324928D01*
X113932Y325000D01*
X114668Y325000D01*
X115402Y324928D01*
X116125Y324784D01*
X116830Y324570D01*
X117511Y324288D01*
X118160Y323941D01*
X118773Y323531D01*
X119343Y323064D01*
X119864Y322543D01*
X120331Y321973D01*
X120741Y321360D01*
X121088Y320711D01*
X121370Y320030D01*
X121584Y319325D01*
X121728Y318602D01*
X121800Y317868D01*
X121800Y317132D01*
X121728Y316398D01*
X121584Y315675D01*
X121370Y314970D01*
X121088Y314289D01*
X120741Y313640D01*
X120331Y313027D01*
X119864Y312457D01*
X119343Y311936D01*
X118773Y311469D01*
X118160Y311059D01*
X117511Y310712D01*
X116830Y310430D01*
X116125Y310216D01*
X115402Y310072D01*
X114668Y310000D01*
X113932Y310000D01*
M02*
