G04 EAGLE Gerber RS-274X export*
G75*
%MOMM*%
%FSLAX34Y34*%
%LPD*%
%INSilkscreen Top*%
%IPPOS*%
%AMOC8*
5,1,8,0,0,1.08239X$1,22.5*%
G01*
%ADD10C,0.101600*%
%ADD11C,0.076200*%
%ADD12C,0.050800*%
%ADD13C,0.127000*%
%ADD14C,0.200000*%
%ADD15R,0.250000X0.250000*%
%ADD16C,0.203200*%
%ADD17C,0.152400*%


D10*
X81111Y523494D02*
X81218Y523496D01*
X81325Y523502D01*
X81432Y523512D01*
X81538Y523525D01*
X81644Y523543D01*
X81749Y523564D01*
X81853Y523589D01*
X81957Y523618D01*
X82059Y523651D01*
X82159Y523688D01*
X82259Y523728D01*
X82357Y523772D01*
X82453Y523819D01*
X82547Y523870D01*
X82640Y523924D01*
X82730Y523981D01*
X82819Y524042D01*
X82905Y524106D01*
X82988Y524173D01*
X83070Y524243D01*
X83148Y524316D01*
X83224Y524392D01*
X83297Y524470D01*
X83367Y524552D01*
X83434Y524635D01*
X83498Y524721D01*
X83559Y524810D01*
X83616Y524900D01*
X83670Y524993D01*
X83721Y525087D01*
X83768Y525183D01*
X83812Y525281D01*
X83852Y525381D01*
X83889Y525481D01*
X83922Y525583D01*
X83951Y525687D01*
X83976Y525791D01*
X83997Y525896D01*
X84015Y526002D01*
X84028Y526108D01*
X84038Y526215D01*
X84044Y526322D01*
X84046Y526429D01*
X81111Y523494D02*
X80958Y523496D01*
X80805Y523502D01*
X80653Y523511D01*
X80500Y523524D01*
X80348Y523541D01*
X80197Y523562D01*
X80045Y523586D01*
X79895Y523614D01*
X79745Y523646D01*
X79597Y523682D01*
X79449Y523721D01*
X79302Y523764D01*
X79156Y523810D01*
X79012Y523860D01*
X78868Y523914D01*
X78726Y523971D01*
X78586Y524031D01*
X78447Y524096D01*
X78310Y524163D01*
X78174Y524234D01*
X78040Y524308D01*
X77908Y524385D01*
X77778Y524466D01*
X77650Y524550D01*
X77524Y524637D01*
X77401Y524727D01*
X77279Y524820D01*
X77160Y524916D01*
X77044Y525015D01*
X76929Y525116D01*
X76818Y525221D01*
X76709Y525328D01*
X77075Y533767D02*
X77077Y533874D01*
X77083Y533981D01*
X77093Y534088D01*
X77106Y534194D01*
X77124Y534300D01*
X77145Y534405D01*
X77170Y534509D01*
X77199Y534613D01*
X77232Y534715D01*
X77269Y534815D01*
X77309Y534915D01*
X77353Y535013D01*
X77400Y535109D01*
X77451Y535203D01*
X77505Y535296D01*
X77562Y535386D01*
X77623Y535475D01*
X77687Y535561D01*
X77754Y535644D01*
X77824Y535726D01*
X77897Y535804D01*
X77973Y535880D01*
X78051Y535953D01*
X78133Y536023D01*
X78216Y536090D01*
X78302Y536154D01*
X78391Y536215D01*
X78481Y536272D01*
X78574Y536326D01*
X78668Y536377D01*
X78764Y536424D01*
X78862Y536468D01*
X78962Y536508D01*
X79062Y536545D01*
X79164Y536578D01*
X79268Y536607D01*
X79372Y536632D01*
X79477Y536653D01*
X79583Y536671D01*
X79689Y536684D01*
X79796Y536694D01*
X79903Y536700D01*
X80010Y536702D01*
X80158Y536700D01*
X80305Y536694D01*
X80452Y536684D01*
X80599Y536670D01*
X80746Y536653D01*
X80891Y536631D01*
X81037Y536605D01*
X81181Y536576D01*
X81325Y536543D01*
X81468Y536505D01*
X81610Y536464D01*
X81750Y536420D01*
X81890Y536371D01*
X82028Y536319D01*
X82164Y536263D01*
X82299Y536203D01*
X82432Y536140D01*
X82564Y536073D01*
X82694Y536003D01*
X82822Y535930D01*
X82947Y535852D01*
X83071Y535772D01*
X83193Y535688D01*
X83312Y535601D01*
X78543Y531199D02*
X78452Y531255D01*
X78363Y531314D01*
X78276Y531376D01*
X78192Y531441D01*
X78109Y531509D01*
X78030Y531580D01*
X77953Y531654D01*
X77879Y531731D01*
X77807Y531810D01*
X77739Y531892D01*
X77673Y531976D01*
X77610Y532063D01*
X77551Y532151D01*
X77495Y532242D01*
X77442Y532335D01*
X77392Y532429D01*
X77346Y532525D01*
X77303Y532623D01*
X77264Y532722D01*
X77228Y532823D01*
X77196Y532925D01*
X77168Y533028D01*
X77144Y533132D01*
X77123Y533236D01*
X77106Y533342D01*
X77092Y533447D01*
X77083Y533554D01*
X77077Y533660D01*
X77075Y533767D01*
X82578Y528997D02*
X82669Y528941D01*
X82758Y528882D01*
X82845Y528820D01*
X82929Y528755D01*
X83012Y528687D01*
X83091Y528616D01*
X83168Y528542D01*
X83242Y528465D01*
X83314Y528386D01*
X83382Y528304D01*
X83448Y528220D01*
X83511Y528133D01*
X83570Y528045D01*
X83626Y527954D01*
X83679Y527861D01*
X83729Y527767D01*
X83775Y527671D01*
X83818Y527573D01*
X83857Y527474D01*
X83893Y527373D01*
X83925Y527271D01*
X83953Y527168D01*
X83977Y527064D01*
X83998Y526960D01*
X84015Y526854D01*
X84029Y526749D01*
X84038Y526642D01*
X84044Y526536D01*
X84046Y526429D01*
X82578Y528997D02*
X78542Y531199D01*
X91165Y523494D02*
X94833Y523494D01*
X91165Y523494D02*
X91074Y523496D01*
X90983Y523502D01*
X90893Y523511D01*
X90803Y523524D01*
X90713Y523541D01*
X90625Y523561D01*
X90537Y523586D01*
X90450Y523613D01*
X90365Y523645D01*
X90281Y523679D01*
X90198Y523718D01*
X90117Y523759D01*
X90038Y523804D01*
X89961Y523852D01*
X89886Y523904D01*
X89813Y523958D01*
X89742Y524015D01*
X89674Y524076D01*
X89609Y524139D01*
X89546Y524204D01*
X89485Y524272D01*
X89428Y524343D01*
X89374Y524416D01*
X89322Y524491D01*
X89274Y524568D01*
X89229Y524647D01*
X89188Y524728D01*
X89149Y524811D01*
X89115Y524895D01*
X89083Y524980D01*
X89056Y525067D01*
X89031Y525155D01*
X89011Y525243D01*
X88994Y525333D01*
X88981Y525423D01*
X88972Y525513D01*
X88966Y525604D01*
X88964Y525695D01*
X88963Y525695D02*
X88963Y529364D01*
X88965Y529471D01*
X88971Y529578D01*
X88981Y529685D01*
X88994Y529791D01*
X89012Y529897D01*
X89033Y530002D01*
X89058Y530106D01*
X89087Y530210D01*
X89120Y530312D01*
X89157Y530412D01*
X89197Y530512D01*
X89241Y530610D01*
X89288Y530706D01*
X89339Y530800D01*
X89393Y530893D01*
X89450Y530983D01*
X89511Y531072D01*
X89575Y531158D01*
X89642Y531241D01*
X89712Y531323D01*
X89785Y531401D01*
X89861Y531477D01*
X89939Y531550D01*
X90021Y531620D01*
X90104Y531687D01*
X90190Y531751D01*
X90279Y531812D01*
X90369Y531869D01*
X90462Y531923D01*
X90556Y531974D01*
X90652Y532021D01*
X90750Y532065D01*
X90850Y532105D01*
X90950Y532142D01*
X91052Y532175D01*
X91156Y532204D01*
X91260Y532229D01*
X91365Y532250D01*
X91471Y532268D01*
X91577Y532281D01*
X91684Y532291D01*
X91791Y532297D01*
X91898Y532299D01*
X92005Y532297D01*
X92112Y532291D01*
X92219Y532281D01*
X92325Y532268D01*
X92431Y532250D01*
X92536Y532229D01*
X92640Y532204D01*
X92744Y532175D01*
X92846Y532142D01*
X92946Y532105D01*
X93046Y532065D01*
X93144Y532021D01*
X93240Y531974D01*
X93334Y531923D01*
X93427Y531869D01*
X93517Y531812D01*
X93606Y531751D01*
X93692Y531687D01*
X93775Y531620D01*
X93857Y531550D01*
X93935Y531477D01*
X94011Y531401D01*
X94084Y531323D01*
X94154Y531241D01*
X94221Y531158D01*
X94285Y531072D01*
X94346Y530983D01*
X94403Y530893D01*
X94457Y530800D01*
X94508Y530706D01*
X94555Y530610D01*
X94599Y530512D01*
X94639Y530412D01*
X94676Y530312D01*
X94709Y530210D01*
X94738Y530106D01*
X94763Y530002D01*
X94784Y529897D01*
X94802Y529791D01*
X94815Y529685D01*
X94825Y529578D01*
X94831Y529471D01*
X94833Y529364D01*
X94833Y527897D01*
X88963Y527897D01*
X100485Y523494D02*
X100485Y532299D01*
X104154Y532299D01*
X104247Y532297D01*
X104341Y532291D01*
X104434Y532281D01*
X104526Y532267D01*
X104618Y532250D01*
X104709Y532228D01*
X104798Y532203D01*
X104887Y532173D01*
X104975Y532140D01*
X105061Y532104D01*
X105145Y532063D01*
X105227Y532020D01*
X105308Y531972D01*
X105386Y531922D01*
X105463Y531868D01*
X105537Y531810D01*
X105608Y531750D01*
X105677Y531687D01*
X105743Y531621D01*
X105806Y531552D01*
X105866Y531481D01*
X105924Y531407D01*
X105978Y531331D01*
X106028Y531252D01*
X106075Y531171D01*
X106119Y531089D01*
X106160Y531005D01*
X106196Y530919D01*
X106229Y530831D01*
X106259Y530743D01*
X106284Y530653D01*
X106306Y530562D01*
X106323Y530470D01*
X106337Y530378D01*
X106347Y530285D01*
X106353Y530191D01*
X106355Y530098D01*
X106355Y523494D01*
X113107Y528630D02*
X116776Y527163D01*
X113106Y528630D02*
X113027Y528664D01*
X112949Y528702D01*
X112872Y528743D01*
X112798Y528787D01*
X112726Y528835D01*
X112656Y528886D01*
X112589Y528940D01*
X112524Y528997D01*
X112461Y529058D01*
X112402Y529120D01*
X112345Y529186D01*
X112292Y529254D01*
X112241Y529324D01*
X112194Y529397D01*
X112150Y529472D01*
X112110Y529548D01*
X112073Y529627D01*
X112040Y529706D01*
X112010Y529788D01*
X111984Y529870D01*
X111962Y529954D01*
X111944Y530039D01*
X111930Y530124D01*
X111919Y530210D01*
X111913Y530296D01*
X111910Y530383D01*
X111911Y530470D01*
X111917Y530556D01*
X111926Y530642D01*
X111939Y530728D01*
X111956Y530813D01*
X111977Y530897D01*
X112001Y530980D01*
X112030Y531061D01*
X112062Y531142D01*
X112097Y531221D01*
X112137Y531298D01*
X112179Y531373D01*
X112226Y531446D01*
X112275Y531518D01*
X112327Y531586D01*
X112383Y531653D01*
X112442Y531716D01*
X112503Y531777D01*
X112567Y531836D01*
X112634Y531891D01*
X112703Y531943D01*
X112775Y531992D01*
X112848Y532037D01*
X112924Y532079D01*
X113001Y532118D01*
X113080Y532153D01*
X113161Y532185D01*
X113243Y532213D01*
X113326Y532237D01*
X113410Y532257D01*
X113495Y532273D01*
X113581Y532286D01*
X113667Y532294D01*
X113754Y532299D01*
X113840Y532300D01*
X113840Y532299D02*
X114040Y532294D01*
X114240Y532284D01*
X114440Y532269D01*
X114640Y532249D01*
X114839Y532225D01*
X115037Y532195D01*
X115234Y532161D01*
X115431Y532123D01*
X115626Y532079D01*
X115821Y532031D01*
X116014Y531978D01*
X116206Y531921D01*
X116397Y531859D01*
X116586Y531792D01*
X116773Y531721D01*
X116958Y531645D01*
X117142Y531565D01*
X116776Y527163D02*
X116855Y527129D01*
X116933Y527091D01*
X117010Y527050D01*
X117084Y527006D01*
X117156Y526958D01*
X117226Y526907D01*
X117293Y526853D01*
X117358Y526796D01*
X117421Y526735D01*
X117480Y526673D01*
X117537Y526607D01*
X117590Y526539D01*
X117641Y526469D01*
X117688Y526396D01*
X117732Y526321D01*
X117772Y526245D01*
X117809Y526166D01*
X117842Y526087D01*
X117872Y526005D01*
X117898Y525923D01*
X117920Y525839D01*
X117938Y525754D01*
X117952Y525669D01*
X117963Y525583D01*
X117969Y525497D01*
X117972Y525410D01*
X117971Y525323D01*
X117965Y525237D01*
X117956Y525151D01*
X117943Y525065D01*
X117926Y524980D01*
X117905Y524896D01*
X117881Y524813D01*
X117852Y524732D01*
X117820Y524651D01*
X117785Y524572D01*
X117745Y524495D01*
X117703Y524420D01*
X117656Y524347D01*
X117607Y524275D01*
X117555Y524207D01*
X117499Y524140D01*
X117440Y524077D01*
X117379Y524016D01*
X117315Y523957D01*
X117248Y523902D01*
X117179Y523850D01*
X117107Y523801D01*
X117034Y523756D01*
X116958Y523714D01*
X116881Y523675D01*
X116802Y523640D01*
X116721Y523608D01*
X116639Y523580D01*
X116556Y523556D01*
X116472Y523536D01*
X116387Y523520D01*
X116301Y523507D01*
X116215Y523499D01*
X116128Y523494D01*
X116042Y523493D01*
X116042Y523494D02*
X115748Y523502D01*
X115454Y523517D01*
X115160Y523538D01*
X114867Y523567D01*
X114575Y523602D01*
X114284Y523645D01*
X113994Y523694D01*
X113705Y523750D01*
X113417Y523813D01*
X113131Y523882D01*
X112847Y523959D01*
X112565Y524042D01*
X112285Y524132D01*
X112006Y524228D01*
X123101Y526429D02*
X123101Y529364D01*
X123103Y529471D01*
X123109Y529578D01*
X123119Y529685D01*
X123132Y529791D01*
X123150Y529897D01*
X123171Y530002D01*
X123196Y530106D01*
X123225Y530210D01*
X123258Y530312D01*
X123295Y530412D01*
X123335Y530512D01*
X123379Y530610D01*
X123426Y530706D01*
X123477Y530800D01*
X123531Y530893D01*
X123588Y530983D01*
X123649Y531072D01*
X123713Y531158D01*
X123780Y531241D01*
X123850Y531323D01*
X123923Y531401D01*
X123999Y531477D01*
X124077Y531550D01*
X124159Y531620D01*
X124242Y531687D01*
X124328Y531751D01*
X124417Y531812D01*
X124507Y531869D01*
X124600Y531923D01*
X124694Y531974D01*
X124790Y532021D01*
X124888Y532065D01*
X124988Y532105D01*
X125088Y532142D01*
X125190Y532175D01*
X125294Y532204D01*
X125398Y532229D01*
X125503Y532250D01*
X125609Y532268D01*
X125715Y532281D01*
X125822Y532291D01*
X125929Y532297D01*
X126036Y532299D01*
X126143Y532297D01*
X126250Y532291D01*
X126357Y532281D01*
X126463Y532268D01*
X126569Y532250D01*
X126674Y532229D01*
X126778Y532204D01*
X126882Y532175D01*
X126984Y532142D01*
X127084Y532105D01*
X127184Y532065D01*
X127282Y532021D01*
X127378Y531974D01*
X127472Y531923D01*
X127565Y531869D01*
X127655Y531812D01*
X127744Y531751D01*
X127830Y531687D01*
X127913Y531620D01*
X127995Y531550D01*
X128073Y531477D01*
X128149Y531401D01*
X128222Y531323D01*
X128292Y531241D01*
X128359Y531158D01*
X128423Y531072D01*
X128484Y530983D01*
X128541Y530893D01*
X128595Y530800D01*
X128646Y530706D01*
X128693Y530610D01*
X128737Y530512D01*
X128777Y530412D01*
X128814Y530312D01*
X128847Y530210D01*
X128876Y530106D01*
X128901Y530002D01*
X128922Y529897D01*
X128940Y529791D01*
X128953Y529685D01*
X128963Y529578D01*
X128969Y529471D01*
X128971Y529364D01*
X128971Y526429D01*
X128969Y526322D01*
X128963Y526215D01*
X128953Y526108D01*
X128940Y526002D01*
X128922Y525896D01*
X128901Y525791D01*
X128876Y525687D01*
X128847Y525583D01*
X128814Y525481D01*
X128777Y525381D01*
X128737Y525281D01*
X128693Y525183D01*
X128646Y525087D01*
X128595Y524993D01*
X128541Y524900D01*
X128484Y524810D01*
X128423Y524721D01*
X128359Y524635D01*
X128292Y524552D01*
X128222Y524470D01*
X128149Y524392D01*
X128073Y524316D01*
X127995Y524243D01*
X127913Y524173D01*
X127830Y524106D01*
X127744Y524042D01*
X127655Y523981D01*
X127565Y523924D01*
X127472Y523870D01*
X127378Y523819D01*
X127282Y523772D01*
X127184Y523728D01*
X127084Y523688D01*
X126984Y523651D01*
X126882Y523618D01*
X126778Y523589D01*
X126674Y523564D01*
X126569Y523543D01*
X126463Y523525D01*
X126357Y523512D01*
X126250Y523502D01*
X126143Y523496D01*
X126036Y523494D01*
X125929Y523496D01*
X125822Y523502D01*
X125715Y523512D01*
X125609Y523525D01*
X125503Y523543D01*
X125398Y523564D01*
X125294Y523589D01*
X125190Y523618D01*
X125088Y523651D01*
X124988Y523688D01*
X124888Y523728D01*
X124790Y523772D01*
X124694Y523819D01*
X124600Y523870D01*
X124507Y523924D01*
X124417Y523981D01*
X124328Y524042D01*
X124242Y524106D01*
X124159Y524173D01*
X124077Y524243D01*
X123999Y524316D01*
X123923Y524392D01*
X123850Y524470D01*
X123780Y524552D01*
X123713Y524635D01*
X123649Y524721D01*
X123588Y524810D01*
X123531Y524900D01*
X123477Y524993D01*
X123426Y525087D01*
X123379Y525183D01*
X123335Y525281D01*
X123295Y525381D01*
X123258Y525481D01*
X123225Y525583D01*
X123196Y525687D01*
X123171Y525791D01*
X123150Y525896D01*
X123132Y526002D01*
X123119Y526108D01*
X123109Y526215D01*
X123103Y526322D01*
X123101Y526429D01*
X138291Y523494D02*
X138398Y523496D01*
X138505Y523502D01*
X138612Y523512D01*
X138718Y523525D01*
X138824Y523543D01*
X138929Y523564D01*
X139033Y523589D01*
X139137Y523618D01*
X139239Y523651D01*
X139339Y523688D01*
X139439Y523728D01*
X139537Y523772D01*
X139633Y523819D01*
X139727Y523870D01*
X139820Y523924D01*
X139910Y523981D01*
X139999Y524042D01*
X140085Y524106D01*
X140168Y524173D01*
X140250Y524243D01*
X140328Y524316D01*
X140404Y524392D01*
X140477Y524470D01*
X140547Y524552D01*
X140614Y524635D01*
X140678Y524721D01*
X140739Y524810D01*
X140796Y524900D01*
X140850Y524993D01*
X140901Y525087D01*
X140948Y525183D01*
X140992Y525281D01*
X141032Y525381D01*
X141069Y525481D01*
X141102Y525583D01*
X141131Y525687D01*
X141156Y525791D01*
X141177Y525896D01*
X141195Y526002D01*
X141208Y526108D01*
X141218Y526215D01*
X141224Y526322D01*
X141226Y526429D01*
X138291Y523494D02*
X138138Y523496D01*
X137985Y523502D01*
X137833Y523511D01*
X137680Y523524D01*
X137528Y523541D01*
X137377Y523562D01*
X137225Y523586D01*
X137075Y523614D01*
X136925Y523646D01*
X136777Y523682D01*
X136629Y523721D01*
X136482Y523764D01*
X136336Y523810D01*
X136192Y523860D01*
X136048Y523914D01*
X135906Y523971D01*
X135766Y524031D01*
X135627Y524096D01*
X135490Y524163D01*
X135354Y524234D01*
X135220Y524308D01*
X135088Y524385D01*
X134958Y524466D01*
X134830Y524550D01*
X134704Y524637D01*
X134581Y524727D01*
X134459Y524820D01*
X134340Y524916D01*
X134224Y525015D01*
X134109Y525116D01*
X133998Y525221D01*
X133889Y525328D01*
X134255Y533767D02*
X134257Y533874D01*
X134263Y533981D01*
X134273Y534088D01*
X134286Y534194D01*
X134304Y534300D01*
X134325Y534405D01*
X134350Y534509D01*
X134379Y534613D01*
X134412Y534715D01*
X134449Y534815D01*
X134489Y534915D01*
X134533Y535013D01*
X134580Y535109D01*
X134631Y535203D01*
X134685Y535296D01*
X134742Y535386D01*
X134803Y535475D01*
X134867Y535561D01*
X134934Y535644D01*
X135004Y535726D01*
X135077Y535804D01*
X135153Y535880D01*
X135231Y535953D01*
X135313Y536023D01*
X135396Y536090D01*
X135482Y536154D01*
X135571Y536215D01*
X135661Y536272D01*
X135754Y536326D01*
X135848Y536377D01*
X135944Y536424D01*
X136042Y536468D01*
X136142Y536508D01*
X136242Y536545D01*
X136344Y536578D01*
X136448Y536607D01*
X136552Y536632D01*
X136657Y536653D01*
X136763Y536671D01*
X136869Y536684D01*
X136976Y536694D01*
X137083Y536700D01*
X137190Y536702D01*
X137338Y536700D01*
X137485Y536694D01*
X137632Y536684D01*
X137779Y536670D01*
X137926Y536653D01*
X138071Y536631D01*
X138217Y536605D01*
X138361Y536576D01*
X138505Y536543D01*
X138648Y536505D01*
X138790Y536464D01*
X138930Y536420D01*
X139070Y536371D01*
X139208Y536319D01*
X139344Y536263D01*
X139479Y536203D01*
X139612Y536140D01*
X139744Y536073D01*
X139874Y536003D01*
X140002Y535930D01*
X140127Y535852D01*
X140251Y535772D01*
X140373Y535688D01*
X140492Y535601D01*
X135723Y531199D02*
X135632Y531255D01*
X135543Y531314D01*
X135456Y531376D01*
X135372Y531441D01*
X135289Y531509D01*
X135210Y531580D01*
X135133Y531654D01*
X135059Y531731D01*
X134987Y531810D01*
X134919Y531892D01*
X134853Y531976D01*
X134790Y532063D01*
X134731Y532151D01*
X134675Y532242D01*
X134622Y532335D01*
X134572Y532429D01*
X134526Y532525D01*
X134483Y532623D01*
X134444Y532722D01*
X134408Y532823D01*
X134376Y532925D01*
X134348Y533028D01*
X134324Y533132D01*
X134303Y533236D01*
X134286Y533342D01*
X134272Y533447D01*
X134263Y533554D01*
X134257Y533660D01*
X134255Y533767D01*
X139758Y528997D02*
X139849Y528941D01*
X139938Y528882D01*
X140025Y528820D01*
X140109Y528755D01*
X140192Y528687D01*
X140271Y528616D01*
X140348Y528542D01*
X140422Y528465D01*
X140494Y528386D01*
X140562Y528304D01*
X140628Y528220D01*
X140691Y528133D01*
X140750Y528045D01*
X140806Y527954D01*
X140859Y527861D01*
X140909Y527767D01*
X140955Y527671D01*
X140998Y527573D01*
X141037Y527474D01*
X141073Y527373D01*
X141105Y527271D01*
X141133Y527168D01*
X141157Y527064D01*
X141178Y526960D01*
X141195Y526854D01*
X141209Y526749D01*
X141218Y526642D01*
X141224Y526536D01*
X141226Y526429D01*
X139759Y528997D02*
X135723Y531199D01*
X145073Y532299D02*
X149475Y532299D01*
X146540Y536702D02*
X146540Y525695D01*
X146542Y525604D01*
X146548Y525513D01*
X146557Y525423D01*
X146570Y525333D01*
X146587Y525243D01*
X146607Y525155D01*
X146632Y525067D01*
X146659Y524980D01*
X146691Y524895D01*
X146725Y524811D01*
X146764Y524728D01*
X146805Y524647D01*
X146850Y524568D01*
X146898Y524491D01*
X146950Y524416D01*
X147004Y524343D01*
X147061Y524272D01*
X147122Y524204D01*
X147185Y524139D01*
X147250Y524076D01*
X147319Y524015D01*
X147389Y523958D01*
X147462Y523904D01*
X147537Y523852D01*
X147614Y523804D01*
X147693Y523759D01*
X147774Y523718D01*
X147857Y523679D01*
X147941Y523645D01*
X148026Y523613D01*
X148113Y523585D01*
X148201Y523561D01*
X148289Y523541D01*
X148379Y523524D01*
X148469Y523511D01*
X148559Y523502D01*
X148650Y523496D01*
X148741Y523494D01*
X149475Y523494D01*
X156757Y528630D02*
X160059Y528630D01*
X156757Y528630D02*
X156657Y528628D01*
X156558Y528622D01*
X156459Y528613D01*
X156360Y528599D01*
X156262Y528582D01*
X156165Y528561D01*
X156068Y528536D01*
X155973Y528507D01*
X155879Y528475D01*
X155786Y528439D01*
X155694Y528400D01*
X155604Y528357D01*
X155516Y528310D01*
X155430Y528261D01*
X155346Y528208D01*
X155264Y528151D01*
X155184Y528092D01*
X155106Y528029D01*
X155031Y527964D01*
X154959Y527895D01*
X154889Y527824D01*
X154822Y527751D01*
X154758Y527674D01*
X154697Y527596D01*
X154639Y527514D01*
X154585Y527431D01*
X154533Y527346D01*
X154485Y527259D01*
X154440Y527170D01*
X154399Y527079D01*
X154361Y526987D01*
X154327Y526893D01*
X154297Y526799D01*
X154270Y526703D01*
X154247Y526606D01*
X154228Y526508D01*
X154213Y526410D01*
X154201Y526311D01*
X154193Y526211D01*
X154189Y526112D01*
X154189Y526012D01*
X154193Y525913D01*
X154201Y525813D01*
X154213Y525714D01*
X154228Y525616D01*
X154247Y525518D01*
X154270Y525421D01*
X154297Y525325D01*
X154327Y525231D01*
X154361Y525137D01*
X154399Y525045D01*
X154440Y524954D01*
X154485Y524865D01*
X154533Y524778D01*
X154585Y524693D01*
X154639Y524610D01*
X154697Y524528D01*
X154758Y524450D01*
X154822Y524373D01*
X154889Y524300D01*
X154959Y524229D01*
X155031Y524160D01*
X155106Y524095D01*
X155184Y524032D01*
X155264Y523973D01*
X155346Y523916D01*
X155430Y523863D01*
X155516Y523814D01*
X155604Y523767D01*
X155694Y523724D01*
X155786Y523685D01*
X155879Y523649D01*
X155973Y523617D01*
X156068Y523588D01*
X156165Y523563D01*
X156262Y523542D01*
X156360Y523525D01*
X156459Y523511D01*
X156558Y523502D01*
X156657Y523496D01*
X156757Y523494D01*
X160059Y523494D01*
X160059Y530098D01*
X160057Y530189D01*
X160051Y530280D01*
X160042Y530370D01*
X160029Y530460D01*
X160012Y530550D01*
X159992Y530638D01*
X159967Y530726D01*
X159940Y530813D01*
X159908Y530898D01*
X159874Y530982D01*
X159835Y531065D01*
X159794Y531146D01*
X159749Y531225D01*
X159701Y531302D01*
X159649Y531377D01*
X159595Y531450D01*
X159538Y531521D01*
X159477Y531589D01*
X159414Y531654D01*
X159349Y531717D01*
X159281Y531778D01*
X159210Y531835D01*
X159137Y531889D01*
X159062Y531941D01*
X158985Y531989D01*
X158906Y532034D01*
X158825Y532075D01*
X158742Y532114D01*
X158658Y532148D01*
X158573Y532180D01*
X158486Y532207D01*
X158398Y532232D01*
X158310Y532252D01*
X158220Y532269D01*
X158130Y532282D01*
X158040Y532291D01*
X157949Y532297D01*
X157858Y532299D01*
X154923Y532299D01*
X166270Y532299D02*
X166270Y523494D01*
X166270Y532299D02*
X170672Y532299D01*
X170672Y530832D01*
X82578Y502158D02*
X76708Y502158D01*
X76708Y515366D01*
X82578Y515366D01*
X81111Y509496D02*
X76708Y509496D01*
X91328Y502158D02*
X91435Y502160D01*
X91542Y502166D01*
X91649Y502176D01*
X91755Y502189D01*
X91861Y502207D01*
X91966Y502228D01*
X92070Y502253D01*
X92174Y502282D01*
X92276Y502315D01*
X92376Y502352D01*
X92476Y502392D01*
X92574Y502436D01*
X92670Y502483D01*
X92764Y502534D01*
X92857Y502588D01*
X92947Y502645D01*
X93036Y502706D01*
X93122Y502770D01*
X93205Y502837D01*
X93287Y502907D01*
X93365Y502980D01*
X93441Y503056D01*
X93514Y503134D01*
X93584Y503216D01*
X93651Y503299D01*
X93715Y503385D01*
X93776Y503474D01*
X93833Y503564D01*
X93887Y503657D01*
X93938Y503751D01*
X93985Y503847D01*
X94029Y503945D01*
X94069Y504045D01*
X94106Y504145D01*
X94139Y504247D01*
X94168Y504351D01*
X94193Y504455D01*
X94214Y504560D01*
X94232Y504666D01*
X94245Y504772D01*
X94255Y504879D01*
X94261Y504986D01*
X94263Y505093D01*
X91328Y502158D02*
X91175Y502160D01*
X91022Y502166D01*
X90870Y502175D01*
X90717Y502188D01*
X90565Y502205D01*
X90414Y502226D01*
X90262Y502250D01*
X90112Y502278D01*
X89962Y502310D01*
X89814Y502346D01*
X89666Y502385D01*
X89519Y502428D01*
X89373Y502474D01*
X89229Y502524D01*
X89085Y502578D01*
X88943Y502635D01*
X88803Y502695D01*
X88664Y502760D01*
X88527Y502827D01*
X88391Y502898D01*
X88257Y502972D01*
X88125Y503049D01*
X87995Y503130D01*
X87867Y503214D01*
X87741Y503301D01*
X87618Y503391D01*
X87496Y503484D01*
X87377Y503580D01*
X87261Y503679D01*
X87146Y503780D01*
X87035Y503885D01*
X86926Y503992D01*
X87292Y512431D02*
X87294Y512538D01*
X87300Y512645D01*
X87310Y512752D01*
X87323Y512858D01*
X87341Y512964D01*
X87362Y513069D01*
X87387Y513173D01*
X87416Y513277D01*
X87449Y513379D01*
X87486Y513479D01*
X87526Y513579D01*
X87570Y513677D01*
X87617Y513773D01*
X87668Y513867D01*
X87722Y513960D01*
X87779Y514050D01*
X87840Y514139D01*
X87904Y514225D01*
X87971Y514308D01*
X88041Y514390D01*
X88114Y514468D01*
X88190Y514544D01*
X88268Y514617D01*
X88350Y514687D01*
X88433Y514754D01*
X88519Y514818D01*
X88608Y514879D01*
X88698Y514936D01*
X88791Y514990D01*
X88885Y515041D01*
X88981Y515088D01*
X89079Y515132D01*
X89179Y515172D01*
X89279Y515209D01*
X89381Y515242D01*
X89485Y515271D01*
X89589Y515296D01*
X89694Y515317D01*
X89800Y515335D01*
X89906Y515348D01*
X90013Y515358D01*
X90120Y515364D01*
X90227Y515366D01*
X90375Y515364D01*
X90522Y515358D01*
X90669Y515348D01*
X90816Y515334D01*
X90963Y515317D01*
X91108Y515295D01*
X91254Y515269D01*
X91398Y515240D01*
X91542Y515207D01*
X91685Y515169D01*
X91827Y515128D01*
X91967Y515084D01*
X92107Y515035D01*
X92245Y514983D01*
X92381Y514927D01*
X92516Y514867D01*
X92649Y514804D01*
X92781Y514737D01*
X92911Y514667D01*
X93039Y514594D01*
X93164Y514516D01*
X93288Y514436D01*
X93410Y514352D01*
X93529Y514265D01*
X88760Y509863D02*
X88669Y509919D01*
X88580Y509978D01*
X88493Y510040D01*
X88409Y510105D01*
X88326Y510173D01*
X88247Y510244D01*
X88170Y510318D01*
X88096Y510395D01*
X88024Y510474D01*
X87956Y510556D01*
X87890Y510640D01*
X87827Y510727D01*
X87768Y510815D01*
X87712Y510906D01*
X87659Y510999D01*
X87609Y511093D01*
X87563Y511189D01*
X87520Y511287D01*
X87481Y511386D01*
X87445Y511487D01*
X87413Y511589D01*
X87385Y511692D01*
X87361Y511796D01*
X87340Y511900D01*
X87323Y512006D01*
X87309Y512111D01*
X87300Y512218D01*
X87294Y512324D01*
X87292Y512431D01*
X92795Y507661D02*
X92886Y507605D01*
X92975Y507546D01*
X93062Y507484D01*
X93146Y507419D01*
X93229Y507351D01*
X93308Y507280D01*
X93385Y507206D01*
X93459Y507129D01*
X93531Y507050D01*
X93599Y506968D01*
X93665Y506884D01*
X93728Y506797D01*
X93787Y506709D01*
X93843Y506618D01*
X93896Y506525D01*
X93946Y506431D01*
X93992Y506335D01*
X94035Y506237D01*
X94074Y506138D01*
X94110Y506037D01*
X94142Y505935D01*
X94170Y505832D01*
X94194Y505728D01*
X94215Y505624D01*
X94232Y505518D01*
X94246Y505413D01*
X94255Y505306D01*
X94261Y505200D01*
X94263Y505093D01*
X92796Y507661D02*
X88760Y509863D01*
X99906Y515366D02*
X99906Y502158D01*
X99906Y515366D02*
X103575Y515366D01*
X103695Y515364D01*
X103815Y515358D01*
X103935Y515348D01*
X104054Y515335D01*
X104173Y515317D01*
X104291Y515296D01*
X104408Y515270D01*
X104525Y515241D01*
X104640Y515208D01*
X104754Y515171D01*
X104867Y515131D01*
X104979Y515087D01*
X105089Y515039D01*
X105198Y514988D01*
X105305Y514933D01*
X105409Y514874D01*
X105512Y514813D01*
X105613Y514748D01*
X105712Y514679D01*
X105809Y514608D01*
X105903Y514533D01*
X105994Y514456D01*
X106083Y514375D01*
X106169Y514291D01*
X106253Y514205D01*
X106334Y514116D01*
X106411Y514025D01*
X106486Y513931D01*
X106557Y513834D01*
X106626Y513735D01*
X106691Y513634D01*
X106752Y513532D01*
X106811Y513427D01*
X106866Y513320D01*
X106917Y513211D01*
X106965Y513101D01*
X107009Y512989D01*
X107049Y512876D01*
X107086Y512762D01*
X107119Y512647D01*
X107148Y512530D01*
X107174Y512413D01*
X107195Y512295D01*
X107213Y512176D01*
X107226Y512057D01*
X107236Y511937D01*
X107242Y511817D01*
X107244Y511697D01*
X107242Y511577D01*
X107236Y511457D01*
X107226Y511337D01*
X107213Y511218D01*
X107195Y511099D01*
X107174Y510981D01*
X107148Y510864D01*
X107119Y510747D01*
X107086Y510632D01*
X107049Y510518D01*
X107009Y510405D01*
X106965Y510293D01*
X106917Y510183D01*
X106866Y510074D01*
X106811Y509967D01*
X106752Y509863D01*
X106691Y509760D01*
X106626Y509659D01*
X106557Y509560D01*
X106486Y509463D01*
X106411Y509369D01*
X106334Y509278D01*
X106253Y509189D01*
X106169Y509103D01*
X106083Y509019D01*
X105994Y508938D01*
X105903Y508861D01*
X105809Y508786D01*
X105712Y508715D01*
X105613Y508646D01*
X105512Y508581D01*
X105410Y508520D01*
X105305Y508461D01*
X105198Y508406D01*
X105089Y508355D01*
X104979Y508307D01*
X104867Y508263D01*
X104754Y508223D01*
X104640Y508186D01*
X104525Y508153D01*
X104408Y508124D01*
X104291Y508098D01*
X104173Y508077D01*
X104054Y508059D01*
X103935Y508046D01*
X103815Y508036D01*
X103695Y508030D01*
X103575Y508028D01*
X99906Y508028D01*
X112102Y502158D02*
X115771Y502158D01*
X115891Y502160D01*
X116011Y502166D01*
X116131Y502176D01*
X116250Y502189D01*
X116369Y502207D01*
X116487Y502228D01*
X116604Y502254D01*
X116721Y502283D01*
X116836Y502316D01*
X116950Y502353D01*
X117063Y502393D01*
X117175Y502437D01*
X117285Y502485D01*
X117394Y502536D01*
X117501Y502591D01*
X117606Y502650D01*
X117708Y502711D01*
X117809Y502776D01*
X117908Y502845D01*
X118005Y502916D01*
X118099Y502991D01*
X118190Y503068D01*
X118279Y503149D01*
X118365Y503233D01*
X118449Y503319D01*
X118530Y503408D01*
X118607Y503499D01*
X118682Y503593D01*
X118753Y503690D01*
X118822Y503789D01*
X118887Y503890D01*
X118948Y503993D01*
X119007Y504097D01*
X119062Y504204D01*
X119113Y504313D01*
X119161Y504423D01*
X119205Y504535D01*
X119245Y504648D01*
X119282Y504762D01*
X119315Y504877D01*
X119344Y504994D01*
X119370Y505111D01*
X119391Y505229D01*
X119409Y505348D01*
X119422Y505467D01*
X119432Y505587D01*
X119438Y505707D01*
X119440Y505827D01*
X119438Y505947D01*
X119432Y506067D01*
X119422Y506187D01*
X119409Y506306D01*
X119391Y506425D01*
X119370Y506543D01*
X119344Y506660D01*
X119315Y506777D01*
X119282Y506892D01*
X119245Y507006D01*
X119205Y507119D01*
X119161Y507231D01*
X119113Y507341D01*
X119062Y507450D01*
X119007Y507557D01*
X118948Y507662D01*
X118887Y507764D01*
X118822Y507865D01*
X118753Y507964D01*
X118682Y508061D01*
X118607Y508155D01*
X118530Y508246D01*
X118449Y508335D01*
X118365Y508421D01*
X118279Y508505D01*
X118190Y508586D01*
X118099Y508663D01*
X118005Y508738D01*
X117908Y508809D01*
X117809Y508878D01*
X117708Y508943D01*
X117605Y509004D01*
X117501Y509063D01*
X117394Y509118D01*
X117285Y509169D01*
X117175Y509217D01*
X117063Y509261D01*
X116950Y509301D01*
X116836Y509338D01*
X116721Y509371D01*
X116604Y509400D01*
X116487Y509426D01*
X116369Y509447D01*
X116250Y509465D01*
X116131Y509478D01*
X116011Y509488D01*
X115891Y509494D01*
X115771Y509496D01*
X116504Y515366D02*
X112102Y515366D01*
X116504Y515366D02*
X116611Y515364D01*
X116718Y515358D01*
X116825Y515348D01*
X116931Y515335D01*
X117037Y515317D01*
X117142Y515296D01*
X117246Y515271D01*
X117350Y515242D01*
X117452Y515209D01*
X117552Y515172D01*
X117652Y515132D01*
X117750Y515088D01*
X117846Y515041D01*
X117940Y514990D01*
X118033Y514936D01*
X118123Y514879D01*
X118212Y514818D01*
X118298Y514754D01*
X118381Y514687D01*
X118463Y514617D01*
X118541Y514544D01*
X118617Y514468D01*
X118690Y514390D01*
X118760Y514308D01*
X118827Y514225D01*
X118891Y514139D01*
X118952Y514050D01*
X119009Y513960D01*
X119063Y513867D01*
X119114Y513773D01*
X119161Y513677D01*
X119205Y513579D01*
X119245Y513479D01*
X119282Y513379D01*
X119315Y513277D01*
X119344Y513173D01*
X119369Y513069D01*
X119390Y512964D01*
X119408Y512858D01*
X119421Y512752D01*
X119431Y512645D01*
X119437Y512538D01*
X119439Y512431D01*
X119437Y512324D01*
X119431Y512217D01*
X119421Y512110D01*
X119408Y512004D01*
X119390Y511898D01*
X119369Y511793D01*
X119344Y511689D01*
X119315Y511585D01*
X119282Y511483D01*
X119245Y511383D01*
X119205Y511283D01*
X119161Y511185D01*
X119114Y511089D01*
X119063Y510995D01*
X119009Y510902D01*
X118952Y510812D01*
X118891Y510723D01*
X118827Y510637D01*
X118760Y510554D01*
X118690Y510472D01*
X118617Y510394D01*
X118541Y510318D01*
X118463Y510245D01*
X118381Y510175D01*
X118298Y510108D01*
X118212Y510044D01*
X118123Y509983D01*
X118033Y509926D01*
X117940Y509872D01*
X117846Y509821D01*
X117750Y509774D01*
X117652Y509730D01*
X117552Y509690D01*
X117452Y509653D01*
X117350Y509620D01*
X117246Y509591D01*
X117142Y509566D01*
X117037Y509545D01*
X116931Y509527D01*
X116825Y509514D01*
X116718Y509504D01*
X116611Y509498D01*
X116504Y509496D01*
X113569Y509496D01*
X128939Y515366D02*
X129052Y515364D01*
X129164Y515358D01*
X129277Y515349D01*
X129389Y515335D01*
X129500Y515318D01*
X129611Y515297D01*
X129721Y515272D01*
X129830Y515244D01*
X129938Y515211D01*
X130045Y515175D01*
X130150Y515136D01*
X130255Y515093D01*
X130357Y515046D01*
X130458Y514996D01*
X130557Y514942D01*
X130655Y514885D01*
X130750Y514825D01*
X130843Y514762D01*
X130934Y514695D01*
X131023Y514625D01*
X131109Y514553D01*
X131193Y514477D01*
X131274Y514399D01*
X131352Y514318D01*
X131428Y514234D01*
X131500Y514148D01*
X131570Y514059D01*
X131637Y513968D01*
X131700Y513875D01*
X131760Y513780D01*
X131817Y513682D01*
X131871Y513583D01*
X131921Y513482D01*
X131968Y513380D01*
X132011Y513275D01*
X132050Y513170D01*
X132086Y513063D01*
X132119Y512955D01*
X132147Y512846D01*
X132172Y512736D01*
X132193Y512625D01*
X132210Y512514D01*
X132224Y512402D01*
X132233Y512289D01*
X132239Y512177D01*
X132241Y512064D01*
X128939Y515366D02*
X128812Y515364D01*
X128685Y515358D01*
X128558Y515349D01*
X128432Y515336D01*
X128306Y515319D01*
X128181Y515298D01*
X128056Y515273D01*
X127933Y515245D01*
X127810Y515213D01*
X127688Y515177D01*
X127567Y515138D01*
X127447Y515095D01*
X127329Y515049D01*
X127212Y514999D01*
X127097Y514945D01*
X126984Y514888D01*
X126872Y514828D01*
X126762Y514765D01*
X126654Y514698D01*
X126548Y514628D01*
X126444Y514555D01*
X126342Y514478D01*
X126243Y514399D01*
X126146Y514317D01*
X126052Y514232D01*
X125960Y514144D01*
X125871Y514054D01*
X125785Y513960D01*
X125701Y513865D01*
X125621Y513767D01*
X125543Y513666D01*
X125468Y513563D01*
X125397Y513458D01*
X125329Y513351D01*
X125264Y513242D01*
X125202Y513131D01*
X125143Y513018D01*
X125088Y512904D01*
X125037Y512788D01*
X124989Y512670D01*
X124944Y512551D01*
X124903Y512431D01*
X131140Y509496D02*
X131222Y509576D01*
X131301Y509659D01*
X131378Y509745D01*
X131452Y509833D01*
X131522Y509924D01*
X131590Y510016D01*
X131655Y510111D01*
X131717Y510208D01*
X131775Y510307D01*
X131831Y510408D01*
X131883Y510510D01*
X131931Y510614D01*
X131976Y510720D01*
X132018Y510827D01*
X132057Y510935D01*
X132091Y511045D01*
X132123Y511155D01*
X132150Y511267D01*
X132174Y511379D01*
X132195Y511492D01*
X132211Y511606D01*
X132224Y511720D01*
X132234Y511834D01*
X132239Y511949D01*
X132241Y512064D01*
X131140Y509496D02*
X124903Y502158D01*
X132241Y502158D01*
X137825Y507294D02*
X146630Y507294D01*
X155113Y502158D02*
X158048Y502158D01*
X155113Y502158D02*
X155006Y502160D01*
X154899Y502166D01*
X154792Y502176D01*
X154686Y502189D01*
X154580Y502207D01*
X154475Y502228D01*
X154371Y502253D01*
X154267Y502282D01*
X154165Y502315D01*
X154065Y502352D01*
X153965Y502392D01*
X153867Y502436D01*
X153771Y502483D01*
X153677Y502534D01*
X153584Y502588D01*
X153494Y502645D01*
X153405Y502706D01*
X153319Y502770D01*
X153236Y502837D01*
X153154Y502907D01*
X153076Y502980D01*
X153000Y503056D01*
X152927Y503134D01*
X152857Y503216D01*
X152790Y503299D01*
X152726Y503385D01*
X152665Y503474D01*
X152608Y503564D01*
X152554Y503657D01*
X152503Y503751D01*
X152456Y503847D01*
X152412Y503945D01*
X152372Y504045D01*
X152335Y504145D01*
X152302Y504247D01*
X152273Y504351D01*
X152248Y504455D01*
X152227Y504560D01*
X152209Y504666D01*
X152196Y504772D01*
X152186Y504879D01*
X152180Y504986D01*
X152178Y505093D01*
X152178Y512431D01*
X152180Y512538D01*
X152186Y512645D01*
X152196Y512752D01*
X152209Y512858D01*
X152227Y512964D01*
X152248Y513069D01*
X152273Y513173D01*
X152302Y513277D01*
X152335Y513379D01*
X152372Y513479D01*
X152412Y513579D01*
X152456Y513677D01*
X152503Y513773D01*
X152554Y513867D01*
X152608Y513960D01*
X152665Y514050D01*
X152726Y514139D01*
X152790Y514225D01*
X152857Y514308D01*
X152927Y514390D01*
X153000Y514468D01*
X153076Y514544D01*
X153154Y514617D01*
X153236Y514687D01*
X153319Y514754D01*
X153405Y514818D01*
X153494Y514879D01*
X153584Y514936D01*
X153677Y514990D01*
X153771Y515041D01*
X153867Y515088D01*
X153965Y515132D01*
X154065Y515172D01*
X154165Y515209D01*
X154267Y515242D01*
X154371Y515271D01*
X154475Y515296D01*
X154580Y515317D01*
X154686Y515335D01*
X154792Y515348D01*
X154899Y515358D01*
X155006Y515364D01*
X155113Y515366D01*
X158048Y515366D01*
X162881Y502158D02*
X166550Y502158D01*
X166670Y502160D01*
X166790Y502166D01*
X166910Y502176D01*
X167029Y502189D01*
X167148Y502207D01*
X167266Y502228D01*
X167383Y502254D01*
X167500Y502283D01*
X167615Y502316D01*
X167729Y502353D01*
X167842Y502393D01*
X167954Y502437D01*
X168064Y502485D01*
X168173Y502536D01*
X168280Y502591D01*
X168385Y502650D01*
X168487Y502711D01*
X168588Y502776D01*
X168687Y502845D01*
X168784Y502916D01*
X168878Y502991D01*
X168969Y503068D01*
X169058Y503149D01*
X169144Y503233D01*
X169228Y503319D01*
X169309Y503408D01*
X169386Y503499D01*
X169461Y503593D01*
X169532Y503690D01*
X169601Y503789D01*
X169666Y503890D01*
X169727Y503993D01*
X169786Y504097D01*
X169841Y504204D01*
X169892Y504313D01*
X169940Y504423D01*
X169984Y504535D01*
X170024Y504648D01*
X170061Y504762D01*
X170094Y504877D01*
X170123Y504994D01*
X170149Y505111D01*
X170170Y505229D01*
X170188Y505348D01*
X170201Y505467D01*
X170211Y505587D01*
X170217Y505707D01*
X170219Y505827D01*
X170217Y505947D01*
X170211Y506067D01*
X170201Y506187D01*
X170188Y506306D01*
X170170Y506425D01*
X170149Y506543D01*
X170123Y506660D01*
X170094Y506777D01*
X170061Y506892D01*
X170024Y507006D01*
X169984Y507119D01*
X169940Y507231D01*
X169892Y507341D01*
X169841Y507450D01*
X169786Y507557D01*
X169727Y507662D01*
X169666Y507764D01*
X169601Y507865D01*
X169532Y507964D01*
X169461Y508061D01*
X169386Y508155D01*
X169309Y508246D01*
X169228Y508335D01*
X169144Y508421D01*
X169058Y508505D01*
X168969Y508586D01*
X168878Y508663D01*
X168784Y508738D01*
X168687Y508809D01*
X168588Y508878D01*
X168487Y508943D01*
X168384Y509004D01*
X168280Y509063D01*
X168173Y509118D01*
X168064Y509169D01*
X167954Y509217D01*
X167842Y509261D01*
X167729Y509301D01*
X167615Y509338D01*
X167500Y509371D01*
X167383Y509400D01*
X167266Y509426D01*
X167148Y509447D01*
X167029Y509465D01*
X166910Y509478D01*
X166790Y509488D01*
X166670Y509494D01*
X166550Y509496D01*
X167284Y515366D02*
X162881Y515366D01*
X167284Y515366D02*
X167391Y515364D01*
X167498Y515358D01*
X167605Y515348D01*
X167711Y515335D01*
X167817Y515317D01*
X167922Y515296D01*
X168026Y515271D01*
X168130Y515242D01*
X168232Y515209D01*
X168332Y515172D01*
X168432Y515132D01*
X168530Y515088D01*
X168626Y515041D01*
X168720Y514990D01*
X168813Y514936D01*
X168903Y514879D01*
X168992Y514818D01*
X169078Y514754D01*
X169161Y514687D01*
X169243Y514617D01*
X169321Y514544D01*
X169397Y514468D01*
X169470Y514390D01*
X169540Y514308D01*
X169607Y514225D01*
X169671Y514139D01*
X169732Y514050D01*
X169789Y513960D01*
X169843Y513867D01*
X169894Y513773D01*
X169941Y513677D01*
X169985Y513579D01*
X170025Y513479D01*
X170062Y513379D01*
X170095Y513277D01*
X170124Y513173D01*
X170149Y513069D01*
X170170Y512964D01*
X170188Y512858D01*
X170201Y512752D01*
X170211Y512645D01*
X170217Y512538D01*
X170219Y512431D01*
X170217Y512324D01*
X170211Y512217D01*
X170201Y512110D01*
X170188Y512004D01*
X170170Y511898D01*
X170149Y511793D01*
X170124Y511689D01*
X170095Y511585D01*
X170062Y511483D01*
X170025Y511383D01*
X169985Y511283D01*
X169941Y511185D01*
X169894Y511089D01*
X169843Y510995D01*
X169789Y510902D01*
X169732Y510812D01*
X169671Y510723D01*
X169607Y510637D01*
X169540Y510554D01*
X169470Y510472D01*
X169397Y510394D01*
X169321Y510318D01*
X169243Y510245D01*
X169161Y510175D01*
X169078Y510108D01*
X168992Y510044D01*
X168903Y509983D01*
X168813Y509926D01*
X168720Y509872D01*
X168626Y509821D01*
X168530Y509774D01*
X168432Y509730D01*
X168332Y509690D01*
X168232Y509653D01*
X168130Y509620D01*
X168026Y509591D01*
X167922Y509566D01*
X167817Y509545D01*
X167711Y509527D01*
X167605Y509514D01*
X167498Y509504D01*
X167391Y509498D01*
X167284Y509496D01*
X164349Y509496D01*
D11*
X78218Y489331D02*
X76581Y494242D01*
X79855Y494242D02*
X78218Y489331D01*
X86657Y495060D02*
X88703Y496697D01*
X88703Y489331D01*
X86657Y489331D02*
X90749Y489331D01*
X93619Y489331D02*
X93619Y489740D01*
X94028Y489740D01*
X94028Y489331D01*
X93619Y489331D01*
X96898Y495060D02*
X98944Y496697D01*
X98944Y489331D01*
X96898Y489331D02*
X100990Y489331D01*
X103891Y488513D02*
X107165Y488513D01*
X114158Y494856D02*
X114156Y494941D01*
X114150Y495026D01*
X114140Y495110D01*
X114127Y495194D01*
X114109Y495278D01*
X114088Y495360D01*
X114063Y495441D01*
X114034Y495521D01*
X114001Y495600D01*
X113965Y495677D01*
X113925Y495752D01*
X113882Y495826D01*
X113836Y495897D01*
X113786Y495966D01*
X113733Y496033D01*
X113677Y496097D01*
X113618Y496158D01*
X113557Y496217D01*
X113493Y496273D01*
X113426Y496326D01*
X113357Y496376D01*
X113286Y496422D01*
X113212Y496465D01*
X113137Y496505D01*
X113060Y496541D01*
X112981Y496574D01*
X112901Y496603D01*
X112820Y496628D01*
X112738Y496649D01*
X112654Y496667D01*
X112570Y496680D01*
X112486Y496690D01*
X112401Y496696D01*
X112316Y496698D01*
X112316Y496697D02*
X112220Y496695D01*
X112124Y496689D01*
X112029Y496679D01*
X111934Y496666D01*
X111839Y496648D01*
X111746Y496627D01*
X111653Y496602D01*
X111562Y496573D01*
X111471Y496541D01*
X111382Y496505D01*
X111295Y496465D01*
X111209Y496422D01*
X111125Y496376D01*
X111043Y496326D01*
X110963Y496272D01*
X110886Y496216D01*
X110811Y496156D01*
X110738Y496094D01*
X110668Y496028D01*
X110600Y495960D01*
X110535Y495889D01*
X110474Y495816D01*
X110415Y495740D01*
X110359Y495661D01*
X110307Y495581D01*
X110258Y495498D01*
X110212Y495414D01*
X110170Y495328D01*
X110132Y495240D01*
X110097Y495151D01*
X110065Y495060D01*
X113544Y493424D02*
X113604Y493483D01*
X113661Y493545D01*
X113716Y493609D01*
X113767Y493676D01*
X113816Y493745D01*
X113862Y493815D01*
X113905Y493888D01*
X113945Y493962D01*
X113981Y494038D01*
X114014Y494116D01*
X114044Y494195D01*
X114071Y494275D01*
X114094Y494356D01*
X114113Y494438D01*
X114129Y494520D01*
X114142Y494604D01*
X114151Y494688D01*
X114156Y494772D01*
X114158Y494856D01*
X113544Y493423D02*
X110065Y489331D01*
X114158Y489331D01*
X117381Y489331D02*
X119836Y489331D01*
X119914Y489333D01*
X119992Y489338D01*
X120069Y489348D01*
X120146Y489361D01*
X120222Y489377D01*
X120297Y489397D01*
X120371Y489421D01*
X120444Y489448D01*
X120516Y489479D01*
X120586Y489513D01*
X120655Y489550D01*
X120721Y489591D01*
X120786Y489635D01*
X120848Y489681D01*
X120908Y489731D01*
X120966Y489783D01*
X121021Y489838D01*
X121073Y489896D01*
X121123Y489956D01*
X121169Y490018D01*
X121213Y490083D01*
X121254Y490150D01*
X121291Y490218D01*
X121325Y490288D01*
X121356Y490360D01*
X121383Y490433D01*
X121407Y490507D01*
X121427Y490582D01*
X121443Y490658D01*
X121456Y490735D01*
X121466Y490812D01*
X121471Y490890D01*
X121473Y490968D01*
X121473Y491786D01*
X121471Y491864D01*
X121466Y491942D01*
X121456Y492019D01*
X121443Y492096D01*
X121427Y492172D01*
X121407Y492247D01*
X121383Y492321D01*
X121356Y492394D01*
X121325Y492466D01*
X121291Y492536D01*
X121254Y492605D01*
X121213Y492671D01*
X121169Y492736D01*
X121123Y492798D01*
X121073Y492858D01*
X121021Y492916D01*
X120966Y492971D01*
X120908Y493023D01*
X120848Y493073D01*
X120786Y493119D01*
X120721Y493163D01*
X120655Y493204D01*
X120586Y493241D01*
X120516Y493275D01*
X120444Y493306D01*
X120371Y493333D01*
X120297Y493357D01*
X120222Y493377D01*
X120146Y493393D01*
X120069Y493406D01*
X119992Y493416D01*
X119914Y493421D01*
X119836Y493423D01*
X117381Y493423D01*
X117381Y496697D01*
X121473Y496697D01*
X125310Y495674D02*
X125244Y495535D01*
X125183Y495396D01*
X125124Y495254D01*
X125070Y495111D01*
X125019Y494967D01*
X124971Y494822D01*
X124928Y494675D01*
X124888Y494527D01*
X124851Y494379D01*
X124819Y494229D01*
X124790Y494079D01*
X124765Y493928D01*
X124744Y493777D01*
X124727Y493625D01*
X124713Y493472D01*
X124704Y493320D01*
X124698Y493167D01*
X124696Y493014D01*
X125310Y495674D02*
X125336Y495744D01*
X125366Y495814D01*
X125399Y495881D01*
X125435Y495947D01*
X125474Y496011D01*
X125517Y496073D01*
X125563Y496132D01*
X125611Y496190D01*
X125662Y496244D01*
X125716Y496297D01*
X125773Y496346D01*
X125832Y496393D01*
X125893Y496436D01*
X125956Y496477D01*
X126021Y496514D01*
X126088Y496549D01*
X126157Y496579D01*
X126227Y496607D01*
X126298Y496630D01*
X126370Y496651D01*
X126443Y496667D01*
X126517Y496680D01*
X126592Y496690D01*
X126667Y496695D01*
X126742Y496697D01*
X126817Y496695D01*
X126892Y496690D01*
X126967Y496680D01*
X127041Y496667D01*
X127114Y496651D01*
X127186Y496630D01*
X127257Y496607D01*
X127327Y496579D01*
X127396Y496549D01*
X127463Y496514D01*
X127528Y496477D01*
X127591Y496436D01*
X127652Y496393D01*
X127711Y496346D01*
X127768Y496297D01*
X127822Y496244D01*
X127873Y496190D01*
X127922Y496132D01*
X127967Y496073D01*
X128010Y496011D01*
X128049Y495947D01*
X128086Y495881D01*
X128118Y495813D01*
X128148Y495744D01*
X128174Y495674D01*
X128239Y495536D01*
X128301Y495396D01*
X128359Y495254D01*
X128414Y495111D01*
X128465Y494967D01*
X128513Y494822D01*
X128556Y494675D01*
X128596Y494528D01*
X128633Y494379D01*
X128665Y494229D01*
X128694Y494079D01*
X128719Y493928D01*
X128740Y493777D01*
X128757Y493625D01*
X128771Y493472D01*
X128780Y493320D01*
X128786Y493167D01*
X128788Y493014D01*
X124695Y493014D02*
X124697Y492861D01*
X124703Y492708D01*
X124712Y492555D01*
X124726Y492403D01*
X124743Y492251D01*
X124764Y492100D01*
X124789Y491949D01*
X124818Y491798D01*
X124850Y491649D01*
X124887Y491500D01*
X124927Y491353D01*
X124970Y491206D01*
X125018Y491061D01*
X125069Y490916D01*
X125124Y490774D01*
X125182Y490632D01*
X125244Y490492D01*
X125309Y490354D01*
X125310Y490354D02*
X125336Y490283D01*
X125366Y490214D01*
X125399Y490147D01*
X125435Y490081D01*
X125474Y490017D01*
X125517Y489955D01*
X125563Y489896D01*
X125611Y489838D01*
X125662Y489784D01*
X125716Y489731D01*
X125773Y489682D01*
X125832Y489635D01*
X125893Y489592D01*
X125956Y489551D01*
X126021Y489514D01*
X126088Y489479D01*
X126157Y489449D01*
X126227Y489421D01*
X126298Y489398D01*
X126370Y489377D01*
X126443Y489361D01*
X126517Y489348D01*
X126592Y489338D01*
X126667Y489333D01*
X126742Y489331D01*
X128174Y490354D02*
X128239Y490492D01*
X128301Y490632D01*
X128359Y490774D01*
X128414Y490917D01*
X128465Y491061D01*
X128513Y491206D01*
X128556Y491353D01*
X128596Y491501D01*
X128633Y491649D01*
X128665Y491799D01*
X128694Y491949D01*
X128719Y492100D01*
X128740Y492251D01*
X128757Y492403D01*
X128771Y492556D01*
X128780Y492708D01*
X128786Y492861D01*
X128788Y493014D01*
X128174Y490354D02*
X128148Y490284D01*
X128118Y490214D01*
X128086Y490147D01*
X128049Y490081D01*
X128010Y490017D01*
X127967Y489955D01*
X127921Y489896D01*
X127873Y489838D01*
X127822Y489784D01*
X127768Y489731D01*
X127711Y489682D01*
X127652Y489635D01*
X127591Y489592D01*
X127528Y489551D01*
X127463Y489514D01*
X127396Y489479D01*
X127327Y489449D01*
X127257Y489421D01*
X127186Y489398D01*
X127114Y489377D01*
X127041Y489361D01*
X126967Y489348D01*
X126892Y489338D01*
X126817Y489333D01*
X126742Y489331D01*
X125105Y490968D02*
X128379Y495060D01*
X132011Y491377D02*
X132013Y491466D01*
X132019Y491555D01*
X132029Y491644D01*
X132042Y491732D01*
X132059Y491820D01*
X132081Y491907D01*
X132106Y491992D01*
X132134Y492077D01*
X132167Y492160D01*
X132203Y492242D01*
X132242Y492322D01*
X132285Y492400D01*
X132331Y492476D01*
X132381Y492551D01*
X132434Y492623D01*
X132490Y492692D01*
X132549Y492759D01*
X132610Y492824D01*
X132675Y492885D01*
X132742Y492944D01*
X132811Y493000D01*
X132883Y493053D01*
X132958Y493103D01*
X133034Y493149D01*
X133112Y493192D01*
X133192Y493231D01*
X133274Y493267D01*
X133357Y493300D01*
X133442Y493328D01*
X133527Y493353D01*
X133614Y493375D01*
X133702Y493392D01*
X133790Y493405D01*
X133879Y493415D01*
X133968Y493421D01*
X134057Y493423D01*
X134146Y493421D01*
X134235Y493415D01*
X134324Y493405D01*
X134412Y493392D01*
X134500Y493375D01*
X134587Y493353D01*
X134672Y493328D01*
X134757Y493300D01*
X134840Y493267D01*
X134922Y493231D01*
X135002Y493192D01*
X135080Y493149D01*
X135156Y493103D01*
X135231Y493053D01*
X135303Y493000D01*
X135372Y492944D01*
X135439Y492885D01*
X135504Y492824D01*
X135565Y492759D01*
X135624Y492692D01*
X135680Y492623D01*
X135733Y492551D01*
X135783Y492476D01*
X135829Y492400D01*
X135872Y492322D01*
X135911Y492242D01*
X135947Y492160D01*
X135980Y492077D01*
X136008Y491992D01*
X136033Y491907D01*
X136055Y491820D01*
X136072Y491732D01*
X136085Y491644D01*
X136095Y491555D01*
X136101Y491466D01*
X136103Y491377D01*
X136101Y491288D01*
X136095Y491199D01*
X136085Y491110D01*
X136072Y491022D01*
X136055Y490934D01*
X136033Y490847D01*
X136008Y490762D01*
X135980Y490677D01*
X135947Y490594D01*
X135911Y490512D01*
X135872Y490432D01*
X135829Y490354D01*
X135783Y490278D01*
X135733Y490203D01*
X135680Y490131D01*
X135624Y490062D01*
X135565Y489995D01*
X135504Y489930D01*
X135439Y489869D01*
X135372Y489810D01*
X135303Y489754D01*
X135231Y489701D01*
X135156Y489651D01*
X135080Y489605D01*
X135002Y489562D01*
X134922Y489523D01*
X134840Y489487D01*
X134757Y489454D01*
X134672Y489426D01*
X134587Y489401D01*
X134500Y489379D01*
X134412Y489362D01*
X134324Y489349D01*
X134235Y489339D01*
X134146Y489333D01*
X134057Y489331D01*
X133968Y489333D01*
X133879Y489339D01*
X133790Y489349D01*
X133702Y489362D01*
X133614Y489379D01*
X133527Y489401D01*
X133442Y489426D01*
X133357Y489454D01*
X133274Y489487D01*
X133192Y489523D01*
X133112Y489562D01*
X133034Y489605D01*
X132958Y489651D01*
X132883Y489701D01*
X132811Y489754D01*
X132742Y489810D01*
X132675Y489869D01*
X132610Y489930D01*
X132549Y489995D01*
X132490Y490062D01*
X132434Y490131D01*
X132381Y490203D01*
X132331Y490278D01*
X132285Y490354D01*
X132242Y490432D01*
X132203Y490512D01*
X132167Y490594D01*
X132134Y490677D01*
X132106Y490762D01*
X132081Y490847D01*
X132059Y490934D01*
X132042Y491022D01*
X132029Y491110D01*
X132019Y491199D01*
X132013Y491288D01*
X132011Y491377D01*
X132420Y495060D02*
X132422Y495139D01*
X132428Y495218D01*
X132437Y495297D01*
X132450Y495375D01*
X132468Y495452D01*
X132488Y495528D01*
X132513Y495603D01*
X132541Y495677D01*
X132572Y495750D01*
X132608Y495821D01*
X132646Y495890D01*
X132688Y495957D01*
X132733Y496022D01*
X132781Y496085D01*
X132832Y496146D01*
X132886Y496203D01*
X132942Y496259D01*
X133001Y496311D01*
X133063Y496361D01*
X133127Y496407D01*
X133193Y496451D01*
X133261Y496491D01*
X133331Y496527D01*
X133403Y496561D01*
X133477Y496591D01*
X133551Y496617D01*
X133627Y496640D01*
X133704Y496658D01*
X133781Y496674D01*
X133860Y496685D01*
X133938Y496693D01*
X134017Y496697D01*
X134097Y496697D01*
X134176Y496693D01*
X134254Y496685D01*
X134333Y496674D01*
X134410Y496658D01*
X134487Y496640D01*
X134563Y496617D01*
X134637Y496591D01*
X134711Y496561D01*
X134783Y496527D01*
X134853Y496491D01*
X134921Y496451D01*
X134987Y496407D01*
X135051Y496361D01*
X135113Y496311D01*
X135172Y496259D01*
X135228Y496203D01*
X135282Y496146D01*
X135333Y496085D01*
X135381Y496022D01*
X135426Y495957D01*
X135468Y495890D01*
X135506Y495821D01*
X135542Y495750D01*
X135573Y495677D01*
X135601Y495603D01*
X135626Y495528D01*
X135646Y495452D01*
X135664Y495375D01*
X135677Y495297D01*
X135686Y495218D01*
X135692Y495139D01*
X135694Y495060D01*
X135692Y494981D01*
X135686Y494902D01*
X135677Y494823D01*
X135664Y494745D01*
X135646Y494668D01*
X135626Y494592D01*
X135601Y494517D01*
X135573Y494443D01*
X135542Y494370D01*
X135506Y494299D01*
X135468Y494230D01*
X135426Y494163D01*
X135381Y494098D01*
X135333Y494035D01*
X135282Y493974D01*
X135228Y493917D01*
X135172Y493861D01*
X135113Y493809D01*
X135051Y493759D01*
X134987Y493713D01*
X134921Y493669D01*
X134853Y493629D01*
X134783Y493593D01*
X134711Y493559D01*
X134637Y493529D01*
X134563Y493503D01*
X134487Y493480D01*
X134410Y493462D01*
X134333Y493446D01*
X134254Y493435D01*
X134176Y493427D01*
X134097Y493423D01*
X134017Y493423D01*
X133938Y493427D01*
X133860Y493435D01*
X133781Y493446D01*
X133704Y493462D01*
X133627Y493480D01*
X133551Y493503D01*
X133477Y493529D01*
X133403Y493559D01*
X133331Y493593D01*
X133261Y493629D01*
X133193Y493669D01*
X133127Y493713D01*
X133063Y493759D01*
X133001Y493809D01*
X132942Y493861D01*
X132886Y493917D01*
X132832Y493974D01*
X132781Y494035D01*
X132733Y494098D01*
X132688Y494163D01*
X132646Y494230D01*
X132608Y494299D01*
X132572Y494370D01*
X132541Y494443D01*
X132513Y494517D01*
X132488Y494592D01*
X132468Y494668D01*
X132450Y494745D01*
X132437Y494823D01*
X132428Y494902D01*
X132422Y494981D01*
X132420Y495060D01*
X141577Y496698D02*
X141662Y496696D01*
X141747Y496690D01*
X141831Y496680D01*
X141915Y496667D01*
X141999Y496649D01*
X142081Y496628D01*
X142162Y496603D01*
X142242Y496574D01*
X142321Y496541D01*
X142398Y496505D01*
X142473Y496465D01*
X142547Y496422D01*
X142618Y496376D01*
X142687Y496326D01*
X142754Y496273D01*
X142818Y496217D01*
X142879Y496158D01*
X142938Y496097D01*
X142994Y496033D01*
X143047Y495966D01*
X143097Y495897D01*
X143143Y495826D01*
X143186Y495752D01*
X143226Y495677D01*
X143262Y495600D01*
X143295Y495521D01*
X143324Y495441D01*
X143349Y495360D01*
X143370Y495278D01*
X143388Y495194D01*
X143401Y495110D01*
X143411Y495026D01*
X143417Y494941D01*
X143419Y494856D01*
X141577Y496697D02*
X141481Y496695D01*
X141385Y496689D01*
X141290Y496679D01*
X141195Y496666D01*
X141100Y496648D01*
X141007Y496627D01*
X140914Y496602D01*
X140823Y496573D01*
X140732Y496541D01*
X140643Y496505D01*
X140556Y496465D01*
X140470Y496422D01*
X140386Y496376D01*
X140304Y496326D01*
X140224Y496272D01*
X140147Y496216D01*
X140072Y496156D01*
X139999Y496094D01*
X139929Y496028D01*
X139861Y495960D01*
X139796Y495889D01*
X139735Y495816D01*
X139676Y495740D01*
X139620Y495661D01*
X139568Y495581D01*
X139519Y495498D01*
X139473Y495414D01*
X139431Y495328D01*
X139393Y495240D01*
X139358Y495151D01*
X139326Y495060D01*
X142805Y493424D02*
X142865Y493483D01*
X142922Y493545D01*
X142977Y493609D01*
X143028Y493676D01*
X143077Y493745D01*
X143123Y493815D01*
X143166Y493888D01*
X143206Y493962D01*
X143242Y494038D01*
X143275Y494116D01*
X143305Y494195D01*
X143332Y494275D01*
X143355Y494356D01*
X143374Y494438D01*
X143390Y494520D01*
X143403Y494604D01*
X143412Y494688D01*
X143417Y494772D01*
X143419Y494856D01*
X142805Y493423D02*
X139326Y489331D01*
X143419Y489331D01*
X146642Y493014D02*
X146644Y493167D01*
X146650Y493320D01*
X146659Y493472D01*
X146673Y493625D01*
X146690Y493777D01*
X146711Y493928D01*
X146736Y494079D01*
X146765Y494229D01*
X146797Y494379D01*
X146834Y494527D01*
X146874Y494675D01*
X146917Y494822D01*
X146965Y494967D01*
X147016Y495111D01*
X147070Y495254D01*
X147129Y495396D01*
X147190Y495535D01*
X147256Y495674D01*
X147282Y495744D01*
X147312Y495814D01*
X147345Y495881D01*
X147381Y495947D01*
X147420Y496011D01*
X147463Y496073D01*
X147509Y496132D01*
X147557Y496190D01*
X147608Y496244D01*
X147662Y496297D01*
X147719Y496346D01*
X147778Y496393D01*
X147839Y496436D01*
X147902Y496477D01*
X147967Y496514D01*
X148034Y496549D01*
X148103Y496579D01*
X148173Y496607D01*
X148244Y496630D01*
X148316Y496651D01*
X148389Y496667D01*
X148463Y496680D01*
X148538Y496690D01*
X148613Y496695D01*
X148688Y496697D01*
X148763Y496695D01*
X148838Y496690D01*
X148913Y496680D01*
X148987Y496667D01*
X149060Y496651D01*
X149132Y496630D01*
X149203Y496607D01*
X149273Y496579D01*
X149342Y496549D01*
X149409Y496514D01*
X149474Y496477D01*
X149537Y496436D01*
X149598Y496393D01*
X149657Y496346D01*
X149714Y496297D01*
X149768Y496244D01*
X149819Y496190D01*
X149868Y496132D01*
X149913Y496073D01*
X149956Y496011D01*
X149995Y495947D01*
X150032Y495881D01*
X150064Y495813D01*
X150094Y495744D01*
X150120Y495674D01*
X150185Y495536D01*
X150247Y495396D01*
X150305Y495254D01*
X150360Y495111D01*
X150411Y494967D01*
X150459Y494822D01*
X150502Y494675D01*
X150542Y494528D01*
X150579Y494379D01*
X150611Y494229D01*
X150640Y494079D01*
X150665Y493928D01*
X150686Y493777D01*
X150703Y493625D01*
X150717Y493472D01*
X150726Y493320D01*
X150732Y493167D01*
X150734Y493014D01*
X146641Y493014D02*
X146643Y492861D01*
X146649Y492708D01*
X146658Y492555D01*
X146672Y492403D01*
X146689Y492251D01*
X146710Y492100D01*
X146735Y491949D01*
X146764Y491798D01*
X146796Y491649D01*
X146833Y491500D01*
X146873Y491353D01*
X146916Y491206D01*
X146964Y491061D01*
X147015Y490916D01*
X147070Y490774D01*
X147128Y490632D01*
X147190Y490492D01*
X147255Y490354D01*
X147256Y490354D02*
X147282Y490283D01*
X147312Y490214D01*
X147345Y490147D01*
X147381Y490081D01*
X147420Y490017D01*
X147463Y489955D01*
X147509Y489896D01*
X147557Y489838D01*
X147608Y489784D01*
X147662Y489731D01*
X147719Y489682D01*
X147778Y489635D01*
X147839Y489592D01*
X147902Y489551D01*
X147967Y489514D01*
X148034Y489479D01*
X148103Y489449D01*
X148173Y489421D01*
X148244Y489398D01*
X148316Y489377D01*
X148389Y489361D01*
X148463Y489348D01*
X148538Y489338D01*
X148613Y489333D01*
X148688Y489331D01*
X150120Y490354D02*
X150185Y490492D01*
X150247Y490632D01*
X150305Y490774D01*
X150360Y490917D01*
X150411Y491061D01*
X150459Y491206D01*
X150502Y491353D01*
X150542Y491501D01*
X150579Y491649D01*
X150611Y491799D01*
X150640Y491949D01*
X150665Y492100D01*
X150686Y492251D01*
X150703Y492403D01*
X150717Y492556D01*
X150726Y492708D01*
X150732Y492861D01*
X150734Y493014D01*
X150120Y490354D02*
X150094Y490284D01*
X150064Y490214D01*
X150032Y490147D01*
X149995Y490081D01*
X149956Y490017D01*
X149913Y489955D01*
X149867Y489896D01*
X149819Y489838D01*
X149768Y489784D01*
X149714Y489731D01*
X149657Y489682D01*
X149598Y489635D01*
X149537Y489592D01*
X149474Y489551D01*
X149409Y489514D01*
X149342Y489479D01*
X149273Y489449D01*
X149203Y489421D01*
X149132Y489398D01*
X149060Y489377D01*
X148987Y489361D01*
X148913Y489348D01*
X148838Y489338D01*
X148763Y489333D01*
X148688Y489331D01*
X147051Y490968D02*
X150325Y495060D01*
X153634Y488513D02*
X156908Y488513D01*
X160053Y489331D02*
X160053Y496697D01*
X162099Y496697D01*
X162188Y496695D01*
X162277Y496689D01*
X162366Y496679D01*
X162454Y496666D01*
X162542Y496649D01*
X162629Y496627D01*
X162714Y496602D01*
X162799Y496574D01*
X162882Y496541D01*
X162964Y496505D01*
X163044Y496466D01*
X163122Y496423D01*
X163198Y496377D01*
X163273Y496327D01*
X163345Y496274D01*
X163414Y496218D01*
X163481Y496159D01*
X163546Y496098D01*
X163607Y496033D01*
X163666Y495966D01*
X163722Y495897D01*
X163775Y495825D01*
X163825Y495750D01*
X163871Y495674D01*
X163914Y495596D01*
X163953Y495516D01*
X163989Y495434D01*
X164022Y495351D01*
X164050Y495266D01*
X164075Y495181D01*
X164097Y495094D01*
X164114Y495006D01*
X164127Y494918D01*
X164137Y494829D01*
X164143Y494740D01*
X164145Y494651D01*
X164145Y491377D01*
X164143Y491288D01*
X164137Y491199D01*
X164127Y491110D01*
X164114Y491022D01*
X164097Y490934D01*
X164075Y490847D01*
X164050Y490762D01*
X164022Y490677D01*
X163989Y490594D01*
X163953Y490512D01*
X163914Y490432D01*
X163871Y490354D01*
X163825Y490278D01*
X163775Y490203D01*
X163722Y490131D01*
X163666Y490062D01*
X163607Y489995D01*
X163546Y489930D01*
X163481Y489869D01*
X163414Y489810D01*
X163345Y489754D01*
X163273Y489701D01*
X163198Y489651D01*
X163122Y489605D01*
X163044Y489562D01*
X162964Y489523D01*
X162882Y489487D01*
X162799Y489454D01*
X162714Y489426D01*
X162629Y489401D01*
X162542Y489379D01*
X162454Y489362D01*
X162366Y489349D01*
X162277Y489339D01*
X162188Y489333D01*
X162099Y489331D01*
X160053Y489331D01*
X167871Y489331D02*
X171145Y489331D01*
X167871Y489331D02*
X167871Y496697D01*
X171145Y496697D01*
X170327Y493423D02*
X167871Y493423D01*
D10*
X197358Y37592D02*
X197358Y25908D01*
X200604Y25908D01*
X200691Y25910D01*
X200779Y25916D01*
X200865Y25926D01*
X200952Y25939D01*
X201037Y25957D01*
X201122Y25978D01*
X201206Y26003D01*
X201288Y26032D01*
X201369Y26065D01*
X201449Y26101D01*
X201527Y26140D01*
X201603Y26184D01*
X201677Y26230D01*
X201748Y26280D01*
X201818Y26333D01*
X201885Y26389D01*
X201949Y26448D01*
X202011Y26509D01*
X202070Y26574D01*
X202126Y26641D01*
X202179Y26711D01*
X202229Y26782D01*
X202275Y26856D01*
X202319Y26932D01*
X202358Y27010D01*
X202394Y27090D01*
X202427Y27171D01*
X202456Y27253D01*
X202481Y27337D01*
X202502Y27422D01*
X202520Y27507D01*
X202533Y27594D01*
X202543Y27680D01*
X202549Y27768D01*
X202551Y27855D01*
X202551Y31750D01*
X202549Y31837D01*
X202543Y31925D01*
X202533Y32011D01*
X202520Y32098D01*
X202502Y32183D01*
X202481Y32268D01*
X202456Y32352D01*
X202427Y32434D01*
X202394Y32515D01*
X202358Y32595D01*
X202319Y32673D01*
X202275Y32749D01*
X202229Y32823D01*
X202179Y32894D01*
X202126Y32964D01*
X202070Y33031D01*
X202011Y33095D01*
X201949Y33157D01*
X201885Y33216D01*
X201818Y33272D01*
X201748Y33325D01*
X201677Y33375D01*
X201603Y33421D01*
X201527Y33465D01*
X201449Y33504D01*
X201369Y33540D01*
X201288Y33573D01*
X201206Y33602D01*
X201122Y33627D01*
X201037Y33648D01*
X200952Y33666D01*
X200865Y33679D01*
X200779Y33689D01*
X200691Y33695D01*
X200604Y33697D01*
X197358Y33697D01*
X206824Y22013D02*
X208122Y22013D01*
X212017Y33697D01*
X206824Y33697D02*
X209421Y25908D01*
X222939Y25908D02*
X222939Y37592D01*
X226185Y37592D01*
X226298Y37590D01*
X226411Y37584D01*
X226524Y37574D01*
X226637Y37560D01*
X226749Y37543D01*
X226860Y37521D01*
X226970Y37496D01*
X227080Y37466D01*
X227188Y37433D01*
X227295Y37396D01*
X227401Y37356D01*
X227505Y37311D01*
X227608Y37263D01*
X227709Y37212D01*
X227808Y37157D01*
X227905Y37099D01*
X228000Y37037D01*
X228093Y36972D01*
X228183Y36904D01*
X228271Y36833D01*
X228357Y36758D01*
X228440Y36681D01*
X228520Y36601D01*
X228597Y36518D01*
X228672Y36432D01*
X228743Y36344D01*
X228811Y36254D01*
X228876Y36161D01*
X228938Y36066D01*
X228996Y35969D01*
X229051Y35870D01*
X229102Y35769D01*
X229150Y35666D01*
X229195Y35562D01*
X229235Y35456D01*
X229272Y35349D01*
X229305Y35241D01*
X229335Y35131D01*
X229360Y35021D01*
X229382Y34910D01*
X229399Y34798D01*
X229413Y34685D01*
X229423Y34572D01*
X229429Y34459D01*
X229431Y34346D01*
X229430Y34346D02*
X229430Y29154D01*
X229431Y29154D02*
X229429Y29041D01*
X229423Y28928D01*
X229413Y28815D01*
X229399Y28702D01*
X229382Y28590D01*
X229360Y28479D01*
X229335Y28369D01*
X229305Y28259D01*
X229272Y28151D01*
X229235Y28044D01*
X229195Y27938D01*
X229150Y27834D01*
X229102Y27731D01*
X229051Y27630D01*
X228996Y27531D01*
X228938Y27434D01*
X228876Y27339D01*
X228811Y27246D01*
X228743Y27156D01*
X228672Y27068D01*
X228597Y26982D01*
X228520Y26899D01*
X228440Y26819D01*
X228357Y26742D01*
X228271Y26667D01*
X228183Y26596D01*
X228093Y26528D01*
X228000Y26463D01*
X227905Y26401D01*
X227808Y26343D01*
X227709Y26288D01*
X227608Y26237D01*
X227505Y26189D01*
X227401Y26144D01*
X227295Y26104D01*
X227188Y26067D01*
X227080Y26034D01*
X226970Y26004D01*
X226860Y25979D01*
X226749Y25957D01*
X226637Y25940D01*
X226524Y25926D01*
X226411Y25916D01*
X226298Y25910D01*
X226185Y25908D01*
X222939Y25908D01*
X234750Y29154D02*
X234750Y34346D01*
X234749Y34346D02*
X234751Y34459D01*
X234757Y34572D01*
X234767Y34685D01*
X234781Y34798D01*
X234798Y34910D01*
X234820Y35021D01*
X234845Y35131D01*
X234875Y35241D01*
X234908Y35349D01*
X234945Y35456D01*
X234985Y35562D01*
X235030Y35666D01*
X235078Y35769D01*
X235129Y35870D01*
X235184Y35969D01*
X235242Y36066D01*
X235304Y36161D01*
X235369Y36254D01*
X235437Y36344D01*
X235508Y36432D01*
X235583Y36518D01*
X235660Y36601D01*
X235740Y36681D01*
X235823Y36758D01*
X235909Y36833D01*
X235997Y36904D01*
X236087Y36972D01*
X236180Y37037D01*
X236275Y37099D01*
X236372Y37157D01*
X236471Y37212D01*
X236572Y37263D01*
X236675Y37311D01*
X236779Y37356D01*
X236885Y37396D01*
X236992Y37433D01*
X237100Y37466D01*
X237210Y37496D01*
X237320Y37521D01*
X237431Y37543D01*
X237543Y37560D01*
X237656Y37574D01*
X237769Y37584D01*
X237882Y37590D01*
X237995Y37592D01*
X238108Y37590D01*
X238221Y37584D01*
X238334Y37574D01*
X238447Y37560D01*
X238559Y37543D01*
X238670Y37521D01*
X238780Y37496D01*
X238890Y37466D01*
X238998Y37433D01*
X239105Y37396D01*
X239211Y37356D01*
X239315Y37311D01*
X239418Y37263D01*
X239519Y37212D01*
X239618Y37157D01*
X239715Y37099D01*
X239810Y37037D01*
X239903Y36972D01*
X239993Y36904D01*
X240081Y36833D01*
X240167Y36758D01*
X240250Y36681D01*
X240330Y36601D01*
X240407Y36518D01*
X240482Y36432D01*
X240553Y36344D01*
X240621Y36254D01*
X240686Y36161D01*
X240748Y36066D01*
X240806Y35969D01*
X240861Y35870D01*
X240912Y35769D01*
X240960Y35666D01*
X241005Y35562D01*
X241045Y35456D01*
X241082Y35349D01*
X241115Y35241D01*
X241145Y35131D01*
X241170Y35021D01*
X241192Y34910D01*
X241209Y34798D01*
X241223Y34685D01*
X241233Y34572D01*
X241239Y34459D01*
X241241Y34346D01*
X241241Y29154D01*
X241239Y29041D01*
X241233Y28928D01*
X241223Y28815D01*
X241209Y28702D01*
X241192Y28590D01*
X241170Y28479D01*
X241145Y28369D01*
X241115Y28259D01*
X241082Y28151D01*
X241045Y28044D01*
X241005Y27938D01*
X240960Y27834D01*
X240912Y27731D01*
X240861Y27630D01*
X240806Y27531D01*
X240748Y27434D01*
X240686Y27339D01*
X240621Y27246D01*
X240553Y27156D01*
X240482Y27068D01*
X240407Y26982D01*
X240330Y26899D01*
X240250Y26819D01*
X240167Y26742D01*
X240081Y26667D01*
X239993Y26596D01*
X239903Y26528D01*
X239810Y26463D01*
X239715Y26401D01*
X239618Y26343D01*
X239519Y26288D01*
X239418Y26237D01*
X239315Y26189D01*
X239211Y26144D01*
X239105Y26104D01*
X238998Y26067D01*
X238890Y26034D01*
X238780Y26004D01*
X238670Y25979D01*
X238559Y25957D01*
X238447Y25940D01*
X238334Y25926D01*
X238221Y25916D01*
X238108Y25910D01*
X237995Y25908D01*
X237882Y25910D01*
X237769Y25916D01*
X237656Y25926D01*
X237543Y25940D01*
X237431Y25957D01*
X237320Y25979D01*
X237210Y26004D01*
X237100Y26034D01*
X236992Y26067D01*
X236885Y26104D01*
X236779Y26144D01*
X236675Y26189D01*
X236572Y26237D01*
X236471Y26288D01*
X236372Y26343D01*
X236275Y26401D01*
X236180Y26463D01*
X236087Y26528D01*
X235997Y26596D01*
X235909Y26667D01*
X235823Y26742D01*
X235740Y26819D01*
X235660Y26899D01*
X235583Y26982D01*
X235508Y27068D01*
X235437Y27156D01*
X235369Y27246D01*
X235304Y27339D01*
X235242Y27434D01*
X235184Y27531D01*
X235129Y27630D01*
X235078Y27731D01*
X235030Y27834D01*
X234985Y27938D01*
X234945Y28044D01*
X234908Y28151D01*
X234875Y28259D01*
X234845Y28369D01*
X234820Y28479D01*
X234798Y28590D01*
X234781Y28702D01*
X234767Y28815D01*
X234757Y28928D01*
X234751Y29041D01*
X234749Y29154D01*
X246180Y32399D02*
X250075Y32399D01*
X250174Y32397D01*
X250274Y32391D01*
X250373Y32382D01*
X250471Y32369D01*
X250569Y32352D01*
X250667Y32331D01*
X250763Y32306D01*
X250858Y32278D01*
X250952Y32246D01*
X251045Y32211D01*
X251137Y32172D01*
X251227Y32129D01*
X251315Y32084D01*
X251402Y32034D01*
X251486Y31982D01*
X251569Y31926D01*
X251649Y31868D01*
X251727Y31806D01*
X251802Y31741D01*
X251875Y31673D01*
X251945Y31603D01*
X252013Y31530D01*
X252078Y31455D01*
X252140Y31377D01*
X252198Y31297D01*
X252254Y31214D01*
X252306Y31130D01*
X252356Y31043D01*
X252401Y30955D01*
X252444Y30865D01*
X252483Y30773D01*
X252518Y30680D01*
X252550Y30586D01*
X252578Y30491D01*
X252603Y30395D01*
X252624Y30297D01*
X252641Y30199D01*
X252654Y30101D01*
X252663Y30002D01*
X252669Y29902D01*
X252671Y29803D01*
X252671Y29154D01*
X252669Y29041D01*
X252663Y28928D01*
X252653Y28815D01*
X252639Y28702D01*
X252622Y28590D01*
X252600Y28479D01*
X252575Y28369D01*
X252545Y28259D01*
X252512Y28151D01*
X252475Y28044D01*
X252435Y27938D01*
X252390Y27834D01*
X252342Y27731D01*
X252291Y27630D01*
X252236Y27531D01*
X252178Y27434D01*
X252116Y27339D01*
X252051Y27246D01*
X251983Y27156D01*
X251912Y27068D01*
X251837Y26982D01*
X251760Y26899D01*
X251680Y26819D01*
X251597Y26742D01*
X251511Y26667D01*
X251423Y26596D01*
X251333Y26528D01*
X251240Y26463D01*
X251145Y26401D01*
X251048Y26343D01*
X250949Y26288D01*
X250848Y26237D01*
X250745Y26189D01*
X250641Y26144D01*
X250535Y26104D01*
X250428Y26067D01*
X250320Y26034D01*
X250210Y26004D01*
X250100Y25979D01*
X249989Y25957D01*
X249877Y25940D01*
X249764Y25926D01*
X249651Y25916D01*
X249538Y25910D01*
X249425Y25908D01*
X249312Y25910D01*
X249199Y25916D01*
X249086Y25926D01*
X248973Y25940D01*
X248861Y25957D01*
X248750Y25979D01*
X248640Y26004D01*
X248530Y26034D01*
X248422Y26067D01*
X248315Y26104D01*
X248209Y26144D01*
X248105Y26189D01*
X248002Y26237D01*
X247901Y26288D01*
X247802Y26343D01*
X247705Y26401D01*
X247610Y26463D01*
X247517Y26528D01*
X247427Y26596D01*
X247339Y26667D01*
X247253Y26742D01*
X247170Y26819D01*
X247090Y26899D01*
X247013Y26982D01*
X246938Y27068D01*
X246867Y27156D01*
X246799Y27246D01*
X246734Y27339D01*
X246672Y27434D01*
X246614Y27531D01*
X246559Y27630D01*
X246508Y27731D01*
X246460Y27834D01*
X246415Y27938D01*
X246375Y28044D01*
X246338Y28151D01*
X246305Y28259D01*
X246275Y28369D01*
X246250Y28479D01*
X246228Y28590D01*
X246211Y28702D01*
X246197Y28815D01*
X246187Y28928D01*
X246181Y29041D01*
X246179Y29154D01*
X246180Y29154D02*
X246180Y32399D01*
X246182Y32542D01*
X246188Y32685D01*
X246198Y32828D01*
X246212Y32970D01*
X246229Y33112D01*
X246251Y33254D01*
X246276Y33395D01*
X246306Y33535D01*
X246339Y33674D01*
X246376Y33812D01*
X246417Y33949D01*
X246461Y34085D01*
X246510Y34220D01*
X246562Y34353D01*
X246617Y34485D01*
X246677Y34615D01*
X246740Y34744D01*
X246806Y34871D01*
X246876Y34995D01*
X246949Y35118D01*
X247026Y35239D01*
X247106Y35358D01*
X247189Y35474D01*
X247275Y35589D01*
X247364Y35700D01*
X247457Y35810D01*
X247552Y35916D01*
X247651Y36020D01*
X247752Y36121D01*
X247856Y36220D01*
X247962Y36315D01*
X248072Y36408D01*
X248183Y36497D01*
X248298Y36583D01*
X248414Y36666D01*
X248533Y36746D01*
X248654Y36823D01*
X248776Y36896D01*
X248901Y36966D01*
X249028Y37032D01*
X249157Y37095D01*
X249287Y37155D01*
X249419Y37210D01*
X249552Y37262D01*
X249687Y37311D01*
X249823Y37355D01*
X249960Y37396D01*
X250098Y37433D01*
X250237Y37466D01*
X250377Y37496D01*
X250518Y37521D01*
X250660Y37543D01*
X250802Y37560D01*
X250944Y37574D01*
X251087Y37584D01*
X251230Y37590D01*
X251373Y37592D01*
X258013Y25908D02*
X263206Y25908D01*
X258013Y25908D02*
X258013Y37592D01*
X263206Y37592D01*
X261908Y32399D02*
X258013Y32399D01*
X268066Y37592D02*
X268066Y25908D01*
X268066Y37592D02*
X271312Y37592D01*
X271425Y37590D01*
X271538Y37584D01*
X271651Y37574D01*
X271764Y37560D01*
X271876Y37543D01*
X271987Y37521D01*
X272097Y37496D01*
X272207Y37466D01*
X272315Y37433D01*
X272422Y37396D01*
X272528Y37356D01*
X272632Y37311D01*
X272735Y37263D01*
X272836Y37212D01*
X272935Y37157D01*
X273032Y37099D01*
X273127Y37037D01*
X273220Y36972D01*
X273310Y36904D01*
X273398Y36833D01*
X273484Y36758D01*
X273567Y36681D01*
X273647Y36601D01*
X273724Y36518D01*
X273799Y36432D01*
X273870Y36344D01*
X273938Y36254D01*
X274003Y36161D01*
X274065Y36066D01*
X274123Y35969D01*
X274178Y35870D01*
X274229Y35769D01*
X274277Y35666D01*
X274322Y35562D01*
X274362Y35456D01*
X274399Y35349D01*
X274432Y35241D01*
X274462Y35131D01*
X274487Y35021D01*
X274509Y34910D01*
X274526Y34798D01*
X274540Y34685D01*
X274550Y34572D01*
X274556Y34459D01*
X274558Y34346D01*
X274556Y34233D01*
X274550Y34120D01*
X274540Y34007D01*
X274526Y33894D01*
X274509Y33782D01*
X274487Y33671D01*
X274462Y33561D01*
X274432Y33451D01*
X274399Y33343D01*
X274362Y33236D01*
X274322Y33130D01*
X274277Y33026D01*
X274229Y32923D01*
X274178Y32822D01*
X274123Y32723D01*
X274065Y32626D01*
X274003Y32531D01*
X273938Y32438D01*
X273870Y32348D01*
X273799Y32260D01*
X273724Y32174D01*
X273647Y32091D01*
X273567Y32011D01*
X273484Y31934D01*
X273398Y31859D01*
X273310Y31788D01*
X273220Y31720D01*
X273127Y31655D01*
X273032Y31593D01*
X272935Y31535D01*
X272836Y31480D01*
X272735Y31429D01*
X272632Y31381D01*
X272528Y31336D01*
X272422Y31296D01*
X272315Y31259D01*
X272207Y31226D01*
X272097Y31196D01*
X271987Y31171D01*
X271876Y31149D01*
X271764Y31132D01*
X271651Y31118D01*
X271538Y31108D01*
X271425Y31102D01*
X271312Y31100D01*
X271312Y31101D02*
X268066Y31101D01*
D12*
X30000Y88226D02*
X28025Y92968D01*
X31976Y92968D02*
X30000Y88226D01*
X30000Y95999D02*
X30000Y100740D01*
X30000Y103771D02*
X30000Y108512D01*
X32766Y115338D02*
X25654Y115338D01*
X32766Y115338D02*
X32766Y117313D01*
X32764Y117379D01*
X32759Y117446D01*
X32749Y117511D01*
X32736Y117577D01*
X32720Y117641D01*
X32700Y117704D01*
X32676Y117766D01*
X32649Y117827D01*
X32618Y117886D01*
X32584Y117943D01*
X32547Y117999D01*
X32507Y118052D01*
X32465Y118103D01*
X32419Y118151D01*
X32371Y118197D01*
X32320Y118239D01*
X32267Y118279D01*
X32211Y118316D01*
X32154Y118350D01*
X32095Y118381D01*
X32034Y118408D01*
X31972Y118432D01*
X31909Y118452D01*
X31845Y118468D01*
X31779Y118481D01*
X31714Y118491D01*
X31647Y118496D01*
X31581Y118498D01*
X31581Y118499D02*
X29210Y118499D01*
X29210Y118498D02*
X29144Y118496D01*
X29077Y118491D01*
X29012Y118481D01*
X28946Y118468D01*
X28882Y118452D01*
X28819Y118432D01*
X28757Y118408D01*
X28696Y118381D01*
X28637Y118350D01*
X28580Y118316D01*
X28524Y118279D01*
X28471Y118239D01*
X28420Y118197D01*
X28372Y118151D01*
X28326Y118103D01*
X28284Y118052D01*
X28244Y117999D01*
X28207Y117943D01*
X28173Y117886D01*
X28142Y117827D01*
X28115Y117766D01*
X28091Y117704D01*
X28071Y117641D01*
X28055Y117577D01*
X28042Y117511D01*
X28032Y117446D01*
X28027Y117379D01*
X28025Y117313D01*
X28025Y115338D01*
X30000Y122599D02*
X30000Y124377D01*
X30000Y122599D02*
X30002Y122525D01*
X30008Y122452D01*
X30018Y122379D01*
X30031Y122307D01*
X30049Y122235D01*
X30070Y122165D01*
X30095Y122095D01*
X30124Y122028D01*
X30156Y121961D01*
X30191Y121897D01*
X30231Y121834D01*
X30273Y121774D01*
X30318Y121716D01*
X30367Y121661D01*
X30418Y121608D01*
X30472Y121558D01*
X30529Y121511D01*
X30588Y121467D01*
X30649Y121427D01*
X30713Y121389D01*
X30778Y121355D01*
X30845Y121325D01*
X30914Y121298D01*
X30984Y121275D01*
X31055Y121256D01*
X31127Y121240D01*
X31199Y121228D01*
X31273Y121220D01*
X31346Y121216D01*
X31420Y121216D01*
X31493Y121220D01*
X31567Y121228D01*
X31639Y121240D01*
X31711Y121256D01*
X31782Y121275D01*
X31852Y121298D01*
X31921Y121325D01*
X31988Y121355D01*
X32053Y121389D01*
X32117Y121427D01*
X32178Y121467D01*
X32237Y121511D01*
X32294Y121558D01*
X32348Y121608D01*
X32399Y121661D01*
X32448Y121716D01*
X32493Y121774D01*
X32535Y121834D01*
X32575Y121897D01*
X32610Y121961D01*
X32642Y122028D01*
X32671Y122095D01*
X32696Y122165D01*
X32717Y122235D01*
X32735Y122307D01*
X32748Y122379D01*
X32758Y122452D01*
X32764Y122525D01*
X32766Y122599D01*
X32766Y124377D01*
X29210Y124377D01*
X29144Y124375D01*
X29077Y124370D01*
X29012Y124360D01*
X28946Y124347D01*
X28882Y124331D01*
X28819Y124311D01*
X28757Y124287D01*
X28696Y124260D01*
X28637Y124229D01*
X28580Y124195D01*
X28524Y124158D01*
X28471Y124118D01*
X28420Y124076D01*
X28372Y124030D01*
X28326Y123982D01*
X28284Y123931D01*
X28244Y123878D01*
X28207Y123822D01*
X28173Y123765D01*
X28142Y123706D01*
X28115Y123645D01*
X28091Y123583D01*
X28071Y123520D01*
X28055Y123456D01*
X28042Y123390D01*
X28032Y123325D01*
X28027Y123258D01*
X28025Y123192D01*
X28025Y121612D01*
X32766Y128614D02*
X32766Y130194D01*
X32766Y128614D02*
X32764Y128548D01*
X32759Y128481D01*
X32749Y128416D01*
X32736Y128350D01*
X32720Y128286D01*
X32700Y128223D01*
X32676Y128161D01*
X32649Y128100D01*
X32618Y128041D01*
X32584Y127984D01*
X32547Y127928D01*
X32507Y127875D01*
X32465Y127824D01*
X32419Y127776D01*
X32371Y127730D01*
X32320Y127688D01*
X32267Y127648D01*
X32211Y127611D01*
X32154Y127577D01*
X32095Y127546D01*
X32034Y127519D01*
X31972Y127495D01*
X31909Y127475D01*
X31845Y127459D01*
X31779Y127446D01*
X31714Y127436D01*
X31647Y127431D01*
X31581Y127429D01*
X31581Y127428D02*
X29210Y127428D01*
X29210Y127429D02*
X29144Y127431D01*
X29077Y127436D01*
X29012Y127446D01*
X28946Y127459D01*
X28882Y127475D01*
X28819Y127495D01*
X28757Y127519D01*
X28696Y127546D01*
X28637Y127577D01*
X28580Y127611D01*
X28524Y127648D01*
X28471Y127688D01*
X28420Y127730D01*
X28372Y127776D01*
X28326Y127824D01*
X28284Y127875D01*
X28244Y127928D01*
X28207Y127984D01*
X28173Y128041D01*
X28142Y128100D01*
X28115Y128161D01*
X28091Y128223D01*
X28071Y128286D01*
X28055Y128350D01*
X28042Y128416D01*
X28032Y128481D01*
X28027Y128548D01*
X28025Y128614D01*
X28025Y130194D01*
X25654Y132982D02*
X32766Y132982D01*
X30395Y132982D02*
X28025Y136143D01*
X29408Y134365D02*
X32766Y136143D01*
X31581Y138851D02*
X28025Y138851D01*
X31581Y138851D02*
X31647Y138853D01*
X31714Y138858D01*
X31779Y138868D01*
X31845Y138881D01*
X31909Y138897D01*
X31972Y138917D01*
X32034Y138941D01*
X32095Y138968D01*
X32154Y138999D01*
X32211Y139033D01*
X32267Y139070D01*
X32320Y139110D01*
X32371Y139152D01*
X32419Y139198D01*
X32465Y139246D01*
X32507Y139297D01*
X32547Y139350D01*
X32584Y139406D01*
X32618Y139463D01*
X32649Y139522D01*
X32676Y139583D01*
X32700Y139645D01*
X32720Y139708D01*
X32736Y139772D01*
X32749Y139838D01*
X32759Y139903D01*
X32764Y139970D01*
X32766Y140036D01*
X32766Y142012D01*
X28025Y142012D01*
X28025Y145284D02*
X35137Y145284D01*
X28025Y145284D02*
X28025Y147260D01*
X28027Y147326D01*
X28032Y147393D01*
X28042Y147458D01*
X28055Y147524D01*
X28071Y147588D01*
X28091Y147651D01*
X28115Y147713D01*
X28142Y147774D01*
X28173Y147833D01*
X28207Y147890D01*
X28244Y147946D01*
X28284Y147999D01*
X28326Y148050D01*
X28372Y148098D01*
X28420Y148144D01*
X28471Y148186D01*
X28524Y148226D01*
X28580Y148263D01*
X28637Y148297D01*
X28696Y148328D01*
X28756Y148355D01*
X28819Y148378D01*
X28882Y148399D01*
X28946Y148415D01*
X29011Y148428D01*
X29077Y148438D01*
X29144Y148443D01*
X29210Y148445D01*
X31581Y148445D01*
X31647Y148443D01*
X31714Y148438D01*
X31779Y148428D01*
X31845Y148415D01*
X31909Y148399D01*
X31972Y148379D01*
X32034Y148355D01*
X32095Y148328D01*
X32154Y148297D01*
X32211Y148263D01*
X32267Y148226D01*
X32320Y148186D01*
X32371Y148144D01*
X32419Y148098D01*
X32465Y148050D01*
X32507Y147999D01*
X32547Y147946D01*
X32584Y147890D01*
X32618Y147833D01*
X32649Y147774D01*
X32676Y147713D01*
X32700Y147651D01*
X32720Y147588D01*
X32736Y147524D01*
X32749Y147458D01*
X32759Y147393D01*
X32764Y147326D01*
X32766Y147260D01*
X32766Y145284D01*
X28815Y155237D02*
X28815Y157212D01*
X28814Y157212D02*
X28816Y157299D01*
X28822Y157387D01*
X28831Y157474D01*
X28845Y157560D01*
X28862Y157646D01*
X28883Y157730D01*
X28908Y157814D01*
X28937Y157897D01*
X28969Y157978D01*
X29004Y158058D01*
X29043Y158136D01*
X29086Y158213D01*
X29132Y158287D01*
X29181Y158359D01*
X29233Y158429D01*
X29289Y158497D01*
X29347Y158562D01*
X29408Y158625D01*
X29472Y158684D01*
X29539Y158741D01*
X29607Y158795D01*
X29679Y158846D01*
X29752Y158893D01*
X29827Y158938D01*
X29905Y158979D01*
X29984Y159016D01*
X30064Y159050D01*
X30146Y159080D01*
X30229Y159107D01*
X30314Y159130D01*
X30399Y159149D01*
X30485Y159164D01*
X30572Y159176D01*
X30659Y159184D01*
X30746Y159188D01*
X30834Y159188D01*
X30921Y159184D01*
X31008Y159176D01*
X31095Y159164D01*
X31181Y159149D01*
X31266Y159130D01*
X31351Y159107D01*
X31434Y159080D01*
X31516Y159050D01*
X31596Y159016D01*
X31675Y158979D01*
X31753Y158938D01*
X31828Y158893D01*
X31901Y158846D01*
X31973Y158795D01*
X32041Y158741D01*
X32108Y158684D01*
X32172Y158625D01*
X32233Y158562D01*
X32291Y158497D01*
X32347Y158429D01*
X32399Y158359D01*
X32448Y158287D01*
X32494Y158213D01*
X32537Y158136D01*
X32576Y158058D01*
X32611Y157978D01*
X32643Y157897D01*
X32672Y157814D01*
X32697Y157730D01*
X32718Y157646D01*
X32735Y157560D01*
X32749Y157474D01*
X32758Y157387D01*
X32764Y157299D01*
X32766Y157212D01*
X32766Y155237D01*
X25654Y155237D01*
X25654Y157212D01*
X25656Y157291D01*
X25662Y157369D01*
X25672Y157447D01*
X25685Y157525D01*
X25703Y157602D01*
X25724Y157678D01*
X25749Y157752D01*
X25778Y157826D01*
X25810Y157898D01*
X25846Y157968D01*
X25886Y158036D01*
X25929Y158102D01*
X25975Y158166D01*
X26024Y158228D01*
X26076Y158287D01*
X26131Y158343D01*
X26189Y158397D01*
X26249Y158447D01*
X26312Y158495D01*
X26377Y158539D01*
X26444Y158580D01*
X26513Y158618D01*
X26584Y158652D01*
X26657Y158683D01*
X26731Y158710D01*
X26806Y158733D01*
X26882Y158752D01*
X26960Y158768D01*
X27038Y158780D01*
X27116Y158788D01*
X27195Y158792D01*
X27273Y158792D01*
X27352Y158788D01*
X27430Y158780D01*
X27508Y158768D01*
X27586Y158752D01*
X27662Y158733D01*
X27737Y158710D01*
X27811Y158683D01*
X27884Y158652D01*
X27955Y158618D01*
X28024Y158580D01*
X28091Y158539D01*
X28156Y158495D01*
X28219Y158447D01*
X28279Y158397D01*
X28337Y158343D01*
X28392Y158287D01*
X28444Y158228D01*
X28493Y158166D01*
X28539Y158102D01*
X28582Y158036D01*
X28622Y157968D01*
X28658Y157898D01*
X28690Y157826D01*
X28719Y157752D01*
X28744Y157678D01*
X28765Y157602D01*
X28783Y157525D01*
X28796Y157447D01*
X28806Y157369D01*
X28812Y157291D01*
X28814Y157212D01*
X30000Y163061D02*
X30000Y164839D01*
X30000Y163061D02*
X30002Y162987D01*
X30008Y162914D01*
X30018Y162841D01*
X30031Y162769D01*
X30049Y162697D01*
X30070Y162627D01*
X30095Y162557D01*
X30124Y162490D01*
X30156Y162423D01*
X30191Y162359D01*
X30231Y162296D01*
X30273Y162236D01*
X30318Y162178D01*
X30367Y162123D01*
X30418Y162070D01*
X30472Y162020D01*
X30529Y161973D01*
X30588Y161929D01*
X30649Y161889D01*
X30713Y161851D01*
X30778Y161817D01*
X30845Y161787D01*
X30914Y161760D01*
X30984Y161737D01*
X31055Y161718D01*
X31127Y161702D01*
X31199Y161690D01*
X31273Y161682D01*
X31346Y161678D01*
X31420Y161678D01*
X31493Y161682D01*
X31567Y161690D01*
X31639Y161702D01*
X31711Y161718D01*
X31782Y161737D01*
X31852Y161760D01*
X31921Y161787D01*
X31988Y161817D01*
X32053Y161851D01*
X32117Y161889D01*
X32178Y161929D01*
X32237Y161973D01*
X32294Y162020D01*
X32348Y162070D01*
X32399Y162123D01*
X32448Y162178D01*
X32493Y162236D01*
X32535Y162296D01*
X32575Y162359D01*
X32610Y162423D01*
X32642Y162490D01*
X32671Y162557D01*
X32696Y162627D01*
X32717Y162697D01*
X32735Y162769D01*
X32748Y162841D01*
X32758Y162914D01*
X32764Y162987D01*
X32766Y163061D01*
X32766Y164839D01*
X29210Y164839D01*
X29144Y164837D01*
X29077Y164832D01*
X29012Y164822D01*
X28946Y164809D01*
X28882Y164793D01*
X28819Y164773D01*
X28757Y164749D01*
X28696Y164722D01*
X28637Y164691D01*
X28580Y164657D01*
X28524Y164620D01*
X28471Y164580D01*
X28420Y164538D01*
X28372Y164492D01*
X28326Y164444D01*
X28284Y164393D01*
X28244Y164340D01*
X28207Y164284D01*
X28173Y164227D01*
X28142Y164168D01*
X28115Y164107D01*
X28091Y164045D01*
X28071Y163982D01*
X28055Y163918D01*
X28042Y163852D01*
X28032Y163787D01*
X28027Y163720D01*
X28025Y163654D01*
X28025Y162073D01*
X28025Y167313D02*
X28025Y169683D01*
X25654Y168103D02*
X31581Y168103D01*
X31647Y168105D01*
X31714Y168110D01*
X31779Y168120D01*
X31845Y168133D01*
X31909Y168149D01*
X31972Y168169D01*
X32034Y168193D01*
X32095Y168220D01*
X32154Y168251D01*
X32211Y168285D01*
X32267Y168322D01*
X32320Y168362D01*
X32371Y168404D01*
X32419Y168450D01*
X32465Y168498D01*
X32507Y168549D01*
X32547Y168602D01*
X32584Y168658D01*
X32618Y168715D01*
X32649Y168774D01*
X32676Y168835D01*
X32700Y168897D01*
X32720Y168960D01*
X32736Y169024D01*
X32749Y169090D01*
X32759Y169155D01*
X32764Y169222D01*
X32766Y169288D01*
X32766Y169683D01*
X28025Y171656D02*
X28025Y174027D01*
X25654Y172446D02*
X31581Y172446D01*
X31581Y172447D02*
X31647Y172449D01*
X31714Y172454D01*
X31779Y172464D01*
X31845Y172477D01*
X31909Y172493D01*
X31972Y172513D01*
X32034Y172537D01*
X32095Y172564D01*
X32154Y172595D01*
X32211Y172629D01*
X32267Y172666D01*
X32320Y172706D01*
X32371Y172748D01*
X32419Y172794D01*
X32465Y172842D01*
X32507Y172893D01*
X32547Y172946D01*
X32584Y173002D01*
X32618Y173059D01*
X32649Y173118D01*
X32676Y173179D01*
X32700Y173241D01*
X32720Y173304D01*
X32736Y173368D01*
X32749Y173434D01*
X32759Y173499D01*
X32764Y173566D01*
X32766Y173632D01*
X32766Y174027D01*
X32766Y177755D02*
X32766Y179730D01*
X32766Y177755D02*
X32764Y177689D01*
X32759Y177622D01*
X32749Y177557D01*
X32736Y177491D01*
X32720Y177427D01*
X32700Y177364D01*
X32676Y177302D01*
X32649Y177241D01*
X32618Y177182D01*
X32584Y177125D01*
X32547Y177069D01*
X32507Y177016D01*
X32465Y176965D01*
X32419Y176917D01*
X32371Y176871D01*
X32320Y176829D01*
X32267Y176789D01*
X32211Y176752D01*
X32154Y176718D01*
X32095Y176687D01*
X32034Y176660D01*
X31972Y176636D01*
X31909Y176616D01*
X31845Y176600D01*
X31779Y176587D01*
X31714Y176577D01*
X31647Y176572D01*
X31581Y176570D01*
X29605Y176570D01*
X29526Y176572D01*
X29448Y176578D01*
X29370Y176588D01*
X29292Y176601D01*
X29215Y176619D01*
X29139Y176640D01*
X29065Y176665D01*
X28991Y176694D01*
X28919Y176726D01*
X28849Y176762D01*
X28781Y176802D01*
X28715Y176845D01*
X28651Y176891D01*
X28589Y176940D01*
X28530Y176992D01*
X28474Y177047D01*
X28420Y177105D01*
X28370Y177165D01*
X28322Y177228D01*
X28278Y177293D01*
X28237Y177360D01*
X28199Y177429D01*
X28165Y177500D01*
X28134Y177573D01*
X28107Y177647D01*
X28084Y177722D01*
X28065Y177798D01*
X28049Y177876D01*
X28037Y177954D01*
X28029Y178032D01*
X28025Y178111D01*
X28025Y178189D01*
X28029Y178268D01*
X28037Y178346D01*
X28049Y178424D01*
X28065Y178502D01*
X28084Y178578D01*
X28107Y178653D01*
X28134Y178727D01*
X28165Y178800D01*
X28199Y178871D01*
X28237Y178940D01*
X28278Y179007D01*
X28322Y179072D01*
X28370Y179135D01*
X28420Y179195D01*
X28474Y179253D01*
X28530Y179308D01*
X28589Y179360D01*
X28651Y179409D01*
X28715Y179455D01*
X28781Y179498D01*
X28849Y179538D01*
X28919Y179574D01*
X28991Y179606D01*
X29065Y179635D01*
X29139Y179660D01*
X29215Y179681D01*
X29292Y179699D01*
X29370Y179712D01*
X29448Y179722D01*
X29526Y179728D01*
X29605Y179730D01*
X30395Y179730D01*
X30395Y176570D01*
X32766Y182778D02*
X28025Y182778D01*
X28025Y185149D01*
X28815Y185149D01*
X35137Y187085D02*
X35137Y187875D01*
X28025Y190246D01*
X28025Y187085D02*
X32766Y188666D01*
X32004Y19304D02*
X33556Y19304D01*
X33633Y19306D01*
X33711Y19312D01*
X33787Y19321D01*
X33864Y19335D01*
X33939Y19352D01*
X34013Y19373D01*
X34087Y19398D01*
X34159Y19426D01*
X34229Y19458D01*
X34298Y19493D01*
X34365Y19532D01*
X34430Y19574D01*
X34493Y19619D01*
X34554Y19667D01*
X34612Y19718D01*
X34667Y19772D01*
X34720Y19829D01*
X34769Y19888D01*
X34816Y19950D01*
X34860Y20014D01*
X34900Y20080D01*
X34937Y20148D01*
X34971Y20218D01*
X35001Y20289D01*
X35027Y20362D01*
X35050Y20436D01*
X35069Y20511D01*
X35084Y20586D01*
X35096Y20663D01*
X35104Y20740D01*
X35108Y20817D01*
X35108Y20895D01*
X35104Y20972D01*
X35096Y21049D01*
X35084Y21126D01*
X35069Y21201D01*
X35050Y21276D01*
X35027Y21350D01*
X35001Y21423D01*
X34971Y21494D01*
X34937Y21564D01*
X34900Y21632D01*
X34860Y21698D01*
X34816Y21762D01*
X34769Y21824D01*
X34720Y21883D01*
X34667Y21940D01*
X34612Y21994D01*
X34554Y22045D01*
X34493Y22093D01*
X34430Y22138D01*
X34365Y22180D01*
X34298Y22219D01*
X34229Y22254D01*
X34159Y22286D01*
X34087Y22314D01*
X34013Y22339D01*
X33939Y22360D01*
X33864Y22377D01*
X33787Y22391D01*
X33711Y22400D01*
X33633Y22406D01*
X33556Y22408D01*
X33867Y24892D02*
X32004Y24892D01*
X33867Y24892D02*
X33937Y24890D01*
X34006Y24884D01*
X34075Y24874D01*
X34143Y24861D01*
X34211Y24843D01*
X34277Y24822D01*
X34342Y24797D01*
X34406Y24769D01*
X34468Y24737D01*
X34528Y24702D01*
X34586Y24663D01*
X34641Y24621D01*
X34695Y24576D01*
X34745Y24528D01*
X34793Y24478D01*
X34838Y24424D01*
X34880Y24369D01*
X34919Y24311D01*
X34954Y24251D01*
X34986Y24189D01*
X35014Y24125D01*
X35039Y24060D01*
X35060Y23994D01*
X35078Y23926D01*
X35091Y23858D01*
X35101Y23789D01*
X35107Y23720D01*
X35109Y23650D01*
X35107Y23580D01*
X35101Y23511D01*
X35091Y23442D01*
X35078Y23374D01*
X35060Y23306D01*
X35039Y23240D01*
X35014Y23175D01*
X34986Y23111D01*
X34954Y23049D01*
X34919Y22989D01*
X34880Y22931D01*
X34838Y22876D01*
X34793Y22822D01*
X34745Y22772D01*
X34695Y22724D01*
X34641Y22679D01*
X34586Y22637D01*
X34528Y22598D01*
X34468Y22563D01*
X34406Y22531D01*
X34342Y22503D01*
X34277Y22478D01*
X34211Y22457D01*
X34143Y22439D01*
X34075Y22426D01*
X34006Y22416D01*
X33937Y22410D01*
X33867Y22408D01*
X32625Y22408D01*
X37180Y24892D02*
X39043Y19304D01*
X40905Y24892D01*
X46097Y24892D02*
X46097Y19304D01*
X48580Y19304D01*
X50564Y19304D02*
X50564Y23029D01*
X50409Y24582D02*
X50409Y24892D01*
X50719Y24892D01*
X50719Y24582D01*
X50409Y24582D01*
X52330Y23029D02*
X54193Y23029D01*
X52951Y24892D02*
X52951Y20235D01*
X52952Y20235D02*
X52954Y20177D01*
X52959Y20118D01*
X52968Y20061D01*
X52981Y20003D01*
X52998Y19947D01*
X53017Y19892D01*
X53041Y19839D01*
X53067Y19786D01*
X53097Y19736D01*
X53130Y19688D01*
X53166Y19642D01*
X53204Y19598D01*
X53246Y19556D01*
X53290Y19518D01*
X53336Y19482D01*
X53384Y19449D01*
X53435Y19419D01*
X53487Y19393D01*
X53540Y19369D01*
X53595Y19350D01*
X53651Y19333D01*
X53709Y19320D01*
X53766Y19311D01*
X53825Y19306D01*
X53883Y19304D01*
X54193Y19304D01*
X56454Y19304D02*
X56454Y24892D01*
X56454Y23029D02*
X58007Y23029D01*
X58065Y23027D01*
X58124Y23022D01*
X58181Y23013D01*
X58239Y23000D01*
X58295Y22983D01*
X58350Y22964D01*
X58403Y22940D01*
X58456Y22914D01*
X58506Y22884D01*
X58554Y22851D01*
X58600Y22815D01*
X58644Y22777D01*
X58686Y22735D01*
X58724Y22691D01*
X58760Y22645D01*
X58793Y22597D01*
X58823Y22547D01*
X58849Y22494D01*
X58873Y22441D01*
X58892Y22386D01*
X58909Y22330D01*
X58922Y22272D01*
X58931Y22215D01*
X58936Y22156D01*
X58938Y22098D01*
X58938Y19304D01*
X61354Y19304D02*
X61354Y23029D01*
X61198Y24582D02*
X61198Y24892D01*
X61509Y24892D01*
X61509Y24582D01*
X61198Y24582D01*
X63769Y23029D02*
X63769Y20235D01*
X63770Y20235D02*
X63772Y20177D01*
X63777Y20118D01*
X63786Y20061D01*
X63799Y20003D01*
X63816Y19947D01*
X63835Y19892D01*
X63859Y19839D01*
X63885Y19786D01*
X63915Y19736D01*
X63948Y19688D01*
X63984Y19642D01*
X64022Y19598D01*
X64064Y19556D01*
X64108Y19518D01*
X64154Y19482D01*
X64202Y19449D01*
X64252Y19419D01*
X64305Y19393D01*
X64358Y19369D01*
X64413Y19350D01*
X64469Y19333D01*
X64527Y19320D01*
X64584Y19311D01*
X64643Y19306D01*
X64701Y19304D01*
X66253Y19304D01*
X66253Y23029D01*
X69001Y23029D02*
X69001Y19304D01*
X69001Y23029D02*
X71795Y23029D01*
X71853Y23027D01*
X71912Y23022D01*
X71969Y23013D01*
X72027Y23000D01*
X72083Y22983D01*
X72138Y22964D01*
X72191Y22940D01*
X72244Y22914D01*
X72294Y22884D01*
X72342Y22851D01*
X72388Y22815D01*
X72432Y22777D01*
X72474Y22735D01*
X72512Y22691D01*
X72548Y22645D01*
X72581Y22597D01*
X72611Y22547D01*
X72637Y22494D01*
X72661Y22441D01*
X72680Y22386D01*
X72697Y22330D01*
X72710Y22272D01*
X72719Y22215D01*
X72724Y22156D01*
X72726Y22098D01*
X72726Y19304D01*
X70863Y19304D02*
X70863Y23029D01*
X79498Y19304D02*
X80739Y19304D01*
X79498Y19304D02*
X79428Y19306D01*
X79359Y19312D01*
X79290Y19322D01*
X79222Y19335D01*
X79154Y19353D01*
X79088Y19374D01*
X79023Y19399D01*
X78959Y19427D01*
X78897Y19459D01*
X78837Y19494D01*
X78779Y19533D01*
X78724Y19575D01*
X78670Y19620D01*
X78620Y19668D01*
X78572Y19718D01*
X78527Y19772D01*
X78485Y19827D01*
X78446Y19885D01*
X78411Y19945D01*
X78379Y20007D01*
X78351Y20071D01*
X78326Y20136D01*
X78305Y20202D01*
X78287Y20270D01*
X78274Y20338D01*
X78264Y20407D01*
X78258Y20476D01*
X78256Y20546D01*
X78256Y23650D01*
X78258Y23720D01*
X78264Y23789D01*
X78274Y23858D01*
X78287Y23926D01*
X78305Y23994D01*
X78326Y24060D01*
X78351Y24125D01*
X78379Y24189D01*
X78411Y24251D01*
X78446Y24311D01*
X78485Y24369D01*
X78527Y24424D01*
X78572Y24478D01*
X78620Y24528D01*
X78670Y24576D01*
X78724Y24621D01*
X78779Y24663D01*
X78837Y24702D01*
X78897Y24737D01*
X78959Y24769D01*
X79023Y24797D01*
X79088Y24822D01*
X79154Y24843D01*
X79222Y24861D01*
X79290Y24874D01*
X79359Y24884D01*
X79428Y24890D01*
X79498Y24892D01*
X80739Y24892D01*
X83063Y24892D02*
X83063Y19304D01*
X83063Y24892D02*
X84615Y24892D01*
X84692Y24890D01*
X84770Y24884D01*
X84846Y24875D01*
X84923Y24861D01*
X84998Y24844D01*
X85072Y24823D01*
X85146Y24798D01*
X85218Y24770D01*
X85288Y24738D01*
X85357Y24703D01*
X85424Y24664D01*
X85489Y24622D01*
X85552Y24577D01*
X85613Y24529D01*
X85671Y24478D01*
X85726Y24424D01*
X85779Y24367D01*
X85828Y24308D01*
X85875Y24246D01*
X85919Y24182D01*
X85959Y24116D01*
X85996Y24048D01*
X86030Y23978D01*
X86060Y23907D01*
X86086Y23834D01*
X86109Y23760D01*
X86128Y23685D01*
X86143Y23610D01*
X86155Y23533D01*
X86163Y23456D01*
X86167Y23379D01*
X86167Y23301D01*
X86163Y23224D01*
X86155Y23147D01*
X86143Y23070D01*
X86128Y22995D01*
X86109Y22920D01*
X86086Y22846D01*
X86060Y22773D01*
X86030Y22702D01*
X85996Y22632D01*
X85959Y22564D01*
X85919Y22498D01*
X85875Y22434D01*
X85828Y22372D01*
X85779Y22313D01*
X85726Y22256D01*
X85671Y22202D01*
X85613Y22151D01*
X85552Y22103D01*
X85489Y22058D01*
X85424Y22016D01*
X85357Y21977D01*
X85288Y21942D01*
X85218Y21910D01*
X85146Y21882D01*
X85072Y21857D01*
X84998Y21836D01*
X84923Y21819D01*
X84846Y21805D01*
X84770Y21796D01*
X84692Y21790D01*
X84615Y21788D01*
X83063Y21788D01*
X84926Y21788D02*
X86168Y19304D01*
X88513Y23650D02*
X90066Y24892D01*
X90066Y19304D01*
X91618Y19304D02*
X88513Y19304D01*
X95707Y24892D02*
X95780Y24890D01*
X95853Y24884D01*
X95926Y24875D01*
X95997Y24861D01*
X96069Y24844D01*
X96139Y24824D01*
X96208Y24799D01*
X96275Y24771D01*
X96341Y24740D01*
X96406Y24705D01*
X96468Y24667D01*
X96528Y24625D01*
X96586Y24581D01*
X96642Y24533D01*
X96695Y24483D01*
X96745Y24430D01*
X96793Y24374D01*
X96837Y24316D01*
X96879Y24256D01*
X96917Y24194D01*
X96952Y24129D01*
X96983Y24063D01*
X97011Y23996D01*
X97036Y23927D01*
X97056Y23857D01*
X97073Y23785D01*
X97087Y23714D01*
X97096Y23641D01*
X97102Y23568D01*
X97104Y23495D01*
X95707Y24892D02*
X95623Y24890D01*
X95540Y24884D01*
X95457Y24875D01*
X95375Y24861D01*
X95293Y24844D01*
X95212Y24822D01*
X95132Y24797D01*
X95054Y24769D01*
X94976Y24737D01*
X94901Y24701D01*
X94827Y24662D01*
X94755Y24619D01*
X94685Y24573D01*
X94618Y24524D01*
X94552Y24471D01*
X94490Y24416D01*
X94430Y24358D01*
X94372Y24297D01*
X94318Y24234D01*
X94266Y24168D01*
X94218Y24100D01*
X94173Y24029D01*
X94131Y23957D01*
X94093Y23882D01*
X94058Y23806D01*
X94027Y23729D01*
X93999Y23650D01*
X96638Y22409D02*
X96692Y22462D01*
X96743Y22519D01*
X96791Y22578D01*
X96836Y22639D01*
X96877Y22702D01*
X96916Y22768D01*
X96951Y22835D01*
X96983Y22904D01*
X97011Y22975D01*
X97035Y23046D01*
X97056Y23119D01*
X97073Y23193D01*
X97087Y23268D01*
X97096Y23343D01*
X97102Y23419D01*
X97104Y23495D01*
X96639Y22408D02*
X94000Y19304D01*
X97104Y19304D01*
X99486Y19304D02*
X101038Y19304D01*
X101115Y19306D01*
X101193Y19312D01*
X101269Y19321D01*
X101346Y19335D01*
X101421Y19352D01*
X101495Y19373D01*
X101569Y19398D01*
X101641Y19426D01*
X101711Y19458D01*
X101780Y19493D01*
X101847Y19532D01*
X101912Y19574D01*
X101975Y19619D01*
X102036Y19667D01*
X102094Y19718D01*
X102149Y19772D01*
X102202Y19829D01*
X102251Y19888D01*
X102298Y19950D01*
X102342Y20014D01*
X102382Y20080D01*
X102419Y20148D01*
X102453Y20218D01*
X102483Y20289D01*
X102509Y20362D01*
X102532Y20436D01*
X102551Y20511D01*
X102566Y20586D01*
X102578Y20663D01*
X102586Y20740D01*
X102590Y20817D01*
X102590Y20895D01*
X102586Y20972D01*
X102578Y21049D01*
X102566Y21126D01*
X102551Y21201D01*
X102532Y21276D01*
X102509Y21350D01*
X102483Y21423D01*
X102453Y21494D01*
X102419Y21564D01*
X102382Y21632D01*
X102342Y21698D01*
X102298Y21762D01*
X102251Y21824D01*
X102202Y21883D01*
X102149Y21940D01*
X102094Y21994D01*
X102036Y22045D01*
X101975Y22093D01*
X101912Y22138D01*
X101847Y22180D01*
X101780Y22219D01*
X101711Y22254D01*
X101641Y22286D01*
X101569Y22314D01*
X101495Y22339D01*
X101421Y22360D01*
X101346Y22377D01*
X101269Y22391D01*
X101193Y22400D01*
X101115Y22406D01*
X101038Y22408D01*
X101349Y24892D02*
X99486Y24892D01*
X101349Y24892D02*
X101419Y24890D01*
X101488Y24884D01*
X101557Y24874D01*
X101625Y24861D01*
X101693Y24843D01*
X101759Y24822D01*
X101824Y24797D01*
X101888Y24769D01*
X101950Y24737D01*
X102010Y24702D01*
X102068Y24663D01*
X102123Y24621D01*
X102177Y24576D01*
X102227Y24528D01*
X102275Y24478D01*
X102320Y24424D01*
X102362Y24369D01*
X102401Y24311D01*
X102436Y24251D01*
X102468Y24189D01*
X102496Y24125D01*
X102521Y24060D01*
X102542Y23994D01*
X102560Y23926D01*
X102573Y23858D01*
X102583Y23789D01*
X102589Y23720D01*
X102591Y23650D01*
X102589Y23580D01*
X102583Y23511D01*
X102573Y23442D01*
X102560Y23374D01*
X102542Y23306D01*
X102521Y23240D01*
X102496Y23175D01*
X102468Y23111D01*
X102436Y23049D01*
X102401Y22989D01*
X102362Y22931D01*
X102320Y22876D01*
X102275Y22822D01*
X102227Y22772D01*
X102177Y22724D01*
X102123Y22679D01*
X102068Y22637D01*
X102010Y22598D01*
X101950Y22563D01*
X101888Y22531D01*
X101824Y22503D01*
X101759Y22478D01*
X101693Y22457D01*
X101625Y22439D01*
X101557Y22426D01*
X101488Y22416D01*
X101419Y22410D01*
X101349Y22408D01*
X100107Y22408D01*
X105004Y22098D02*
X105006Y22241D01*
X105012Y22383D01*
X105021Y22525D01*
X105035Y22667D01*
X105052Y22809D01*
X105073Y22950D01*
X105097Y23090D01*
X105126Y23230D01*
X105158Y23369D01*
X105194Y23507D01*
X105234Y23644D01*
X105277Y23780D01*
X105324Y23915D01*
X105375Y24048D01*
X105429Y24180D01*
X105486Y24310D01*
X105547Y24439D01*
X105612Y24567D01*
X105680Y24692D01*
X105751Y24815D01*
X105826Y24937D01*
X105903Y25057D01*
X105984Y25174D01*
X106068Y25289D01*
X106156Y25402D01*
X106246Y25513D01*
X105004Y22098D02*
X105006Y21955D01*
X105012Y21813D01*
X105021Y21671D01*
X105035Y21529D01*
X105052Y21387D01*
X105073Y21246D01*
X105097Y21106D01*
X105126Y20966D01*
X105158Y20827D01*
X105194Y20689D01*
X105234Y20552D01*
X105277Y20416D01*
X105324Y20281D01*
X105375Y20148D01*
X105429Y20016D01*
X105486Y19886D01*
X105547Y19757D01*
X105612Y19629D01*
X105680Y19504D01*
X105751Y19381D01*
X105826Y19259D01*
X105903Y19139D01*
X105984Y19022D01*
X106068Y18907D01*
X106156Y18794D01*
X106246Y18683D01*
X108137Y19304D02*
X109999Y24892D01*
X111862Y19304D01*
X111396Y20701D02*
X108602Y20701D01*
X113753Y18683D02*
X113843Y18794D01*
X113931Y18907D01*
X114015Y19022D01*
X114096Y19139D01*
X114173Y19259D01*
X114248Y19381D01*
X114319Y19504D01*
X114387Y19629D01*
X114452Y19757D01*
X114513Y19886D01*
X114570Y20016D01*
X114624Y20148D01*
X114675Y20281D01*
X114722Y20416D01*
X114765Y20552D01*
X114805Y20689D01*
X114841Y20827D01*
X114873Y20966D01*
X114902Y21106D01*
X114926Y21246D01*
X114947Y21387D01*
X114964Y21529D01*
X114978Y21671D01*
X114987Y21813D01*
X114993Y21955D01*
X114995Y22098D01*
X114993Y22241D01*
X114987Y22383D01*
X114978Y22525D01*
X114964Y22667D01*
X114947Y22809D01*
X114926Y22950D01*
X114902Y23090D01*
X114873Y23230D01*
X114841Y23369D01*
X114805Y23507D01*
X114765Y23644D01*
X114722Y23780D01*
X114675Y23915D01*
X114624Y24048D01*
X114570Y24180D01*
X114513Y24310D01*
X114452Y24439D01*
X114387Y24567D01*
X114319Y24692D01*
X114248Y24815D01*
X114173Y24937D01*
X114096Y25057D01*
X114015Y25174D01*
X113931Y25289D01*
X113843Y25402D01*
X113753Y25513D01*
X122580Y25513D02*
X120096Y18683D01*
X128875Y19304D02*
X130117Y19304D01*
X128875Y19304D02*
X128805Y19306D01*
X128736Y19312D01*
X128667Y19322D01*
X128599Y19335D01*
X128531Y19353D01*
X128465Y19374D01*
X128400Y19399D01*
X128336Y19427D01*
X128274Y19459D01*
X128214Y19494D01*
X128156Y19533D01*
X128101Y19575D01*
X128047Y19620D01*
X127997Y19668D01*
X127949Y19718D01*
X127904Y19772D01*
X127862Y19827D01*
X127823Y19885D01*
X127788Y19945D01*
X127756Y20007D01*
X127728Y20071D01*
X127703Y20136D01*
X127682Y20202D01*
X127664Y20270D01*
X127651Y20338D01*
X127641Y20407D01*
X127635Y20476D01*
X127633Y20546D01*
X127633Y23650D01*
X127635Y23720D01*
X127641Y23789D01*
X127651Y23858D01*
X127664Y23926D01*
X127682Y23994D01*
X127703Y24060D01*
X127728Y24125D01*
X127756Y24189D01*
X127788Y24251D01*
X127823Y24311D01*
X127862Y24369D01*
X127904Y24424D01*
X127949Y24478D01*
X127997Y24528D01*
X128047Y24576D01*
X128101Y24621D01*
X128156Y24663D01*
X128214Y24702D01*
X128274Y24737D01*
X128336Y24769D01*
X128400Y24797D01*
X128465Y24822D01*
X128531Y24843D01*
X128599Y24861D01*
X128667Y24874D01*
X128736Y24884D01*
X128805Y24890D01*
X128875Y24892D01*
X130117Y24892D01*
X132440Y24892D02*
X132440Y19304D01*
X132440Y24892D02*
X133993Y24892D01*
X134070Y24890D01*
X134148Y24884D01*
X134224Y24875D01*
X134301Y24861D01*
X134376Y24844D01*
X134450Y24823D01*
X134524Y24798D01*
X134596Y24770D01*
X134666Y24738D01*
X134735Y24703D01*
X134802Y24664D01*
X134867Y24622D01*
X134930Y24577D01*
X134991Y24529D01*
X135049Y24478D01*
X135104Y24424D01*
X135157Y24367D01*
X135206Y24308D01*
X135253Y24246D01*
X135297Y24182D01*
X135337Y24116D01*
X135374Y24048D01*
X135408Y23978D01*
X135438Y23907D01*
X135464Y23834D01*
X135487Y23760D01*
X135506Y23685D01*
X135521Y23610D01*
X135533Y23533D01*
X135541Y23456D01*
X135545Y23379D01*
X135545Y23301D01*
X135541Y23224D01*
X135533Y23147D01*
X135521Y23070D01*
X135506Y22995D01*
X135487Y22920D01*
X135464Y22846D01*
X135438Y22773D01*
X135408Y22702D01*
X135374Y22632D01*
X135337Y22564D01*
X135297Y22498D01*
X135253Y22434D01*
X135206Y22372D01*
X135157Y22313D01*
X135104Y22256D01*
X135049Y22202D01*
X134991Y22151D01*
X134930Y22103D01*
X134867Y22058D01*
X134802Y22016D01*
X134735Y21977D01*
X134666Y21942D01*
X134596Y21910D01*
X134524Y21882D01*
X134450Y21857D01*
X134376Y21836D01*
X134301Y21819D01*
X134224Y21805D01*
X134148Y21796D01*
X134070Y21790D01*
X133993Y21788D01*
X132440Y21788D01*
X134303Y21788D02*
X135545Y19304D01*
X137891Y23650D02*
X139443Y24892D01*
X139443Y19304D01*
X137891Y19304D02*
X140995Y19304D01*
X143377Y24271D02*
X143377Y24892D01*
X146481Y24892D01*
X144929Y19304D01*
X148863Y19304D02*
X150416Y19304D01*
X150493Y19306D01*
X150571Y19312D01*
X150647Y19321D01*
X150724Y19335D01*
X150799Y19352D01*
X150873Y19373D01*
X150947Y19398D01*
X151019Y19426D01*
X151089Y19458D01*
X151158Y19493D01*
X151225Y19532D01*
X151290Y19574D01*
X151353Y19619D01*
X151414Y19667D01*
X151472Y19718D01*
X151527Y19772D01*
X151580Y19829D01*
X151629Y19888D01*
X151676Y19950D01*
X151720Y20014D01*
X151760Y20080D01*
X151797Y20148D01*
X151831Y20218D01*
X151861Y20289D01*
X151887Y20362D01*
X151910Y20436D01*
X151929Y20511D01*
X151944Y20586D01*
X151956Y20663D01*
X151964Y20740D01*
X151968Y20817D01*
X151968Y20895D01*
X151964Y20972D01*
X151956Y21049D01*
X151944Y21126D01*
X151929Y21201D01*
X151910Y21276D01*
X151887Y21350D01*
X151861Y21423D01*
X151831Y21494D01*
X151797Y21564D01*
X151760Y21632D01*
X151720Y21698D01*
X151676Y21762D01*
X151629Y21824D01*
X151580Y21883D01*
X151527Y21940D01*
X151472Y21994D01*
X151414Y22045D01*
X151353Y22093D01*
X151290Y22138D01*
X151225Y22180D01*
X151158Y22219D01*
X151089Y22254D01*
X151019Y22286D01*
X150947Y22314D01*
X150873Y22339D01*
X150799Y22360D01*
X150724Y22377D01*
X150647Y22391D01*
X150571Y22400D01*
X150493Y22406D01*
X150416Y22408D01*
X150726Y24892D02*
X148863Y24892D01*
X150726Y24892D02*
X150796Y24890D01*
X150865Y24884D01*
X150934Y24874D01*
X151002Y24861D01*
X151070Y24843D01*
X151136Y24822D01*
X151201Y24797D01*
X151265Y24769D01*
X151327Y24737D01*
X151387Y24702D01*
X151445Y24663D01*
X151500Y24621D01*
X151554Y24576D01*
X151604Y24528D01*
X151652Y24478D01*
X151697Y24424D01*
X151739Y24369D01*
X151778Y24311D01*
X151813Y24251D01*
X151845Y24189D01*
X151873Y24125D01*
X151898Y24060D01*
X151919Y23994D01*
X151937Y23926D01*
X151950Y23858D01*
X151960Y23789D01*
X151966Y23720D01*
X151968Y23650D01*
X151966Y23580D01*
X151960Y23511D01*
X151950Y23442D01*
X151937Y23374D01*
X151919Y23306D01*
X151898Y23240D01*
X151873Y23175D01*
X151845Y23111D01*
X151813Y23049D01*
X151778Y22989D01*
X151739Y22931D01*
X151697Y22876D01*
X151652Y22822D01*
X151604Y22772D01*
X151554Y22724D01*
X151500Y22679D01*
X151445Y22637D01*
X151387Y22598D01*
X151327Y22563D01*
X151265Y22531D01*
X151201Y22503D01*
X151136Y22478D01*
X151070Y22457D01*
X151002Y22439D01*
X150934Y22426D01*
X150865Y22416D01*
X150796Y22410D01*
X150726Y22408D01*
X149484Y22408D01*
X154350Y20546D02*
X155591Y24892D01*
X154350Y20546D02*
X157454Y20546D01*
X156523Y21788D02*
X156523Y19304D01*
X159836Y19304D02*
X161699Y19304D01*
X161769Y19306D01*
X161838Y19312D01*
X161907Y19322D01*
X161975Y19335D01*
X162043Y19353D01*
X162109Y19374D01*
X162174Y19399D01*
X162238Y19427D01*
X162300Y19459D01*
X162360Y19494D01*
X162418Y19533D01*
X162473Y19575D01*
X162527Y19620D01*
X162577Y19668D01*
X162625Y19718D01*
X162670Y19772D01*
X162712Y19827D01*
X162751Y19885D01*
X162786Y19945D01*
X162818Y20007D01*
X162846Y20071D01*
X162871Y20136D01*
X162892Y20202D01*
X162910Y20270D01*
X162923Y20338D01*
X162933Y20407D01*
X162939Y20476D01*
X162941Y20546D01*
X162941Y21167D01*
X162939Y21237D01*
X162933Y21306D01*
X162923Y21375D01*
X162910Y21443D01*
X162892Y21511D01*
X162871Y21577D01*
X162846Y21642D01*
X162818Y21706D01*
X162786Y21768D01*
X162751Y21828D01*
X162712Y21886D01*
X162670Y21941D01*
X162625Y21995D01*
X162577Y22045D01*
X162527Y22093D01*
X162473Y22138D01*
X162418Y22180D01*
X162360Y22219D01*
X162300Y22254D01*
X162238Y22286D01*
X162174Y22314D01*
X162109Y22339D01*
X162043Y22360D01*
X161975Y22378D01*
X161907Y22391D01*
X161838Y22401D01*
X161769Y22407D01*
X161699Y22409D01*
X161699Y22408D02*
X159836Y22408D01*
X159836Y24892D01*
X162941Y24892D01*
X45466Y97754D02*
X38354Y97754D01*
X38354Y99729D01*
X38356Y99816D01*
X38362Y99904D01*
X38371Y99991D01*
X38385Y100077D01*
X38402Y100163D01*
X38423Y100247D01*
X38448Y100331D01*
X38477Y100414D01*
X38509Y100495D01*
X38544Y100575D01*
X38583Y100653D01*
X38626Y100730D01*
X38672Y100804D01*
X38721Y100876D01*
X38773Y100946D01*
X38829Y101014D01*
X38887Y101079D01*
X38948Y101142D01*
X39012Y101201D01*
X39079Y101258D01*
X39147Y101312D01*
X39219Y101363D01*
X39292Y101410D01*
X39367Y101455D01*
X39445Y101496D01*
X39524Y101533D01*
X39604Y101567D01*
X39686Y101597D01*
X39769Y101624D01*
X39854Y101647D01*
X39939Y101666D01*
X40025Y101681D01*
X40112Y101693D01*
X40199Y101701D01*
X40286Y101705D01*
X40374Y101705D01*
X40461Y101701D01*
X40548Y101693D01*
X40635Y101681D01*
X40721Y101666D01*
X40806Y101647D01*
X40891Y101624D01*
X40974Y101597D01*
X41056Y101567D01*
X41136Y101533D01*
X41215Y101496D01*
X41293Y101455D01*
X41368Y101410D01*
X41441Y101363D01*
X41513Y101312D01*
X41581Y101258D01*
X41648Y101201D01*
X41712Y101142D01*
X41773Y101079D01*
X41831Y101014D01*
X41887Y100946D01*
X41939Y100876D01*
X41988Y100804D01*
X42034Y100730D01*
X42077Y100653D01*
X42116Y100575D01*
X42151Y100495D01*
X42183Y100414D01*
X42212Y100331D01*
X42237Y100247D01*
X42258Y100163D01*
X42275Y100077D01*
X42289Y99991D01*
X42298Y99904D01*
X42304Y99816D01*
X42306Y99729D01*
X42305Y99729D02*
X42305Y97754D01*
X42305Y104228D02*
X43886Y104228D01*
X42305Y104228D02*
X42226Y104230D01*
X42148Y104236D01*
X42070Y104246D01*
X41992Y104259D01*
X41915Y104277D01*
X41839Y104298D01*
X41765Y104323D01*
X41691Y104352D01*
X41619Y104384D01*
X41549Y104420D01*
X41481Y104460D01*
X41415Y104503D01*
X41351Y104549D01*
X41289Y104598D01*
X41230Y104650D01*
X41174Y104705D01*
X41120Y104763D01*
X41070Y104823D01*
X41022Y104886D01*
X40978Y104951D01*
X40937Y105018D01*
X40899Y105087D01*
X40865Y105158D01*
X40834Y105231D01*
X40807Y105305D01*
X40784Y105380D01*
X40765Y105456D01*
X40749Y105534D01*
X40737Y105612D01*
X40729Y105690D01*
X40725Y105769D01*
X40725Y105847D01*
X40729Y105926D01*
X40737Y106004D01*
X40749Y106082D01*
X40765Y106160D01*
X40784Y106236D01*
X40807Y106311D01*
X40834Y106385D01*
X40865Y106458D01*
X40899Y106529D01*
X40937Y106598D01*
X40978Y106665D01*
X41022Y106730D01*
X41070Y106793D01*
X41120Y106853D01*
X41174Y106911D01*
X41230Y106966D01*
X41289Y107018D01*
X41351Y107067D01*
X41415Y107113D01*
X41481Y107156D01*
X41549Y107196D01*
X41619Y107232D01*
X41691Y107264D01*
X41765Y107293D01*
X41839Y107318D01*
X41915Y107339D01*
X41992Y107357D01*
X42070Y107370D01*
X42148Y107380D01*
X42226Y107386D01*
X42305Y107388D01*
X42305Y107389D02*
X43886Y107389D01*
X43886Y107388D02*
X43965Y107386D01*
X44043Y107380D01*
X44121Y107370D01*
X44199Y107357D01*
X44276Y107339D01*
X44352Y107318D01*
X44426Y107293D01*
X44500Y107264D01*
X44572Y107232D01*
X44642Y107196D01*
X44710Y107156D01*
X44776Y107113D01*
X44840Y107067D01*
X44902Y107018D01*
X44961Y106966D01*
X45017Y106911D01*
X45071Y106853D01*
X45121Y106793D01*
X45169Y106730D01*
X45213Y106665D01*
X45254Y106598D01*
X45292Y106529D01*
X45326Y106458D01*
X45357Y106385D01*
X45384Y106311D01*
X45407Y106236D01*
X45426Y106160D01*
X45442Y106082D01*
X45454Y106004D01*
X45462Y105926D01*
X45466Y105847D01*
X45466Y105769D01*
X45462Y105690D01*
X45454Y105612D01*
X45442Y105534D01*
X45426Y105456D01*
X45407Y105380D01*
X45384Y105305D01*
X45357Y105231D01*
X45326Y105158D01*
X45292Y105087D01*
X45254Y105018D01*
X45213Y104951D01*
X45169Y104886D01*
X45121Y104823D01*
X45071Y104763D01*
X45017Y104705D01*
X44961Y104650D01*
X44902Y104598D01*
X44840Y104549D01*
X44776Y104503D01*
X44710Y104460D01*
X44642Y104420D01*
X44572Y104384D01*
X44500Y104352D01*
X44426Y104323D01*
X44352Y104298D01*
X44276Y104277D01*
X44199Y104259D01*
X44121Y104246D01*
X44043Y104236D01*
X43965Y104230D01*
X43886Y104228D01*
X40725Y110067D02*
X45466Y111252D01*
X42305Y112438D01*
X45466Y113623D01*
X40725Y114808D01*
X45466Y118672D02*
X45466Y120648D01*
X45466Y118672D02*
X45464Y118606D01*
X45459Y118539D01*
X45449Y118474D01*
X45436Y118408D01*
X45420Y118344D01*
X45400Y118281D01*
X45376Y118219D01*
X45349Y118158D01*
X45318Y118099D01*
X45284Y118042D01*
X45247Y117986D01*
X45207Y117933D01*
X45165Y117882D01*
X45119Y117834D01*
X45071Y117788D01*
X45020Y117746D01*
X44967Y117706D01*
X44911Y117669D01*
X44854Y117635D01*
X44795Y117604D01*
X44734Y117577D01*
X44672Y117553D01*
X44609Y117533D01*
X44545Y117517D01*
X44479Y117504D01*
X44414Y117494D01*
X44347Y117489D01*
X44281Y117487D01*
X42305Y117487D01*
X42226Y117489D01*
X42148Y117495D01*
X42070Y117505D01*
X41992Y117518D01*
X41915Y117536D01*
X41839Y117557D01*
X41765Y117582D01*
X41691Y117611D01*
X41619Y117643D01*
X41549Y117679D01*
X41481Y117719D01*
X41415Y117762D01*
X41351Y117808D01*
X41289Y117857D01*
X41230Y117909D01*
X41174Y117964D01*
X41120Y118022D01*
X41070Y118082D01*
X41022Y118145D01*
X40978Y118210D01*
X40937Y118277D01*
X40899Y118346D01*
X40865Y118417D01*
X40834Y118490D01*
X40807Y118564D01*
X40784Y118639D01*
X40765Y118715D01*
X40749Y118793D01*
X40737Y118871D01*
X40729Y118949D01*
X40725Y119028D01*
X40725Y119106D01*
X40729Y119185D01*
X40737Y119263D01*
X40749Y119341D01*
X40765Y119419D01*
X40784Y119495D01*
X40807Y119570D01*
X40834Y119644D01*
X40865Y119717D01*
X40899Y119788D01*
X40937Y119857D01*
X40978Y119924D01*
X41022Y119989D01*
X41070Y120052D01*
X41120Y120112D01*
X41174Y120170D01*
X41230Y120225D01*
X41289Y120277D01*
X41351Y120326D01*
X41415Y120372D01*
X41481Y120415D01*
X41549Y120455D01*
X41619Y120491D01*
X41691Y120523D01*
X41765Y120552D01*
X41839Y120577D01*
X41915Y120598D01*
X41992Y120616D01*
X42070Y120629D01*
X42148Y120639D01*
X42226Y120645D01*
X42305Y120647D01*
X42305Y120648D02*
X43095Y120648D01*
X43095Y117487D01*
X45466Y123695D02*
X40725Y123695D01*
X40725Y126066D01*
X41515Y126066D01*
X45466Y134093D02*
X45464Y134171D01*
X45458Y134248D01*
X45449Y134325D01*
X45436Y134401D01*
X45419Y134477D01*
X45398Y134552D01*
X45374Y134625D01*
X45346Y134698D01*
X45314Y134769D01*
X45279Y134838D01*
X45241Y134905D01*
X45200Y134971D01*
X45155Y135034D01*
X45107Y135095D01*
X45057Y135154D01*
X45003Y135210D01*
X44947Y135264D01*
X44888Y135314D01*
X44827Y135362D01*
X44764Y135407D01*
X44698Y135448D01*
X44631Y135486D01*
X44562Y135521D01*
X44491Y135553D01*
X44418Y135581D01*
X44345Y135605D01*
X44270Y135626D01*
X44194Y135643D01*
X44118Y135656D01*
X44041Y135665D01*
X43964Y135671D01*
X43886Y135673D01*
X45466Y134093D02*
X45464Y133978D01*
X45458Y133864D01*
X45448Y133750D01*
X45435Y133636D01*
X45417Y133523D01*
X45395Y133410D01*
X45370Y133298D01*
X45341Y133188D01*
X45308Y133078D01*
X45271Y132969D01*
X45231Y132862D01*
X45187Y132756D01*
X45139Y132652D01*
X45088Y132549D01*
X45033Y132449D01*
X44975Y132350D01*
X44913Y132253D01*
X44849Y132159D01*
X44781Y132066D01*
X44709Y131976D01*
X44635Y131889D01*
X44558Y131804D01*
X44478Y131722D01*
X39934Y131920D02*
X39856Y131922D01*
X39779Y131928D01*
X39702Y131937D01*
X39626Y131950D01*
X39550Y131967D01*
X39475Y131988D01*
X39402Y132012D01*
X39329Y132040D01*
X39258Y132072D01*
X39189Y132107D01*
X39122Y132145D01*
X39056Y132186D01*
X38993Y132231D01*
X38932Y132279D01*
X38873Y132329D01*
X38817Y132383D01*
X38763Y132439D01*
X38713Y132498D01*
X38665Y132559D01*
X38620Y132622D01*
X38579Y132688D01*
X38541Y132755D01*
X38506Y132824D01*
X38474Y132895D01*
X38446Y132968D01*
X38422Y133041D01*
X38401Y133116D01*
X38384Y133192D01*
X38371Y133268D01*
X38362Y133345D01*
X38356Y133422D01*
X38354Y133500D01*
X38356Y133606D01*
X38362Y133712D01*
X38371Y133817D01*
X38384Y133922D01*
X38401Y134027D01*
X38422Y134131D01*
X38446Y134234D01*
X38474Y134336D01*
X38506Y134437D01*
X38541Y134537D01*
X38580Y134635D01*
X38623Y134733D01*
X38668Y134828D01*
X38717Y134922D01*
X38770Y135014D01*
X38826Y135104D01*
X38885Y135192D01*
X38947Y135278D01*
X41317Y132710D02*
X41275Y132643D01*
X41230Y132578D01*
X41181Y132515D01*
X41130Y132454D01*
X41075Y132397D01*
X41018Y132342D01*
X40958Y132289D01*
X40896Y132240D01*
X40831Y132194D01*
X40765Y132152D01*
X40696Y132112D01*
X40625Y132076D01*
X40552Y132044D01*
X40478Y132015D01*
X40403Y131990D01*
X40327Y131969D01*
X40249Y131951D01*
X40171Y131938D01*
X40092Y131928D01*
X40013Y131922D01*
X39934Y131920D01*
X42503Y134883D02*
X42545Y134950D01*
X42590Y135015D01*
X42639Y135078D01*
X42690Y135139D01*
X42745Y135196D01*
X42802Y135251D01*
X42862Y135304D01*
X42924Y135353D01*
X42989Y135399D01*
X43055Y135441D01*
X43124Y135481D01*
X43195Y135517D01*
X43268Y135549D01*
X43342Y135578D01*
X43417Y135603D01*
X43493Y135624D01*
X43571Y135642D01*
X43649Y135655D01*
X43728Y135665D01*
X43807Y135671D01*
X43886Y135673D01*
X42503Y134883D02*
X41317Y132710D01*
X40725Y138518D02*
X44281Y138518D01*
X44347Y138520D01*
X44414Y138525D01*
X44479Y138535D01*
X44545Y138548D01*
X44609Y138564D01*
X44672Y138584D01*
X44734Y138608D01*
X44795Y138635D01*
X44854Y138666D01*
X44911Y138700D01*
X44967Y138737D01*
X45020Y138777D01*
X45071Y138819D01*
X45119Y138865D01*
X45165Y138913D01*
X45207Y138964D01*
X45247Y139017D01*
X45284Y139073D01*
X45318Y139130D01*
X45349Y139189D01*
X45376Y139250D01*
X45400Y139312D01*
X45420Y139375D01*
X45436Y139439D01*
X45449Y139505D01*
X45459Y139570D01*
X45464Y139637D01*
X45466Y139703D01*
X45466Y141679D01*
X40725Y141679D01*
X40725Y144951D02*
X47837Y144951D01*
X40725Y144951D02*
X40725Y146926D01*
X40727Y146992D01*
X40732Y147059D01*
X40742Y147124D01*
X40755Y147190D01*
X40771Y147254D01*
X40791Y147317D01*
X40815Y147379D01*
X40842Y147440D01*
X40873Y147499D01*
X40907Y147556D01*
X40944Y147612D01*
X40984Y147665D01*
X41026Y147716D01*
X41072Y147764D01*
X41120Y147810D01*
X41171Y147852D01*
X41224Y147892D01*
X41280Y147929D01*
X41337Y147963D01*
X41396Y147994D01*
X41456Y148021D01*
X41519Y148044D01*
X41582Y148065D01*
X41646Y148081D01*
X41711Y148094D01*
X41777Y148104D01*
X41844Y148109D01*
X41910Y148111D01*
X41910Y148112D02*
X44281Y148112D01*
X44281Y148111D02*
X44347Y148109D01*
X44414Y148104D01*
X44479Y148094D01*
X44545Y148081D01*
X44609Y148065D01*
X44672Y148045D01*
X44734Y148021D01*
X44795Y147994D01*
X44854Y147963D01*
X44911Y147929D01*
X44967Y147892D01*
X45020Y147852D01*
X45071Y147810D01*
X45119Y147764D01*
X45165Y147716D01*
X45207Y147665D01*
X45247Y147612D01*
X45284Y147556D01*
X45318Y147499D01*
X45349Y147440D01*
X45376Y147379D01*
X45400Y147317D01*
X45420Y147254D01*
X45436Y147190D01*
X45449Y147124D01*
X45459Y147059D01*
X45464Y146992D01*
X45466Y146926D01*
X45466Y144951D01*
X47837Y151123D02*
X40725Y151123D01*
X40725Y153099D01*
X40727Y153165D01*
X40732Y153232D01*
X40742Y153297D01*
X40755Y153363D01*
X40771Y153427D01*
X40791Y153490D01*
X40815Y153552D01*
X40842Y153613D01*
X40873Y153672D01*
X40907Y153729D01*
X40944Y153785D01*
X40984Y153838D01*
X41026Y153889D01*
X41072Y153937D01*
X41120Y153983D01*
X41171Y154025D01*
X41224Y154065D01*
X41280Y154102D01*
X41337Y154136D01*
X41396Y154167D01*
X41456Y154194D01*
X41519Y154217D01*
X41582Y154238D01*
X41646Y154254D01*
X41711Y154267D01*
X41777Y154277D01*
X41844Y154282D01*
X41910Y154284D01*
X44281Y154284D01*
X44347Y154282D01*
X44414Y154277D01*
X44479Y154267D01*
X44545Y154254D01*
X44609Y154238D01*
X44672Y154218D01*
X44734Y154194D01*
X44795Y154167D01*
X44854Y154136D01*
X44911Y154102D01*
X44967Y154065D01*
X45020Y154025D01*
X45071Y153983D01*
X45119Y153937D01*
X45165Y153889D01*
X45207Y153838D01*
X45247Y153785D01*
X45284Y153729D01*
X45318Y153672D01*
X45349Y153613D01*
X45376Y153552D01*
X45400Y153490D01*
X45420Y153427D01*
X45436Y153363D01*
X45449Y153297D01*
X45459Y153232D01*
X45464Y153165D01*
X45466Y153099D01*
X45466Y151123D01*
X44281Y157136D02*
X38354Y157136D01*
X44281Y157136D02*
X44347Y157138D01*
X44414Y157143D01*
X44479Y157153D01*
X44545Y157166D01*
X44609Y157182D01*
X44672Y157202D01*
X44734Y157226D01*
X44795Y157253D01*
X44854Y157284D01*
X44911Y157318D01*
X44967Y157355D01*
X45020Y157395D01*
X45071Y157437D01*
X45119Y157483D01*
X45165Y157531D01*
X45207Y157582D01*
X45247Y157635D01*
X45284Y157691D01*
X45318Y157748D01*
X45349Y157807D01*
X45376Y157868D01*
X45400Y157930D01*
X45420Y157993D01*
X45436Y158057D01*
X45449Y158123D01*
X45459Y158188D01*
X45464Y158255D01*
X45466Y158321D01*
X47837Y160463D02*
X47837Y161253D01*
X40725Y163624D01*
X40725Y160463D02*
X45466Y162044D01*
X42700Y169960D02*
X42700Y174701D01*
X42700Y177732D02*
X42700Y182474D01*
X40725Y185505D02*
X42700Y190246D01*
X44676Y185505D01*
D13*
X36830Y190500D02*
X36830Y95250D01*
D11*
X84201Y460121D02*
X84201Y467487D01*
X86247Y467487D01*
X86336Y467485D01*
X86425Y467479D01*
X86514Y467469D01*
X86602Y467456D01*
X86690Y467439D01*
X86777Y467417D01*
X86862Y467392D01*
X86947Y467364D01*
X87030Y467331D01*
X87112Y467295D01*
X87192Y467256D01*
X87270Y467213D01*
X87346Y467167D01*
X87421Y467117D01*
X87493Y467064D01*
X87562Y467008D01*
X87629Y466949D01*
X87694Y466888D01*
X87755Y466823D01*
X87814Y466756D01*
X87870Y466687D01*
X87923Y466615D01*
X87973Y466540D01*
X88019Y466464D01*
X88062Y466386D01*
X88101Y466306D01*
X88137Y466224D01*
X88170Y466141D01*
X88198Y466056D01*
X88223Y465971D01*
X88245Y465884D01*
X88262Y465796D01*
X88275Y465708D01*
X88285Y465619D01*
X88291Y465530D01*
X88293Y465441D01*
X88291Y465352D01*
X88285Y465263D01*
X88275Y465174D01*
X88262Y465086D01*
X88245Y464998D01*
X88223Y464911D01*
X88198Y464826D01*
X88170Y464741D01*
X88137Y464658D01*
X88101Y464576D01*
X88062Y464496D01*
X88019Y464418D01*
X87973Y464342D01*
X87923Y464267D01*
X87870Y464195D01*
X87814Y464126D01*
X87755Y464059D01*
X87694Y463994D01*
X87629Y463933D01*
X87562Y463874D01*
X87493Y463818D01*
X87421Y463765D01*
X87346Y463715D01*
X87270Y463669D01*
X87192Y463626D01*
X87112Y463587D01*
X87030Y463551D01*
X86947Y463518D01*
X86862Y463490D01*
X86777Y463465D01*
X86690Y463443D01*
X86602Y463426D01*
X86514Y463413D01*
X86425Y463403D01*
X86336Y463397D01*
X86247Y463395D01*
X84201Y463395D01*
X86656Y463395D02*
X88293Y460121D01*
X91465Y465850D02*
X93511Y467487D01*
X93511Y460121D01*
X91465Y460121D02*
X95557Y460121D01*
D13*
X316700Y232240D02*
X316700Y52240D01*
X316700Y232240D02*
X293200Y232240D01*
X92700Y232240D02*
X89700Y232240D01*
X89700Y187240D01*
X293200Y52240D02*
X316700Y52240D01*
X92700Y52240D02*
X89700Y52240D01*
X76700Y97240D02*
X76700Y187240D01*
X89700Y187240D01*
X89700Y97240D02*
X76700Y97240D01*
X89700Y97240D02*
X89700Y52240D01*
D11*
X63683Y136271D02*
X56896Y136271D01*
X63683Y136271D02*
X63784Y136273D01*
X63885Y136279D01*
X63986Y136289D01*
X64086Y136302D01*
X64186Y136320D01*
X64285Y136341D01*
X64383Y136367D01*
X64480Y136396D01*
X64576Y136428D01*
X64670Y136465D01*
X64763Y136505D01*
X64855Y136549D01*
X64944Y136596D01*
X65032Y136647D01*
X65118Y136701D01*
X65201Y136758D01*
X65283Y136818D01*
X65361Y136882D01*
X65438Y136948D01*
X65511Y137018D01*
X65582Y137090D01*
X65650Y137165D01*
X65715Y137243D01*
X65777Y137323D01*
X65836Y137405D01*
X65892Y137490D01*
X65944Y137576D01*
X65993Y137665D01*
X66039Y137756D01*
X66080Y137848D01*
X66119Y137942D01*
X66153Y138037D01*
X66184Y138133D01*
X66211Y138231D01*
X66235Y138329D01*
X66254Y138429D01*
X66270Y138529D01*
X66282Y138629D01*
X66290Y138730D01*
X66294Y138831D01*
X66294Y138933D01*
X66290Y139034D01*
X66282Y139135D01*
X66270Y139235D01*
X66254Y139335D01*
X66235Y139435D01*
X66211Y139533D01*
X66184Y139631D01*
X66153Y139727D01*
X66119Y139822D01*
X66080Y139916D01*
X66039Y140008D01*
X65993Y140099D01*
X65944Y140187D01*
X65892Y140274D01*
X65836Y140359D01*
X65777Y140441D01*
X65715Y140521D01*
X65650Y140599D01*
X65582Y140674D01*
X65511Y140746D01*
X65438Y140816D01*
X65361Y140882D01*
X65283Y140946D01*
X65201Y141006D01*
X65118Y141063D01*
X65032Y141117D01*
X64944Y141168D01*
X64855Y141215D01*
X64763Y141259D01*
X64670Y141299D01*
X64576Y141336D01*
X64480Y141368D01*
X64383Y141397D01*
X64285Y141423D01*
X64186Y141444D01*
X64086Y141462D01*
X63986Y141475D01*
X63885Y141485D01*
X63784Y141491D01*
X63683Y141493D01*
X63683Y141492D02*
X56896Y141492D01*
X58984Y145720D02*
X56896Y148330D01*
X66294Y148330D01*
X66294Y145720D02*
X66294Y150941D01*
X108331Y278511D02*
X108331Y285877D01*
X110377Y285877D01*
X110466Y285875D01*
X110555Y285869D01*
X110644Y285859D01*
X110732Y285846D01*
X110820Y285829D01*
X110907Y285807D01*
X110992Y285782D01*
X111077Y285754D01*
X111160Y285721D01*
X111242Y285685D01*
X111322Y285646D01*
X111400Y285603D01*
X111476Y285557D01*
X111551Y285507D01*
X111623Y285454D01*
X111692Y285398D01*
X111759Y285339D01*
X111824Y285278D01*
X111885Y285213D01*
X111944Y285146D01*
X112000Y285077D01*
X112053Y285005D01*
X112103Y284930D01*
X112149Y284854D01*
X112192Y284776D01*
X112231Y284696D01*
X112267Y284614D01*
X112300Y284531D01*
X112328Y284446D01*
X112353Y284361D01*
X112375Y284274D01*
X112392Y284186D01*
X112405Y284098D01*
X112415Y284009D01*
X112421Y283920D01*
X112423Y283831D01*
X112421Y283742D01*
X112415Y283653D01*
X112405Y283564D01*
X112392Y283476D01*
X112375Y283388D01*
X112353Y283301D01*
X112328Y283216D01*
X112300Y283131D01*
X112267Y283048D01*
X112231Y282966D01*
X112192Y282886D01*
X112149Y282808D01*
X112103Y282732D01*
X112053Y282657D01*
X112000Y282585D01*
X111944Y282516D01*
X111885Y282449D01*
X111824Y282384D01*
X111759Y282323D01*
X111692Y282264D01*
X111623Y282208D01*
X111551Y282155D01*
X111476Y282105D01*
X111400Y282059D01*
X111322Y282016D01*
X111242Y281977D01*
X111160Y281941D01*
X111077Y281908D01*
X110992Y281880D01*
X110907Y281855D01*
X110820Y281833D01*
X110732Y281816D01*
X110644Y281803D01*
X110555Y281793D01*
X110466Y281787D01*
X110377Y281785D01*
X108331Y281785D01*
X110786Y281785D02*
X112423Y278511D01*
X115595Y278511D02*
X118050Y278511D01*
X118128Y278513D01*
X118206Y278518D01*
X118283Y278528D01*
X118360Y278541D01*
X118436Y278557D01*
X118511Y278577D01*
X118585Y278601D01*
X118658Y278628D01*
X118730Y278659D01*
X118800Y278693D01*
X118869Y278730D01*
X118935Y278771D01*
X119000Y278815D01*
X119062Y278861D01*
X119122Y278911D01*
X119180Y278963D01*
X119235Y279018D01*
X119287Y279076D01*
X119337Y279136D01*
X119383Y279198D01*
X119427Y279263D01*
X119468Y279330D01*
X119505Y279398D01*
X119539Y279468D01*
X119570Y279540D01*
X119597Y279613D01*
X119621Y279687D01*
X119641Y279762D01*
X119657Y279838D01*
X119670Y279915D01*
X119680Y279992D01*
X119685Y280070D01*
X119687Y280148D01*
X119687Y280966D01*
X119685Y281044D01*
X119680Y281122D01*
X119670Y281199D01*
X119657Y281276D01*
X119641Y281352D01*
X119621Y281427D01*
X119597Y281501D01*
X119570Y281574D01*
X119539Y281646D01*
X119505Y281716D01*
X119468Y281785D01*
X119427Y281851D01*
X119383Y281916D01*
X119337Y281978D01*
X119287Y282038D01*
X119235Y282096D01*
X119180Y282151D01*
X119122Y282203D01*
X119062Y282253D01*
X119000Y282299D01*
X118935Y282343D01*
X118869Y282384D01*
X118800Y282421D01*
X118730Y282455D01*
X118658Y282486D01*
X118585Y282513D01*
X118511Y282537D01*
X118436Y282557D01*
X118360Y282573D01*
X118283Y282586D01*
X118206Y282596D01*
X118128Y282601D01*
X118050Y282603D01*
X115595Y282603D01*
X115595Y285877D01*
X119687Y285877D01*
X171831Y367411D02*
X171831Y374777D01*
X173877Y374777D01*
X173966Y374775D01*
X174055Y374769D01*
X174144Y374759D01*
X174232Y374746D01*
X174320Y374729D01*
X174407Y374707D01*
X174492Y374682D01*
X174577Y374654D01*
X174660Y374621D01*
X174742Y374585D01*
X174822Y374546D01*
X174900Y374503D01*
X174976Y374457D01*
X175051Y374407D01*
X175123Y374354D01*
X175192Y374298D01*
X175259Y374239D01*
X175324Y374178D01*
X175385Y374113D01*
X175444Y374046D01*
X175500Y373977D01*
X175553Y373905D01*
X175603Y373830D01*
X175649Y373754D01*
X175692Y373676D01*
X175731Y373596D01*
X175767Y373514D01*
X175800Y373431D01*
X175828Y373346D01*
X175853Y373261D01*
X175875Y373174D01*
X175892Y373086D01*
X175905Y372998D01*
X175915Y372909D01*
X175921Y372820D01*
X175923Y372731D01*
X175921Y372642D01*
X175915Y372553D01*
X175905Y372464D01*
X175892Y372376D01*
X175875Y372288D01*
X175853Y372201D01*
X175828Y372116D01*
X175800Y372031D01*
X175767Y371948D01*
X175731Y371866D01*
X175692Y371786D01*
X175649Y371708D01*
X175603Y371632D01*
X175553Y371557D01*
X175500Y371485D01*
X175444Y371416D01*
X175385Y371349D01*
X175324Y371284D01*
X175259Y371223D01*
X175192Y371164D01*
X175123Y371108D01*
X175051Y371055D01*
X174976Y371005D01*
X174900Y370959D01*
X174822Y370916D01*
X174742Y370877D01*
X174660Y370841D01*
X174577Y370808D01*
X174492Y370780D01*
X174407Y370755D01*
X174320Y370733D01*
X174232Y370716D01*
X174144Y370703D01*
X174055Y370693D01*
X173966Y370687D01*
X173877Y370685D01*
X171831Y370685D01*
X174286Y370685D02*
X175923Y367411D01*
X179095Y371503D02*
X181550Y371503D01*
X181628Y371501D01*
X181706Y371496D01*
X181783Y371486D01*
X181860Y371473D01*
X181936Y371457D01*
X182011Y371437D01*
X182085Y371413D01*
X182158Y371386D01*
X182230Y371355D01*
X182300Y371321D01*
X182369Y371284D01*
X182435Y371243D01*
X182500Y371199D01*
X182562Y371153D01*
X182622Y371103D01*
X182680Y371051D01*
X182735Y370996D01*
X182787Y370938D01*
X182837Y370878D01*
X182883Y370816D01*
X182927Y370751D01*
X182968Y370685D01*
X183005Y370616D01*
X183039Y370546D01*
X183070Y370474D01*
X183097Y370401D01*
X183121Y370327D01*
X183141Y370252D01*
X183157Y370176D01*
X183170Y370099D01*
X183180Y370022D01*
X183185Y369944D01*
X183187Y369866D01*
X183187Y369457D01*
X183185Y369368D01*
X183179Y369279D01*
X183169Y369190D01*
X183156Y369102D01*
X183139Y369014D01*
X183117Y368927D01*
X183092Y368842D01*
X183064Y368757D01*
X183031Y368674D01*
X182995Y368592D01*
X182956Y368512D01*
X182913Y368434D01*
X182867Y368358D01*
X182817Y368283D01*
X182764Y368211D01*
X182708Y368142D01*
X182649Y368075D01*
X182588Y368010D01*
X182523Y367949D01*
X182456Y367890D01*
X182387Y367834D01*
X182315Y367781D01*
X182240Y367731D01*
X182164Y367685D01*
X182086Y367642D01*
X182006Y367603D01*
X181924Y367567D01*
X181841Y367534D01*
X181756Y367506D01*
X181671Y367481D01*
X181584Y367459D01*
X181496Y367442D01*
X181408Y367429D01*
X181319Y367419D01*
X181230Y367413D01*
X181141Y367411D01*
X181052Y367413D01*
X180963Y367419D01*
X180874Y367429D01*
X180786Y367442D01*
X180698Y367459D01*
X180611Y367481D01*
X180526Y367506D01*
X180441Y367534D01*
X180358Y367567D01*
X180276Y367603D01*
X180196Y367642D01*
X180118Y367685D01*
X180042Y367731D01*
X179967Y367781D01*
X179895Y367834D01*
X179826Y367890D01*
X179759Y367949D01*
X179694Y368010D01*
X179633Y368075D01*
X179574Y368142D01*
X179518Y368211D01*
X179465Y368283D01*
X179415Y368358D01*
X179369Y368434D01*
X179326Y368512D01*
X179287Y368592D01*
X179251Y368674D01*
X179218Y368757D01*
X179190Y368842D01*
X179165Y368927D01*
X179143Y369014D01*
X179126Y369102D01*
X179113Y369190D01*
X179103Y369279D01*
X179097Y369368D01*
X179095Y369457D01*
X179095Y371503D01*
X179097Y371617D01*
X179103Y371731D01*
X179113Y371845D01*
X179127Y371959D01*
X179145Y372072D01*
X179167Y372184D01*
X179192Y372295D01*
X179222Y372405D01*
X179255Y372515D01*
X179292Y372623D01*
X179333Y372729D01*
X179378Y372835D01*
X179426Y372938D01*
X179478Y373040D01*
X179534Y373140D01*
X179592Y373238D01*
X179655Y373334D01*
X179720Y373427D01*
X179789Y373519D01*
X179861Y373607D01*
X179936Y373694D01*
X180014Y373777D01*
X180095Y373858D01*
X180178Y373936D01*
X180265Y374011D01*
X180353Y374083D01*
X180445Y374152D01*
X180538Y374217D01*
X180634Y374279D01*
X180732Y374338D01*
X180832Y374394D01*
X180934Y374446D01*
X181037Y374494D01*
X181143Y374539D01*
X181249Y374580D01*
X181357Y374617D01*
X181467Y374650D01*
X181577Y374680D01*
X181688Y374705D01*
X181800Y374727D01*
X181913Y374745D01*
X182027Y374759D01*
X182141Y374769D01*
X182255Y374775D01*
X182369Y374777D01*
D14*
X139700Y444500D02*
X88900Y444500D01*
X88900Y292100D02*
X139700Y292100D01*
X139700Y441650D02*
X139700Y444500D01*
X88900Y444500D02*
X88900Y441650D01*
X139700Y294950D02*
X139700Y292100D01*
X88900Y292100D02*
X88900Y294950D01*
X138850Y285600D02*
X138852Y285663D01*
X138858Y285725D01*
X138868Y285787D01*
X138881Y285849D01*
X138899Y285909D01*
X138920Y285968D01*
X138945Y286026D01*
X138974Y286082D01*
X139006Y286136D01*
X139041Y286188D01*
X139079Y286237D01*
X139121Y286285D01*
X139165Y286329D01*
X139213Y286371D01*
X139262Y286409D01*
X139314Y286444D01*
X139368Y286476D01*
X139424Y286505D01*
X139482Y286530D01*
X139541Y286551D01*
X139601Y286569D01*
X139663Y286582D01*
X139725Y286592D01*
X139787Y286598D01*
X139850Y286600D01*
X139913Y286598D01*
X139975Y286592D01*
X140037Y286582D01*
X140099Y286569D01*
X140159Y286551D01*
X140218Y286530D01*
X140276Y286505D01*
X140332Y286476D01*
X140386Y286444D01*
X140438Y286409D01*
X140487Y286371D01*
X140535Y286329D01*
X140579Y286285D01*
X140621Y286237D01*
X140659Y286188D01*
X140694Y286136D01*
X140726Y286082D01*
X140755Y286026D01*
X140780Y285968D01*
X140801Y285909D01*
X140819Y285849D01*
X140832Y285787D01*
X140842Y285725D01*
X140848Y285663D01*
X140850Y285600D01*
X140848Y285537D01*
X140842Y285475D01*
X140832Y285413D01*
X140819Y285351D01*
X140801Y285291D01*
X140780Y285232D01*
X140755Y285174D01*
X140726Y285118D01*
X140694Y285064D01*
X140659Y285012D01*
X140621Y284963D01*
X140579Y284915D01*
X140535Y284871D01*
X140487Y284829D01*
X140438Y284791D01*
X140386Y284756D01*
X140332Y284724D01*
X140276Y284695D01*
X140218Y284670D01*
X140159Y284649D01*
X140099Y284631D01*
X140037Y284618D01*
X139975Y284608D01*
X139913Y284602D01*
X139850Y284600D01*
X139787Y284602D01*
X139725Y284608D01*
X139663Y284618D01*
X139601Y284631D01*
X139541Y284649D01*
X139482Y284670D01*
X139424Y284695D01*
X139368Y284724D01*
X139314Y284756D01*
X139262Y284791D01*
X139213Y284829D01*
X139165Y284871D01*
X139121Y284915D01*
X139079Y284963D01*
X139041Y285012D01*
X139006Y285064D01*
X138974Y285118D01*
X138945Y285174D01*
X138920Y285232D01*
X138899Y285291D01*
X138881Y285351D01*
X138868Y285413D01*
X138858Y285475D01*
X138852Y285537D01*
X138850Y285600D01*
D11*
X137682Y453686D02*
X131953Y453686D01*
X137682Y453686D02*
X137760Y453684D01*
X137838Y453679D01*
X137915Y453669D01*
X137992Y453656D01*
X138068Y453640D01*
X138143Y453620D01*
X138217Y453596D01*
X138290Y453569D01*
X138362Y453538D01*
X138432Y453504D01*
X138501Y453467D01*
X138567Y453426D01*
X138632Y453382D01*
X138694Y453336D01*
X138754Y453286D01*
X138812Y453234D01*
X138867Y453179D01*
X138919Y453121D01*
X138969Y453061D01*
X139015Y452999D01*
X139059Y452934D01*
X139100Y452868D01*
X139137Y452799D01*
X139171Y452729D01*
X139202Y452657D01*
X139229Y452584D01*
X139253Y452510D01*
X139273Y452435D01*
X139289Y452359D01*
X139302Y452282D01*
X139312Y452205D01*
X139317Y452127D01*
X139319Y452049D01*
X139319Y451231D01*
X133590Y457121D02*
X131953Y459167D01*
X139319Y459167D01*
X139319Y457121D02*
X139319Y461213D01*
D14*
X243500Y432200D02*
X243502Y432263D01*
X243508Y432325D01*
X243518Y432387D01*
X243531Y432449D01*
X243549Y432509D01*
X243570Y432568D01*
X243595Y432626D01*
X243624Y432682D01*
X243656Y432736D01*
X243691Y432788D01*
X243729Y432837D01*
X243771Y432885D01*
X243815Y432929D01*
X243863Y432971D01*
X243912Y433009D01*
X243964Y433044D01*
X244018Y433076D01*
X244074Y433105D01*
X244132Y433130D01*
X244191Y433151D01*
X244251Y433169D01*
X244313Y433182D01*
X244375Y433192D01*
X244437Y433198D01*
X244500Y433200D01*
X244563Y433198D01*
X244625Y433192D01*
X244687Y433182D01*
X244749Y433169D01*
X244809Y433151D01*
X244868Y433130D01*
X244926Y433105D01*
X244982Y433076D01*
X245036Y433044D01*
X245088Y433009D01*
X245137Y432971D01*
X245185Y432929D01*
X245229Y432885D01*
X245271Y432837D01*
X245309Y432788D01*
X245344Y432736D01*
X245376Y432682D01*
X245405Y432626D01*
X245430Y432568D01*
X245451Y432509D01*
X245469Y432449D01*
X245482Y432387D01*
X245492Y432325D01*
X245498Y432263D01*
X245500Y432200D01*
X245498Y432137D01*
X245492Y432075D01*
X245482Y432013D01*
X245469Y431951D01*
X245451Y431891D01*
X245430Y431832D01*
X245405Y431774D01*
X245376Y431718D01*
X245344Y431664D01*
X245309Y431612D01*
X245271Y431563D01*
X245229Y431515D01*
X245185Y431471D01*
X245137Y431429D01*
X245088Y431391D01*
X245036Y431356D01*
X244982Y431324D01*
X244926Y431295D01*
X244868Y431270D01*
X244809Y431249D01*
X244749Y431231D01*
X244687Y431218D01*
X244625Y431208D01*
X244563Y431202D01*
X244500Y431200D01*
X244437Y431202D01*
X244375Y431208D01*
X244313Y431218D01*
X244251Y431231D01*
X244191Y431249D01*
X244132Y431270D01*
X244074Y431295D01*
X244018Y431324D01*
X243964Y431356D01*
X243912Y431391D01*
X243863Y431429D01*
X243815Y431471D01*
X243771Y431515D01*
X243729Y431563D01*
X243691Y431612D01*
X243656Y431664D01*
X243624Y431718D01*
X243595Y431774D01*
X243570Y431832D01*
X243549Y431891D01*
X243531Y431951D01*
X243518Y432013D01*
X243508Y432075D01*
X243502Y432137D01*
X243500Y432200D01*
D13*
X238400Y449200D02*
X238400Y465200D01*
X269600Y465200D02*
X269600Y449200D01*
D11*
X231573Y449901D02*
X226253Y449901D01*
X231573Y449901D02*
X231662Y449903D01*
X231751Y449909D01*
X231840Y449919D01*
X231928Y449932D01*
X232016Y449949D01*
X232103Y449971D01*
X232188Y449996D01*
X232273Y450024D01*
X232356Y450057D01*
X232438Y450093D01*
X232518Y450132D01*
X232596Y450175D01*
X232672Y450221D01*
X232747Y450271D01*
X232819Y450324D01*
X232888Y450380D01*
X232955Y450439D01*
X233020Y450500D01*
X233081Y450565D01*
X233140Y450632D01*
X233196Y450701D01*
X233249Y450773D01*
X233299Y450848D01*
X233345Y450924D01*
X233388Y451002D01*
X233427Y451082D01*
X233463Y451164D01*
X233496Y451247D01*
X233524Y451332D01*
X233549Y451417D01*
X233571Y451504D01*
X233588Y451592D01*
X233601Y451680D01*
X233611Y451769D01*
X233617Y451858D01*
X233619Y451947D01*
X233617Y452036D01*
X233611Y452125D01*
X233601Y452214D01*
X233588Y452302D01*
X233571Y452390D01*
X233549Y452477D01*
X233524Y452562D01*
X233496Y452647D01*
X233463Y452730D01*
X233427Y452812D01*
X233388Y452892D01*
X233345Y452970D01*
X233299Y453046D01*
X233249Y453121D01*
X233196Y453193D01*
X233140Y453262D01*
X233081Y453329D01*
X233020Y453394D01*
X232955Y453455D01*
X232888Y453514D01*
X232819Y453570D01*
X232747Y453623D01*
X232672Y453673D01*
X232596Y453719D01*
X232518Y453762D01*
X232438Y453801D01*
X232356Y453837D01*
X232273Y453870D01*
X232188Y453898D01*
X232103Y453923D01*
X232016Y453945D01*
X231928Y453962D01*
X231840Y453975D01*
X231751Y453985D01*
X231662Y453991D01*
X231573Y453993D01*
X226253Y453993D01*
X226253Y459711D02*
X226255Y459796D01*
X226261Y459881D01*
X226271Y459965D01*
X226284Y460049D01*
X226302Y460133D01*
X226323Y460215D01*
X226348Y460296D01*
X226377Y460376D01*
X226410Y460455D01*
X226446Y460532D01*
X226486Y460607D01*
X226529Y460681D01*
X226575Y460752D01*
X226625Y460821D01*
X226678Y460888D01*
X226734Y460952D01*
X226793Y461013D01*
X226854Y461072D01*
X226918Y461128D01*
X226985Y461181D01*
X227054Y461231D01*
X227125Y461277D01*
X227199Y461320D01*
X227274Y461360D01*
X227351Y461396D01*
X227430Y461429D01*
X227510Y461458D01*
X227591Y461483D01*
X227673Y461504D01*
X227757Y461522D01*
X227841Y461535D01*
X227925Y461545D01*
X228010Y461551D01*
X228095Y461553D01*
X226253Y459711D02*
X226255Y459615D01*
X226261Y459519D01*
X226271Y459424D01*
X226284Y459329D01*
X226302Y459234D01*
X226323Y459141D01*
X226348Y459048D01*
X226377Y458957D01*
X226409Y458866D01*
X226445Y458777D01*
X226485Y458690D01*
X226528Y458604D01*
X226574Y458520D01*
X226624Y458438D01*
X226678Y458358D01*
X226734Y458281D01*
X226794Y458206D01*
X226856Y458133D01*
X226922Y458063D01*
X226990Y457995D01*
X227061Y457930D01*
X227134Y457869D01*
X227210Y457810D01*
X227289Y457754D01*
X227369Y457702D01*
X227452Y457653D01*
X227536Y457607D01*
X227622Y457565D01*
X227710Y457527D01*
X227799Y457492D01*
X227890Y457460D01*
X229527Y460938D02*
X229468Y460998D01*
X229406Y461055D01*
X229342Y461110D01*
X229275Y461161D01*
X229206Y461210D01*
X229136Y461256D01*
X229063Y461299D01*
X228989Y461339D01*
X228913Y461375D01*
X228835Y461408D01*
X228756Y461438D01*
X228676Y461465D01*
X228595Y461488D01*
X228513Y461507D01*
X228431Y461523D01*
X228347Y461536D01*
X228263Y461545D01*
X228179Y461550D01*
X228095Y461552D01*
X229527Y460938D02*
X233619Y457460D01*
X233619Y461552D01*
D15*
X241300Y538500D03*
D11*
X233299Y526161D02*
X225933Y526161D01*
X233299Y526161D02*
X233299Y529435D01*
X233299Y532501D02*
X233299Y535775D01*
X233299Y532501D02*
X225933Y532501D01*
X225933Y535775D01*
X229207Y534956D02*
X229207Y532501D01*
X225933Y538825D02*
X233299Y538825D01*
X225933Y538825D02*
X225933Y540871D01*
X225935Y540960D01*
X225941Y541049D01*
X225951Y541138D01*
X225964Y541226D01*
X225981Y541314D01*
X226003Y541401D01*
X226028Y541486D01*
X226056Y541571D01*
X226089Y541654D01*
X226125Y541736D01*
X226164Y541816D01*
X226207Y541894D01*
X226253Y541970D01*
X226303Y542045D01*
X226356Y542117D01*
X226412Y542186D01*
X226471Y542253D01*
X226532Y542318D01*
X226597Y542379D01*
X226664Y542438D01*
X226733Y542494D01*
X226805Y542547D01*
X226880Y542597D01*
X226956Y542643D01*
X227034Y542686D01*
X227114Y542725D01*
X227196Y542761D01*
X227279Y542794D01*
X227364Y542822D01*
X227449Y542847D01*
X227536Y542869D01*
X227624Y542886D01*
X227712Y542899D01*
X227801Y542909D01*
X227890Y542915D01*
X227979Y542917D01*
X231253Y542917D01*
X231342Y542915D01*
X231431Y542909D01*
X231520Y542899D01*
X231608Y542886D01*
X231696Y542869D01*
X231783Y542847D01*
X231868Y542822D01*
X231953Y542794D01*
X232036Y542761D01*
X232118Y542725D01*
X232198Y542686D01*
X232276Y542643D01*
X232352Y542597D01*
X232427Y542547D01*
X232499Y542494D01*
X232568Y542438D01*
X232635Y542379D01*
X232700Y542318D01*
X232761Y542253D01*
X232820Y542186D01*
X232876Y542117D01*
X232929Y542045D01*
X232979Y541970D01*
X233025Y541894D01*
X233068Y541816D01*
X233107Y541736D01*
X233143Y541654D01*
X233176Y541571D01*
X233204Y541486D01*
X233229Y541401D01*
X233251Y541314D01*
X233268Y541226D01*
X233281Y541138D01*
X233291Y541049D01*
X233297Y540960D01*
X233299Y540871D01*
X233299Y538825D01*
X227570Y546384D02*
X225933Y548430D01*
X233299Y548430D01*
X233299Y546384D02*
X233299Y550476D01*
D15*
X266700Y538500D03*
D11*
X275463Y526161D02*
X282829Y526161D01*
X282829Y529435D01*
X282829Y532501D02*
X282829Y535775D01*
X282829Y532501D02*
X275463Y532501D01*
X275463Y535775D01*
X278737Y534956D02*
X278737Y532501D01*
X275463Y538825D02*
X282829Y538825D01*
X275463Y538825D02*
X275463Y540871D01*
X275465Y540960D01*
X275471Y541049D01*
X275481Y541138D01*
X275494Y541226D01*
X275511Y541314D01*
X275533Y541401D01*
X275558Y541486D01*
X275586Y541571D01*
X275619Y541654D01*
X275655Y541736D01*
X275694Y541816D01*
X275737Y541894D01*
X275783Y541970D01*
X275833Y542045D01*
X275886Y542117D01*
X275942Y542186D01*
X276001Y542253D01*
X276062Y542318D01*
X276127Y542379D01*
X276194Y542438D01*
X276263Y542494D01*
X276335Y542547D01*
X276410Y542597D01*
X276486Y542643D01*
X276564Y542686D01*
X276644Y542725D01*
X276726Y542761D01*
X276809Y542794D01*
X276894Y542822D01*
X276979Y542847D01*
X277066Y542869D01*
X277154Y542886D01*
X277242Y542899D01*
X277331Y542909D01*
X277420Y542915D01*
X277509Y542917D01*
X280783Y542917D01*
X280872Y542915D01*
X280961Y542909D01*
X281050Y542899D01*
X281138Y542886D01*
X281226Y542869D01*
X281313Y542847D01*
X281398Y542822D01*
X281483Y542794D01*
X281566Y542761D01*
X281648Y542725D01*
X281728Y542686D01*
X281806Y542643D01*
X281882Y542597D01*
X281957Y542547D01*
X282029Y542494D01*
X282098Y542438D01*
X282165Y542379D01*
X282230Y542318D01*
X282291Y542253D01*
X282350Y542186D01*
X282406Y542117D01*
X282459Y542045D01*
X282509Y541970D01*
X282555Y541894D01*
X282598Y541816D01*
X282637Y541736D01*
X282673Y541654D01*
X282706Y541571D01*
X282734Y541486D01*
X282759Y541401D01*
X282781Y541314D01*
X282798Y541226D01*
X282811Y541138D01*
X282821Y541049D01*
X282827Y540960D01*
X282829Y540871D01*
X282829Y538825D01*
X275463Y548635D02*
X275465Y548720D01*
X275471Y548805D01*
X275481Y548889D01*
X275494Y548973D01*
X275512Y549057D01*
X275533Y549139D01*
X275558Y549220D01*
X275587Y549300D01*
X275620Y549379D01*
X275656Y549456D01*
X275696Y549531D01*
X275739Y549605D01*
X275785Y549676D01*
X275835Y549745D01*
X275888Y549812D01*
X275944Y549876D01*
X276003Y549937D01*
X276064Y549996D01*
X276128Y550052D01*
X276195Y550105D01*
X276264Y550155D01*
X276335Y550201D01*
X276409Y550244D01*
X276484Y550284D01*
X276561Y550320D01*
X276640Y550353D01*
X276720Y550382D01*
X276801Y550407D01*
X276883Y550428D01*
X276967Y550446D01*
X277051Y550459D01*
X277135Y550469D01*
X277220Y550475D01*
X277305Y550477D01*
X275463Y548635D02*
X275465Y548539D01*
X275471Y548443D01*
X275481Y548348D01*
X275494Y548253D01*
X275512Y548158D01*
X275533Y548065D01*
X275558Y547972D01*
X275587Y547881D01*
X275619Y547790D01*
X275655Y547701D01*
X275695Y547614D01*
X275738Y547528D01*
X275784Y547444D01*
X275834Y547362D01*
X275888Y547282D01*
X275944Y547205D01*
X276004Y547130D01*
X276066Y547057D01*
X276132Y546987D01*
X276200Y546919D01*
X276271Y546854D01*
X276344Y546793D01*
X276420Y546734D01*
X276499Y546678D01*
X276579Y546626D01*
X276662Y546577D01*
X276746Y546531D01*
X276832Y546489D01*
X276920Y546451D01*
X277009Y546416D01*
X277100Y546384D01*
X278737Y549862D02*
X278678Y549922D01*
X278616Y549979D01*
X278552Y550034D01*
X278485Y550085D01*
X278416Y550134D01*
X278346Y550180D01*
X278273Y550223D01*
X278199Y550263D01*
X278123Y550299D01*
X278045Y550332D01*
X277966Y550362D01*
X277886Y550389D01*
X277805Y550412D01*
X277723Y550431D01*
X277641Y550447D01*
X277557Y550460D01*
X277473Y550469D01*
X277389Y550474D01*
X277305Y550476D01*
X278737Y549862D02*
X282829Y546384D01*
X282829Y550476D01*
X230759Y495681D02*
X223393Y495681D01*
X223393Y497727D01*
X223395Y497816D01*
X223401Y497905D01*
X223411Y497994D01*
X223424Y498082D01*
X223441Y498170D01*
X223463Y498257D01*
X223488Y498342D01*
X223516Y498427D01*
X223549Y498510D01*
X223585Y498592D01*
X223624Y498672D01*
X223667Y498750D01*
X223713Y498826D01*
X223763Y498901D01*
X223816Y498973D01*
X223872Y499042D01*
X223931Y499109D01*
X223992Y499174D01*
X224057Y499235D01*
X224124Y499294D01*
X224193Y499350D01*
X224265Y499403D01*
X224340Y499453D01*
X224416Y499499D01*
X224494Y499542D01*
X224574Y499581D01*
X224656Y499617D01*
X224739Y499650D01*
X224824Y499678D01*
X224909Y499703D01*
X224996Y499725D01*
X225084Y499742D01*
X225172Y499755D01*
X225261Y499765D01*
X225350Y499771D01*
X225439Y499773D01*
X225528Y499771D01*
X225617Y499765D01*
X225706Y499755D01*
X225794Y499742D01*
X225882Y499725D01*
X225969Y499703D01*
X226054Y499678D01*
X226139Y499650D01*
X226222Y499617D01*
X226304Y499581D01*
X226384Y499542D01*
X226462Y499499D01*
X226538Y499453D01*
X226613Y499403D01*
X226685Y499350D01*
X226754Y499294D01*
X226821Y499235D01*
X226886Y499174D01*
X226947Y499109D01*
X227006Y499042D01*
X227062Y498973D01*
X227115Y498901D01*
X227165Y498826D01*
X227211Y498750D01*
X227254Y498672D01*
X227293Y498592D01*
X227329Y498510D01*
X227362Y498427D01*
X227390Y498342D01*
X227415Y498257D01*
X227437Y498170D01*
X227454Y498082D01*
X227467Y497994D01*
X227477Y497905D01*
X227483Y497816D01*
X227485Y497727D01*
X227485Y495681D01*
X227485Y498136D02*
X230759Y499773D01*
X224211Y502945D02*
X223393Y502945D01*
X223393Y507037D01*
X230759Y504991D01*
X278003Y495681D02*
X285369Y495681D01*
X278003Y495681D02*
X278003Y497727D01*
X278005Y497816D01*
X278011Y497905D01*
X278021Y497994D01*
X278034Y498082D01*
X278051Y498170D01*
X278073Y498257D01*
X278098Y498342D01*
X278126Y498427D01*
X278159Y498510D01*
X278195Y498592D01*
X278234Y498672D01*
X278277Y498750D01*
X278323Y498826D01*
X278373Y498901D01*
X278426Y498973D01*
X278482Y499042D01*
X278541Y499109D01*
X278602Y499174D01*
X278667Y499235D01*
X278734Y499294D01*
X278803Y499350D01*
X278875Y499403D01*
X278950Y499453D01*
X279026Y499499D01*
X279104Y499542D01*
X279184Y499581D01*
X279266Y499617D01*
X279349Y499650D01*
X279434Y499678D01*
X279519Y499703D01*
X279606Y499725D01*
X279694Y499742D01*
X279782Y499755D01*
X279871Y499765D01*
X279960Y499771D01*
X280049Y499773D01*
X280138Y499771D01*
X280227Y499765D01*
X280316Y499755D01*
X280404Y499742D01*
X280492Y499725D01*
X280579Y499703D01*
X280664Y499678D01*
X280749Y499650D01*
X280832Y499617D01*
X280914Y499581D01*
X280994Y499542D01*
X281072Y499499D01*
X281148Y499453D01*
X281223Y499403D01*
X281295Y499350D01*
X281364Y499294D01*
X281431Y499235D01*
X281496Y499174D01*
X281557Y499109D01*
X281616Y499042D01*
X281672Y498973D01*
X281725Y498901D01*
X281775Y498826D01*
X281821Y498750D01*
X281864Y498672D01*
X281903Y498592D01*
X281939Y498510D01*
X281972Y498427D01*
X282000Y498342D01*
X282025Y498257D01*
X282047Y498170D01*
X282064Y498082D01*
X282077Y497994D01*
X282087Y497905D01*
X282093Y497816D01*
X282095Y497727D01*
X282095Y495681D01*
X282095Y498136D02*
X285369Y499773D01*
X283323Y502945D02*
X283234Y502947D01*
X283145Y502953D01*
X283056Y502963D01*
X282968Y502976D01*
X282880Y502993D01*
X282793Y503015D01*
X282708Y503040D01*
X282623Y503068D01*
X282540Y503101D01*
X282458Y503137D01*
X282378Y503176D01*
X282300Y503219D01*
X282224Y503265D01*
X282149Y503315D01*
X282077Y503368D01*
X282008Y503424D01*
X281941Y503483D01*
X281876Y503544D01*
X281815Y503609D01*
X281756Y503676D01*
X281700Y503745D01*
X281647Y503817D01*
X281597Y503892D01*
X281551Y503968D01*
X281508Y504046D01*
X281469Y504126D01*
X281433Y504208D01*
X281400Y504291D01*
X281372Y504376D01*
X281347Y504461D01*
X281325Y504548D01*
X281308Y504636D01*
X281295Y504724D01*
X281285Y504813D01*
X281279Y504902D01*
X281277Y504991D01*
X281279Y505080D01*
X281285Y505169D01*
X281295Y505258D01*
X281308Y505346D01*
X281325Y505434D01*
X281347Y505521D01*
X281372Y505606D01*
X281400Y505691D01*
X281433Y505774D01*
X281469Y505856D01*
X281508Y505936D01*
X281551Y506014D01*
X281597Y506090D01*
X281647Y506165D01*
X281700Y506237D01*
X281756Y506306D01*
X281815Y506373D01*
X281876Y506438D01*
X281941Y506499D01*
X282008Y506558D01*
X282077Y506614D01*
X282149Y506667D01*
X282224Y506717D01*
X282300Y506763D01*
X282378Y506806D01*
X282458Y506845D01*
X282540Y506881D01*
X282623Y506914D01*
X282708Y506942D01*
X282793Y506967D01*
X282880Y506989D01*
X282968Y507006D01*
X283056Y507019D01*
X283145Y507029D01*
X283234Y507035D01*
X283323Y507037D01*
X283412Y507035D01*
X283501Y507029D01*
X283590Y507019D01*
X283678Y507006D01*
X283766Y506989D01*
X283853Y506967D01*
X283938Y506942D01*
X284023Y506914D01*
X284106Y506881D01*
X284188Y506845D01*
X284268Y506806D01*
X284346Y506763D01*
X284422Y506717D01*
X284497Y506667D01*
X284569Y506614D01*
X284638Y506558D01*
X284705Y506499D01*
X284770Y506438D01*
X284831Y506373D01*
X284890Y506306D01*
X284946Y506237D01*
X284999Y506165D01*
X285049Y506090D01*
X285095Y506014D01*
X285138Y505936D01*
X285177Y505856D01*
X285213Y505774D01*
X285246Y505691D01*
X285274Y505606D01*
X285299Y505521D01*
X285321Y505434D01*
X285338Y505346D01*
X285351Y505258D01*
X285361Y505169D01*
X285367Y505080D01*
X285369Y504991D01*
X285367Y504902D01*
X285361Y504813D01*
X285351Y504724D01*
X285338Y504636D01*
X285321Y504548D01*
X285299Y504461D01*
X285274Y504376D01*
X285246Y504291D01*
X285213Y504208D01*
X285177Y504126D01*
X285138Y504046D01*
X285095Y503968D01*
X285049Y503892D01*
X284999Y503817D01*
X284946Y503745D01*
X284890Y503676D01*
X284831Y503609D01*
X284770Y503544D01*
X284705Y503483D01*
X284638Y503424D01*
X284569Y503368D01*
X284497Y503315D01*
X284422Y503265D01*
X284346Y503219D01*
X284268Y503176D01*
X284188Y503137D01*
X284106Y503101D01*
X284023Y503068D01*
X283938Y503040D01*
X283853Y503015D01*
X283766Y502993D01*
X283678Y502976D01*
X283590Y502963D01*
X283501Y502953D01*
X283412Y502947D01*
X283323Y502945D01*
X279640Y503354D02*
X279561Y503356D01*
X279482Y503362D01*
X279403Y503371D01*
X279325Y503384D01*
X279248Y503402D01*
X279172Y503422D01*
X279097Y503447D01*
X279023Y503475D01*
X278950Y503506D01*
X278879Y503542D01*
X278810Y503580D01*
X278743Y503622D01*
X278678Y503667D01*
X278615Y503715D01*
X278554Y503766D01*
X278497Y503820D01*
X278441Y503876D01*
X278389Y503935D01*
X278339Y503997D01*
X278293Y504061D01*
X278249Y504127D01*
X278209Y504195D01*
X278173Y504265D01*
X278139Y504337D01*
X278109Y504411D01*
X278083Y504485D01*
X278060Y504561D01*
X278042Y504638D01*
X278026Y504715D01*
X278015Y504794D01*
X278007Y504872D01*
X278003Y504951D01*
X278003Y505031D01*
X278007Y505110D01*
X278015Y505188D01*
X278026Y505267D01*
X278042Y505344D01*
X278060Y505421D01*
X278083Y505497D01*
X278109Y505571D01*
X278139Y505645D01*
X278173Y505717D01*
X278209Y505787D01*
X278249Y505855D01*
X278293Y505921D01*
X278339Y505985D01*
X278389Y506047D01*
X278441Y506106D01*
X278497Y506162D01*
X278554Y506216D01*
X278615Y506267D01*
X278678Y506315D01*
X278743Y506360D01*
X278810Y506402D01*
X278879Y506440D01*
X278950Y506476D01*
X279023Y506507D01*
X279097Y506535D01*
X279172Y506560D01*
X279248Y506580D01*
X279325Y506598D01*
X279403Y506611D01*
X279482Y506620D01*
X279561Y506626D01*
X279640Y506628D01*
X279719Y506626D01*
X279798Y506620D01*
X279877Y506611D01*
X279955Y506598D01*
X280032Y506580D01*
X280108Y506560D01*
X280183Y506535D01*
X280257Y506507D01*
X280330Y506476D01*
X280401Y506440D01*
X280470Y506402D01*
X280537Y506360D01*
X280602Y506315D01*
X280665Y506267D01*
X280726Y506216D01*
X280783Y506162D01*
X280839Y506106D01*
X280891Y506047D01*
X280941Y505985D01*
X280987Y505921D01*
X281031Y505855D01*
X281071Y505787D01*
X281107Y505717D01*
X281141Y505645D01*
X281171Y505571D01*
X281197Y505497D01*
X281220Y505421D01*
X281238Y505344D01*
X281254Y505267D01*
X281265Y505188D01*
X281273Y505110D01*
X281277Y505031D01*
X281277Y504951D01*
X281273Y504872D01*
X281265Y504794D01*
X281254Y504715D01*
X281238Y504638D01*
X281220Y504561D01*
X281197Y504485D01*
X281171Y504411D01*
X281141Y504337D01*
X281107Y504265D01*
X281071Y504195D01*
X281031Y504127D01*
X280987Y504061D01*
X280941Y503997D01*
X280891Y503935D01*
X280839Y503876D01*
X280783Y503820D01*
X280726Y503766D01*
X280665Y503715D01*
X280602Y503667D01*
X280537Y503622D01*
X280470Y503580D01*
X280401Y503542D01*
X280330Y503506D01*
X280257Y503475D01*
X280183Y503447D01*
X280108Y503422D01*
X280032Y503402D01*
X279955Y503384D01*
X279877Y503371D01*
X279798Y503362D01*
X279719Y503356D01*
X279640Y503354D01*
X262735Y362331D02*
X261098Y362331D01*
X261020Y362333D01*
X260942Y362338D01*
X260865Y362348D01*
X260788Y362361D01*
X260712Y362377D01*
X260637Y362397D01*
X260563Y362421D01*
X260490Y362448D01*
X260418Y362479D01*
X260348Y362513D01*
X260280Y362550D01*
X260213Y362591D01*
X260148Y362635D01*
X260086Y362681D01*
X260026Y362731D01*
X259968Y362783D01*
X259913Y362838D01*
X259861Y362896D01*
X259811Y362956D01*
X259765Y363018D01*
X259721Y363083D01*
X259680Y363150D01*
X259643Y363218D01*
X259609Y363288D01*
X259578Y363360D01*
X259551Y363433D01*
X259527Y363507D01*
X259507Y363582D01*
X259491Y363658D01*
X259478Y363735D01*
X259468Y363812D01*
X259463Y363890D01*
X259461Y363968D01*
X259461Y368060D01*
X259463Y368140D01*
X259469Y368220D01*
X259479Y368300D01*
X259492Y368379D01*
X259510Y368458D01*
X259531Y368535D01*
X259557Y368611D01*
X259586Y368686D01*
X259618Y368760D01*
X259654Y368832D01*
X259694Y368902D01*
X259737Y368969D01*
X259783Y369035D01*
X259833Y369098D01*
X259885Y369159D01*
X259940Y369218D01*
X259999Y369273D01*
X260059Y369325D01*
X260123Y369375D01*
X260189Y369421D01*
X260256Y369464D01*
X260326Y369504D01*
X260398Y369540D01*
X260472Y369572D01*
X260546Y369601D01*
X260623Y369627D01*
X260700Y369648D01*
X260779Y369666D01*
X260858Y369679D01*
X260938Y369689D01*
X261018Y369695D01*
X261098Y369697D01*
X262735Y369697D01*
X265580Y368060D02*
X267626Y369697D01*
X267626Y362331D01*
X265580Y362331D02*
X269672Y362331D01*
D13*
X74150Y53150D02*
X74150Y27650D01*
X74150Y53150D02*
X74150Y61150D01*
X74150Y86650D01*
X29150Y86650D02*
X29150Y27650D01*
X29150Y86650D02*
X51150Y86650D01*
X60150Y86650D01*
X74150Y86650D01*
X51150Y27650D02*
X29150Y27650D01*
X51150Y27650D02*
X60150Y27650D01*
X74150Y27650D01*
X35150Y33650D02*
X35150Y80650D01*
X35150Y33650D02*
X51150Y33650D01*
X60150Y33650D01*
X68150Y33650D01*
X68150Y53150D01*
X51150Y80650D02*
X35150Y80650D01*
X51150Y80650D02*
X60150Y80650D01*
X68150Y80650D01*
X60150Y33650D02*
X60150Y27650D01*
X51150Y27650D02*
X51150Y33650D01*
X51150Y80650D02*
X51150Y86650D01*
X60150Y86650D02*
X60150Y80650D01*
X68150Y80650D02*
X68150Y61150D01*
X74150Y61150D01*
X74150Y53150D02*
X68150Y53150D01*
D10*
X82553Y66659D02*
X79957Y69905D01*
X91641Y69905D01*
X91641Y73150D02*
X91641Y66659D01*
D11*
X53790Y92380D02*
X53790Y101778D01*
X56401Y101778D01*
X56502Y101776D01*
X56603Y101770D01*
X56704Y101760D01*
X56804Y101747D01*
X56904Y101729D01*
X57003Y101708D01*
X57101Y101682D01*
X57198Y101653D01*
X57294Y101621D01*
X57388Y101584D01*
X57481Y101544D01*
X57573Y101500D01*
X57662Y101453D01*
X57750Y101402D01*
X57836Y101348D01*
X57919Y101291D01*
X58001Y101231D01*
X58079Y101167D01*
X58156Y101101D01*
X58229Y101031D01*
X58300Y100959D01*
X58368Y100884D01*
X58433Y100806D01*
X58495Y100726D01*
X58554Y100644D01*
X58610Y100559D01*
X58662Y100472D01*
X58711Y100384D01*
X58757Y100293D01*
X58798Y100201D01*
X58837Y100107D01*
X58871Y100012D01*
X58902Y99916D01*
X58929Y99818D01*
X58953Y99720D01*
X58972Y99620D01*
X58988Y99520D01*
X59000Y99420D01*
X59008Y99319D01*
X59012Y99218D01*
X59012Y99116D01*
X59008Y99015D01*
X59000Y98914D01*
X58988Y98814D01*
X58972Y98714D01*
X58953Y98614D01*
X58929Y98516D01*
X58902Y98418D01*
X58871Y98322D01*
X58837Y98227D01*
X58798Y98133D01*
X58757Y98041D01*
X58711Y97950D01*
X58662Y97861D01*
X58610Y97775D01*
X58554Y97690D01*
X58495Y97608D01*
X58433Y97528D01*
X58368Y97450D01*
X58300Y97375D01*
X58229Y97303D01*
X58156Y97233D01*
X58079Y97167D01*
X58001Y97103D01*
X57919Y97043D01*
X57836Y96986D01*
X57750Y96932D01*
X57662Y96881D01*
X57573Y96834D01*
X57481Y96790D01*
X57388Y96750D01*
X57294Y96713D01*
X57198Y96681D01*
X57101Y96652D01*
X57003Y96626D01*
X56904Y96605D01*
X56804Y96587D01*
X56704Y96574D01*
X56603Y96564D01*
X56502Y96558D01*
X56401Y96556D01*
X56401Y96557D02*
X53790Y96557D01*
X62498Y99690D02*
X65108Y101778D01*
X65108Y92380D01*
X62498Y92380D02*
X67719Y92380D01*
D13*
X74150Y199100D02*
X74150Y224600D01*
X74150Y232600D01*
X74150Y258100D01*
X29150Y258100D02*
X29150Y199100D01*
X29150Y258100D02*
X51150Y258100D01*
X60150Y258100D01*
X74150Y258100D01*
X51150Y199100D02*
X29150Y199100D01*
X51150Y199100D02*
X60150Y199100D01*
X74150Y199100D01*
X35150Y205100D02*
X35150Y252100D01*
X35150Y205100D02*
X51150Y205100D01*
X60150Y205100D01*
X68150Y205100D01*
X68150Y224600D01*
X51150Y252100D02*
X35150Y252100D01*
X51150Y252100D02*
X60150Y252100D01*
X68150Y252100D01*
X60150Y205100D02*
X60150Y199100D01*
X51150Y199100D02*
X51150Y205100D01*
X51150Y252100D02*
X51150Y258100D01*
X60150Y258100D02*
X60150Y252100D01*
X68150Y252100D02*
X68150Y232600D01*
X74150Y232600D01*
X74150Y224600D02*
X68150Y224600D01*
D10*
X82553Y238109D02*
X79957Y241355D01*
X91641Y241355D01*
X91641Y244600D02*
X91641Y238109D01*
D11*
X53790Y193218D02*
X53790Y183820D01*
X53790Y193218D02*
X56401Y193218D01*
X56502Y193216D01*
X56603Y193210D01*
X56704Y193200D01*
X56804Y193187D01*
X56904Y193169D01*
X57003Y193148D01*
X57101Y193122D01*
X57198Y193093D01*
X57294Y193061D01*
X57388Y193024D01*
X57481Y192984D01*
X57573Y192940D01*
X57662Y192893D01*
X57750Y192842D01*
X57836Y192788D01*
X57919Y192731D01*
X58001Y192671D01*
X58079Y192607D01*
X58156Y192541D01*
X58229Y192471D01*
X58300Y192399D01*
X58368Y192324D01*
X58433Y192246D01*
X58495Y192166D01*
X58554Y192084D01*
X58610Y191999D01*
X58662Y191912D01*
X58711Y191824D01*
X58757Y191733D01*
X58798Y191641D01*
X58837Y191547D01*
X58871Y191452D01*
X58902Y191356D01*
X58929Y191258D01*
X58953Y191160D01*
X58972Y191060D01*
X58988Y190960D01*
X59000Y190860D01*
X59008Y190759D01*
X59012Y190658D01*
X59012Y190556D01*
X59008Y190455D01*
X59000Y190354D01*
X58988Y190254D01*
X58972Y190154D01*
X58953Y190054D01*
X58929Y189956D01*
X58902Y189858D01*
X58871Y189762D01*
X58837Y189667D01*
X58798Y189573D01*
X58757Y189481D01*
X58711Y189390D01*
X58662Y189301D01*
X58610Y189215D01*
X58554Y189130D01*
X58495Y189048D01*
X58433Y188968D01*
X58368Y188890D01*
X58300Y188815D01*
X58229Y188743D01*
X58156Y188673D01*
X58079Y188607D01*
X58001Y188543D01*
X57919Y188483D01*
X57836Y188426D01*
X57750Y188372D01*
X57662Y188321D01*
X57573Y188274D01*
X57481Y188230D01*
X57388Y188190D01*
X57294Y188153D01*
X57198Y188121D01*
X57101Y188092D01*
X57003Y188066D01*
X56904Y188045D01*
X56804Y188027D01*
X56704Y188014D01*
X56603Y188004D01*
X56502Y187998D01*
X56401Y187996D01*
X56401Y187997D02*
X53790Y187997D01*
X65370Y193219D02*
X65465Y193217D01*
X65559Y193211D01*
X65653Y193202D01*
X65747Y193189D01*
X65840Y193172D01*
X65932Y193151D01*
X66024Y193126D01*
X66114Y193098D01*
X66203Y193066D01*
X66291Y193031D01*
X66377Y192992D01*
X66462Y192950D01*
X66545Y192904D01*
X66626Y192855D01*
X66705Y192803D01*
X66782Y192748D01*
X66856Y192689D01*
X66928Y192628D01*
X66998Y192564D01*
X67065Y192497D01*
X67129Y192427D01*
X67190Y192355D01*
X67249Y192281D01*
X67304Y192204D01*
X67356Y192125D01*
X67405Y192044D01*
X67451Y191961D01*
X67493Y191876D01*
X67532Y191790D01*
X67567Y191702D01*
X67599Y191613D01*
X67627Y191523D01*
X67652Y191431D01*
X67673Y191339D01*
X67690Y191246D01*
X67703Y191152D01*
X67712Y191058D01*
X67718Y190964D01*
X67720Y190869D01*
X65370Y193218D02*
X65262Y193216D01*
X65153Y193210D01*
X65045Y193200D01*
X64938Y193187D01*
X64831Y193169D01*
X64724Y193148D01*
X64619Y193123D01*
X64514Y193094D01*
X64411Y193062D01*
X64309Y193025D01*
X64208Y192985D01*
X64109Y192942D01*
X64011Y192895D01*
X63915Y192844D01*
X63821Y192790D01*
X63729Y192733D01*
X63639Y192672D01*
X63551Y192608D01*
X63466Y192542D01*
X63383Y192472D01*
X63303Y192399D01*
X63225Y192323D01*
X63150Y192245D01*
X63078Y192164D01*
X63009Y192080D01*
X62943Y191994D01*
X62880Y191906D01*
X62821Y191815D01*
X62764Y191723D01*
X62711Y191628D01*
X62662Y191532D01*
X62616Y191433D01*
X62573Y191334D01*
X62534Y191232D01*
X62499Y191130D01*
X66936Y189041D02*
X67005Y189110D01*
X67071Y189181D01*
X67135Y189254D01*
X67196Y189330D01*
X67254Y189409D01*
X67308Y189489D01*
X67360Y189572D01*
X67408Y189656D01*
X67454Y189742D01*
X67495Y189830D01*
X67534Y189920D01*
X67569Y190011D01*
X67600Y190103D01*
X67628Y190196D01*
X67652Y190290D01*
X67672Y190385D01*
X67689Y190481D01*
X67702Y190578D01*
X67711Y190675D01*
X67717Y190772D01*
X67719Y190869D01*
X66936Y189041D02*
X62498Y183820D01*
X67719Y183820D01*
D16*
X240680Y325500D02*
X240680Y331500D01*
X232680Y331500D01*
X240680Y309500D02*
X240680Y303500D01*
X232680Y303500D01*
D11*
X234301Y286881D02*
X231027Y286881D01*
X230938Y286883D01*
X230849Y286889D01*
X230760Y286899D01*
X230672Y286912D01*
X230584Y286929D01*
X230497Y286951D01*
X230412Y286976D01*
X230327Y287004D01*
X230244Y287037D01*
X230162Y287073D01*
X230082Y287112D01*
X230004Y287155D01*
X229928Y287201D01*
X229853Y287251D01*
X229781Y287304D01*
X229712Y287360D01*
X229645Y287419D01*
X229580Y287480D01*
X229519Y287545D01*
X229460Y287612D01*
X229404Y287681D01*
X229351Y287753D01*
X229301Y287828D01*
X229255Y287904D01*
X229212Y287982D01*
X229173Y288062D01*
X229137Y288144D01*
X229104Y288227D01*
X229076Y288312D01*
X229051Y288397D01*
X229029Y288484D01*
X229012Y288572D01*
X228999Y288660D01*
X228989Y288749D01*
X228983Y288838D01*
X228981Y288927D01*
X228983Y289016D01*
X228989Y289105D01*
X228999Y289194D01*
X229012Y289282D01*
X229029Y289370D01*
X229051Y289457D01*
X229076Y289542D01*
X229104Y289627D01*
X229137Y289710D01*
X229173Y289792D01*
X229212Y289872D01*
X229255Y289950D01*
X229301Y290026D01*
X229351Y290101D01*
X229404Y290173D01*
X229460Y290242D01*
X229519Y290309D01*
X229580Y290374D01*
X229645Y290435D01*
X229712Y290494D01*
X229781Y290550D01*
X229853Y290603D01*
X229928Y290653D01*
X230004Y290699D01*
X230082Y290742D01*
X230162Y290781D01*
X230244Y290817D01*
X230327Y290850D01*
X230412Y290878D01*
X230497Y290903D01*
X230584Y290925D01*
X230672Y290942D01*
X230760Y290955D01*
X230849Y290965D01*
X230938Y290971D01*
X231027Y290973D01*
X231027Y290974D02*
X234301Y290974D01*
X234301Y290973D02*
X234390Y290971D01*
X234479Y290965D01*
X234568Y290955D01*
X234656Y290942D01*
X234744Y290925D01*
X234831Y290903D01*
X234916Y290878D01*
X235001Y290850D01*
X235084Y290817D01*
X235166Y290781D01*
X235246Y290742D01*
X235324Y290699D01*
X235400Y290653D01*
X235475Y290603D01*
X235547Y290550D01*
X235616Y290494D01*
X235683Y290435D01*
X235748Y290374D01*
X235809Y290309D01*
X235868Y290242D01*
X235924Y290173D01*
X235977Y290101D01*
X236027Y290026D01*
X236073Y289950D01*
X236116Y289872D01*
X236155Y289792D01*
X236191Y289710D01*
X236224Y289627D01*
X236252Y289542D01*
X236277Y289457D01*
X236299Y289370D01*
X236316Y289282D01*
X236329Y289194D01*
X236339Y289105D01*
X236345Y289016D01*
X236347Y288927D01*
X236345Y288838D01*
X236339Y288749D01*
X236329Y288660D01*
X236316Y288572D01*
X236299Y288484D01*
X236277Y288397D01*
X236252Y288312D01*
X236224Y288227D01*
X236191Y288144D01*
X236155Y288062D01*
X236116Y287982D01*
X236073Y287904D01*
X236027Y287828D01*
X235977Y287753D01*
X235924Y287681D01*
X235868Y287612D01*
X235809Y287545D01*
X235748Y287480D01*
X235683Y287419D01*
X235616Y287360D01*
X235547Y287304D01*
X235475Y287251D01*
X235400Y287201D01*
X235324Y287155D01*
X235246Y287112D01*
X235166Y287073D01*
X235084Y287037D01*
X235001Y287004D01*
X234916Y286976D01*
X234831Y286951D01*
X234744Y286929D01*
X234656Y286912D01*
X234568Y286899D01*
X234479Y286889D01*
X234390Y286883D01*
X234301Y286881D01*
X234710Y290155D02*
X236347Y291792D01*
X230618Y293977D02*
X228981Y296023D01*
X236347Y296023D01*
X236347Y293977D02*
X236347Y298069D01*
X204597Y286713D02*
X197231Y286713D01*
X197231Y288759D01*
X197233Y288848D01*
X197239Y288937D01*
X197249Y289026D01*
X197262Y289114D01*
X197279Y289202D01*
X197301Y289289D01*
X197326Y289374D01*
X197354Y289459D01*
X197387Y289542D01*
X197423Y289624D01*
X197462Y289704D01*
X197505Y289782D01*
X197551Y289858D01*
X197601Y289933D01*
X197654Y290005D01*
X197710Y290074D01*
X197769Y290141D01*
X197830Y290206D01*
X197895Y290267D01*
X197962Y290326D01*
X198031Y290382D01*
X198103Y290435D01*
X198178Y290485D01*
X198254Y290531D01*
X198332Y290574D01*
X198412Y290613D01*
X198494Y290649D01*
X198577Y290682D01*
X198662Y290710D01*
X198747Y290735D01*
X198834Y290757D01*
X198922Y290774D01*
X199010Y290787D01*
X199099Y290797D01*
X199188Y290803D01*
X199277Y290805D01*
X199366Y290803D01*
X199455Y290797D01*
X199544Y290787D01*
X199632Y290774D01*
X199720Y290757D01*
X199807Y290735D01*
X199892Y290710D01*
X199977Y290682D01*
X200060Y290649D01*
X200142Y290613D01*
X200222Y290574D01*
X200300Y290531D01*
X200376Y290485D01*
X200451Y290435D01*
X200523Y290382D01*
X200592Y290326D01*
X200659Y290267D01*
X200724Y290206D01*
X200785Y290141D01*
X200844Y290074D01*
X200900Y290005D01*
X200953Y289933D01*
X201003Y289858D01*
X201049Y289782D01*
X201092Y289704D01*
X201131Y289624D01*
X201167Y289542D01*
X201200Y289459D01*
X201228Y289374D01*
X201253Y289289D01*
X201275Y289202D01*
X201292Y289114D01*
X201305Y289026D01*
X201315Y288937D01*
X201321Y288848D01*
X201323Y288759D01*
X201323Y286713D01*
X201323Y289168D02*
X204597Y290805D01*
X199073Y298070D02*
X198988Y298068D01*
X198903Y298062D01*
X198819Y298052D01*
X198735Y298039D01*
X198651Y298021D01*
X198569Y298000D01*
X198488Y297975D01*
X198408Y297946D01*
X198329Y297913D01*
X198252Y297877D01*
X198177Y297837D01*
X198103Y297794D01*
X198032Y297748D01*
X197963Y297698D01*
X197896Y297645D01*
X197832Y297589D01*
X197771Y297530D01*
X197712Y297469D01*
X197656Y297405D01*
X197603Y297338D01*
X197553Y297269D01*
X197507Y297198D01*
X197464Y297124D01*
X197424Y297049D01*
X197388Y296972D01*
X197355Y296893D01*
X197326Y296813D01*
X197301Y296732D01*
X197280Y296650D01*
X197262Y296566D01*
X197249Y296482D01*
X197239Y296398D01*
X197233Y296313D01*
X197231Y296228D01*
X197233Y296132D01*
X197239Y296036D01*
X197249Y295941D01*
X197262Y295846D01*
X197280Y295751D01*
X197301Y295658D01*
X197326Y295565D01*
X197355Y295474D01*
X197387Y295383D01*
X197423Y295294D01*
X197463Y295207D01*
X197506Y295121D01*
X197552Y295037D01*
X197602Y294955D01*
X197656Y294875D01*
X197712Y294798D01*
X197772Y294723D01*
X197834Y294650D01*
X197900Y294580D01*
X197968Y294512D01*
X198039Y294447D01*
X198112Y294386D01*
X198188Y294327D01*
X198267Y294271D01*
X198347Y294219D01*
X198430Y294170D01*
X198514Y294124D01*
X198600Y294082D01*
X198688Y294044D01*
X198777Y294009D01*
X198868Y293977D01*
X200505Y297455D02*
X200446Y297515D01*
X200384Y297572D01*
X200320Y297627D01*
X200253Y297678D01*
X200184Y297727D01*
X200114Y297773D01*
X200041Y297816D01*
X199967Y297856D01*
X199891Y297892D01*
X199813Y297925D01*
X199734Y297955D01*
X199654Y297982D01*
X199573Y298005D01*
X199491Y298024D01*
X199409Y298040D01*
X199325Y298053D01*
X199241Y298062D01*
X199157Y298067D01*
X199073Y298069D01*
X200505Y297455D02*
X204597Y293977D01*
X204597Y298069D01*
X259461Y298831D02*
X259461Y306197D01*
X261507Y306197D01*
X261596Y306195D01*
X261685Y306189D01*
X261774Y306179D01*
X261862Y306166D01*
X261950Y306149D01*
X262037Y306127D01*
X262122Y306102D01*
X262207Y306074D01*
X262290Y306041D01*
X262372Y306005D01*
X262452Y305966D01*
X262530Y305923D01*
X262606Y305877D01*
X262681Y305827D01*
X262753Y305774D01*
X262822Y305718D01*
X262889Y305659D01*
X262954Y305598D01*
X263015Y305533D01*
X263074Y305466D01*
X263130Y305397D01*
X263183Y305325D01*
X263233Y305250D01*
X263279Y305174D01*
X263322Y305096D01*
X263361Y305016D01*
X263397Y304934D01*
X263430Y304851D01*
X263458Y304766D01*
X263483Y304681D01*
X263505Y304594D01*
X263522Y304506D01*
X263535Y304418D01*
X263545Y304329D01*
X263551Y304240D01*
X263553Y304151D01*
X263551Y304062D01*
X263545Y303973D01*
X263535Y303884D01*
X263522Y303796D01*
X263505Y303708D01*
X263483Y303621D01*
X263458Y303536D01*
X263430Y303451D01*
X263397Y303368D01*
X263361Y303286D01*
X263322Y303206D01*
X263279Y303128D01*
X263233Y303052D01*
X263183Y302977D01*
X263130Y302905D01*
X263074Y302836D01*
X263015Y302769D01*
X262954Y302704D01*
X262889Y302643D01*
X262822Y302584D01*
X262753Y302528D01*
X262681Y302475D01*
X262606Y302425D01*
X262530Y302379D01*
X262452Y302336D01*
X262372Y302297D01*
X262290Y302261D01*
X262207Y302228D01*
X262122Y302200D01*
X262037Y302175D01*
X261950Y302153D01*
X261862Y302136D01*
X261774Y302123D01*
X261685Y302113D01*
X261596Y302107D01*
X261507Y302105D01*
X259461Y302105D01*
X261916Y302105D02*
X263553Y298831D01*
X266725Y298831D02*
X268771Y298831D01*
X268860Y298833D01*
X268949Y298839D01*
X269038Y298849D01*
X269126Y298862D01*
X269214Y298879D01*
X269301Y298901D01*
X269386Y298926D01*
X269471Y298954D01*
X269554Y298987D01*
X269636Y299023D01*
X269716Y299062D01*
X269794Y299105D01*
X269870Y299151D01*
X269945Y299201D01*
X270017Y299254D01*
X270086Y299310D01*
X270153Y299369D01*
X270218Y299430D01*
X270279Y299495D01*
X270338Y299562D01*
X270394Y299631D01*
X270447Y299703D01*
X270497Y299778D01*
X270543Y299854D01*
X270586Y299932D01*
X270625Y300012D01*
X270661Y300094D01*
X270694Y300177D01*
X270722Y300262D01*
X270747Y300347D01*
X270769Y300434D01*
X270786Y300522D01*
X270799Y300610D01*
X270809Y300699D01*
X270815Y300788D01*
X270817Y300877D01*
X270815Y300966D01*
X270809Y301055D01*
X270799Y301144D01*
X270786Y301232D01*
X270769Y301320D01*
X270747Y301407D01*
X270722Y301492D01*
X270694Y301577D01*
X270661Y301660D01*
X270625Y301742D01*
X270586Y301822D01*
X270543Y301900D01*
X270497Y301976D01*
X270447Y302051D01*
X270394Y302123D01*
X270338Y302192D01*
X270279Y302259D01*
X270218Y302324D01*
X270153Y302385D01*
X270086Y302444D01*
X270017Y302500D01*
X269945Y302553D01*
X269870Y302603D01*
X269794Y302649D01*
X269716Y302692D01*
X269636Y302731D01*
X269554Y302767D01*
X269471Y302800D01*
X269386Y302828D01*
X269301Y302853D01*
X269214Y302875D01*
X269126Y302892D01*
X269038Y302905D01*
X268949Y302915D01*
X268860Y302921D01*
X268771Y302923D01*
X269180Y306197D02*
X266725Y306197D01*
X269180Y306197D02*
X269259Y306195D01*
X269338Y306189D01*
X269417Y306180D01*
X269495Y306167D01*
X269572Y306149D01*
X269648Y306129D01*
X269723Y306104D01*
X269797Y306076D01*
X269870Y306045D01*
X269941Y306009D01*
X270010Y305971D01*
X270077Y305929D01*
X270142Y305884D01*
X270205Y305836D01*
X270266Y305785D01*
X270323Y305731D01*
X270379Y305675D01*
X270431Y305616D01*
X270481Y305554D01*
X270527Y305490D01*
X270571Y305424D01*
X270611Y305356D01*
X270647Y305286D01*
X270681Y305214D01*
X270711Y305140D01*
X270737Y305066D01*
X270760Y304990D01*
X270778Y304913D01*
X270794Y304836D01*
X270805Y304757D01*
X270813Y304679D01*
X270817Y304600D01*
X270817Y304520D01*
X270813Y304441D01*
X270805Y304363D01*
X270794Y304284D01*
X270778Y304207D01*
X270760Y304130D01*
X270737Y304054D01*
X270711Y303980D01*
X270681Y303906D01*
X270647Y303834D01*
X270611Y303764D01*
X270571Y303696D01*
X270527Y303630D01*
X270481Y303566D01*
X270431Y303504D01*
X270379Y303445D01*
X270323Y303389D01*
X270266Y303335D01*
X270205Y303284D01*
X270142Y303236D01*
X270077Y303191D01*
X270010Y303149D01*
X269941Y303111D01*
X269870Y303075D01*
X269797Y303044D01*
X269723Y303016D01*
X269648Y302991D01*
X269572Y302971D01*
X269495Y302953D01*
X269417Y302940D01*
X269338Y302931D01*
X269259Y302925D01*
X269180Y302923D01*
X267543Y302923D01*
X259461Y330581D02*
X259461Y337947D01*
X261507Y337947D01*
X261596Y337945D01*
X261685Y337939D01*
X261774Y337929D01*
X261862Y337916D01*
X261950Y337899D01*
X262037Y337877D01*
X262122Y337852D01*
X262207Y337824D01*
X262290Y337791D01*
X262372Y337755D01*
X262452Y337716D01*
X262530Y337673D01*
X262606Y337627D01*
X262681Y337577D01*
X262753Y337524D01*
X262822Y337468D01*
X262889Y337409D01*
X262954Y337348D01*
X263015Y337283D01*
X263074Y337216D01*
X263130Y337147D01*
X263183Y337075D01*
X263233Y337000D01*
X263279Y336924D01*
X263322Y336846D01*
X263361Y336766D01*
X263397Y336684D01*
X263430Y336601D01*
X263458Y336516D01*
X263483Y336431D01*
X263505Y336344D01*
X263522Y336256D01*
X263535Y336168D01*
X263545Y336079D01*
X263551Y335990D01*
X263553Y335901D01*
X263551Y335812D01*
X263545Y335723D01*
X263535Y335634D01*
X263522Y335546D01*
X263505Y335458D01*
X263483Y335371D01*
X263458Y335286D01*
X263430Y335201D01*
X263397Y335118D01*
X263361Y335036D01*
X263322Y334956D01*
X263279Y334878D01*
X263233Y334802D01*
X263183Y334727D01*
X263130Y334655D01*
X263074Y334586D01*
X263015Y334519D01*
X262954Y334454D01*
X262889Y334393D01*
X262822Y334334D01*
X262753Y334278D01*
X262681Y334225D01*
X262606Y334175D01*
X262530Y334129D01*
X262452Y334086D01*
X262372Y334047D01*
X262290Y334011D01*
X262207Y333978D01*
X262122Y333950D01*
X262037Y333925D01*
X261950Y333903D01*
X261862Y333886D01*
X261774Y333873D01*
X261685Y333863D01*
X261596Y333857D01*
X261507Y333855D01*
X259461Y333855D01*
X261916Y333855D02*
X263553Y330581D01*
X266725Y332218D02*
X268362Y337947D01*
X266725Y332218D02*
X270817Y332218D01*
X269590Y333855D02*
X269590Y330581D01*
D17*
X157226Y324104D02*
X157226Y315976D01*
X157226Y324104D02*
X162814Y324104D01*
X185674Y324104D02*
X185674Y315976D01*
X185674Y324104D02*
X180086Y324104D01*
D11*
X175387Y286418D02*
X168021Y286418D01*
X168021Y288464D01*
X168023Y288553D01*
X168029Y288642D01*
X168039Y288731D01*
X168052Y288819D01*
X168069Y288907D01*
X168091Y288994D01*
X168116Y289079D01*
X168144Y289164D01*
X168177Y289247D01*
X168213Y289329D01*
X168252Y289409D01*
X168295Y289487D01*
X168341Y289563D01*
X168391Y289638D01*
X168444Y289710D01*
X168500Y289779D01*
X168559Y289846D01*
X168620Y289911D01*
X168685Y289972D01*
X168752Y290031D01*
X168821Y290087D01*
X168893Y290140D01*
X168968Y290190D01*
X169044Y290236D01*
X169122Y290279D01*
X169202Y290318D01*
X169284Y290354D01*
X169367Y290387D01*
X169452Y290415D01*
X169537Y290440D01*
X169624Y290462D01*
X169712Y290479D01*
X169800Y290492D01*
X169889Y290502D01*
X169978Y290508D01*
X170067Y290510D01*
X173341Y290510D01*
X173430Y290508D01*
X173519Y290502D01*
X173608Y290492D01*
X173696Y290479D01*
X173784Y290462D01*
X173871Y290440D01*
X173956Y290415D01*
X174041Y290387D01*
X174124Y290354D01*
X174206Y290318D01*
X174286Y290279D01*
X174364Y290236D01*
X174440Y290190D01*
X174515Y290140D01*
X174587Y290087D01*
X174656Y290031D01*
X174723Y289972D01*
X174788Y289911D01*
X174849Y289846D01*
X174908Y289779D01*
X174964Y289710D01*
X175017Y289638D01*
X175067Y289563D01*
X175113Y289487D01*
X175156Y289409D01*
X175195Y289329D01*
X175231Y289247D01*
X175264Y289164D01*
X175292Y289079D01*
X175317Y288994D01*
X175339Y288907D01*
X175356Y288819D01*
X175369Y288731D01*
X175379Y288642D01*
X175385Y288553D01*
X175387Y288464D01*
X175387Y286418D01*
X169658Y293977D02*
X168021Y296023D01*
X175387Y296023D01*
X175387Y293977D02*
X175387Y298069D01*
M02*
