G04 EAGLE Gerber RS-274X export*
G75*
%MOMM*%
%FSLAX34Y34*%
%LPD*%
%INSolderpaste Top*%
%IPPOS*%
%AMOC8*
5,1,8,0,0,1.08239X$1,22.5*%
G01*
%ADD10R,1.000000X1.100000*%
%ADD11R,1.524000X3.025000*%
%ADD12R,2.290000X1.270000*%
%ADD13C,0.145000*%
%ADD14R,0.800000X0.800000*%
%ADD15R,1.100000X1.000000*%
%ADD16R,0.900000X0.800000*%
%ADD17R,1.000000X1.400000*%


D10*
X122800Y463550D03*
X105800Y463550D03*
D11*
X104200Y62390D03*
X129600Y62390D03*
X155000Y62390D03*
X180400Y62390D03*
X205800Y62390D03*
X231200Y62390D03*
X256600Y62390D03*
X282000Y62390D03*
X104200Y222090D03*
X129600Y222090D03*
X155000Y222090D03*
X180400Y222090D03*
X205800Y222090D03*
X231200Y222090D03*
X256600Y222090D03*
X282000Y222090D03*
D10*
X122800Y266700D03*
X105800Y266700D03*
X186300Y355600D03*
X169300Y355600D03*
D12*
X89050Y304800D03*
X139550Y304800D03*
X89050Y330200D03*
X139550Y330200D03*
X89050Y355600D03*
X139550Y355600D03*
X89050Y381000D03*
X139550Y381000D03*
X89050Y406400D03*
X139550Y406400D03*
X89050Y431800D03*
X139550Y431800D03*
D13*
X246675Y439325D02*
X246675Y449975D01*
X246675Y439325D02*
X242325Y439325D01*
X242325Y449975D01*
X246675Y449975D01*
X246675Y440702D02*
X242325Y440702D01*
X242325Y442079D02*
X246675Y442079D01*
X246675Y443456D02*
X242325Y443456D01*
X242325Y444833D02*
X246675Y444833D01*
X246675Y446210D02*
X242325Y446210D01*
X242325Y447587D02*
X246675Y447587D01*
X246675Y448964D02*
X242325Y448964D01*
X256175Y449975D02*
X256175Y439325D01*
X251825Y439325D01*
X251825Y449975D01*
X256175Y449975D01*
X256175Y440702D02*
X251825Y440702D01*
X251825Y442079D02*
X256175Y442079D01*
X256175Y443456D02*
X251825Y443456D01*
X251825Y444833D02*
X256175Y444833D01*
X256175Y446210D02*
X251825Y446210D01*
X251825Y447587D02*
X256175Y447587D01*
X256175Y448964D02*
X251825Y448964D01*
X265675Y449975D02*
X265675Y439325D01*
X261325Y439325D01*
X261325Y449975D01*
X265675Y449975D01*
X265675Y440702D02*
X261325Y440702D01*
X261325Y442079D02*
X265675Y442079D01*
X265675Y443456D02*
X261325Y443456D01*
X261325Y444833D02*
X265675Y444833D01*
X265675Y446210D02*
X261325Y446210D01*
X261325Y447587D02*
X265675Y447587D01*
X265675Y448964D02*
X261325Y448964D01*
X246675Y464425D02*
X246675Y475075D01*
X246675Y464425D02*
X242325Y464425D01*
X242325Y475075D01*
X246675Y475075D01*
X246675Y465802D02*
X242325Y465802D01*
X242325Y467179D02*
X246675Y467179D01*
X246675Y468556D02*
X242325Y468556D01*
X242325Y469933D02*
X246675Y469933D01*
X246675Y471310D02*
X242325Y471310D01*
X242325Y472687D02*
X246675Y472687D01*
X246675Y474064D02*
X242325Y474064D01*
X256175Y475075D02*
X256175Y464425D01*
X251825Y464425D01*
X251825Y475075D01*
X256175Y475075D01*
X256175Y465802D02*
X251825Y465802D01*
X251825Y467179D02*
X256175Y467179D01*
X256175Y468556D02*
X251825Y468556D01*
X251825Y469933D02*
X256175Y469933D01*
X256175Y471310D02*
X251825Y471310D01*
X251825Y472687D02*
X256175Y472687D01*
X256175Y474064D02*
X251825Y474064D01*
X265675Y475075D02*
X265675Y464425D01*
X261325Y464425D01*
X261325Y475075D01*
X265675Y475075D01*
X265675Y465802D02*
X261325Y465802D01*
X261325Y467179D02*
X265675Y467179D01*
X265675Y468556D02*
X261325Y468556D01*
X261325Y469933D02*
X265675Y469933D01*
X265675Y471310D02*
X261325Y471310D01*
X261325Y472687D02*
X265675Y472687D01*
X265675Y474064D02*
X261325Y474064D01*
D14*
X241300Y532250D03*
X241300Y547250D03*
X266700Y532250D03*
X266700Y547250D03*
D15*
X241300Y493150D03*
X241300Y510150D03*
X266700Y493150D03*
X266700Y510150D03*
X280280Y381000D03*
X263280Y381000D03*
D16*
X223680Y327000D03*
X223680Y308000D03*
X244680Y317500D03*
D15*
X200660Y326000D03*
X200660Y309000D03*
D10*
X263280Y317500D03*
X280280Y317500D03*
X263280Y349250D03*
X280280Y349250D03*
D17*
X171450Y328500D03*
X180950Y306500D03*
X161950Y306500D03*
M02*
